/* XPM */
static char * Bat_xpm[] = {
"105 64 9 1",
" 	c #FFFFFF",
".	c #8C8C8C",
"+	c #FFD438",
"@	c #CF7373",
"#	c #E8879B",
"$	c #E4A6AC",
"%	c #F0CED4",
"&	c #000000",
"*	c #B8B8BB",
"                                                                                                         ",
"                                                                                                         ",
"                                                                                                         ",
"                                                                                                         ",
"                                                                                                         ",
"                                                                                                         ",
"                                                                                                         ",
"                                                                                                         ",
"                                                                                                         ",
"                                                                                                         ",
"                                                                                                         ",
"                                                                                                         ",
"                                                                                                         ",
"                                                                                                         ",
"                                                                                                         ",
"                                                                                                         ",
"                                                                                                         ",
"                                                                                                         ",
"                                                ........                                                 ",
"                                               ..........                                                ",
"                                             ..............                                              ",
"                                            ................                                             ",
"                                           ......++++++......                                            ",
"                                           ....++++++++++....                                            ",
"  @@@@@@@@@@@@@@@@@@@@@@@@@@              ....++++++++++++....              @@@@@@@@@@@@@@@@@@@@@@@@@@   ",
" @##########################@@            ...++++++++++++++...            @@##########################@  ",
"  @@@@@@@@@@@@@@@@@@@@@@@@@@##@@         ....++++++++++++++....         @@##@@@@@@@@@@@@@@@@@@@@@@@@@@   ",
"    @@$$$$$$$$$$%%%%%%%%%%%%@@##@        ....++++++++++++++....        @##@@%%%%%%%%%%%%$$$$$$$$$$@@     ",
"      @@@$$$$$$$$$%%%%%%%%%%%%@@#@@      ....++++++++++++++....      @@#@@%%%%%%%%%%%%$$$$$$$$$@@@       ",
"         @$$$$$$%%%%%%%%%%%%%%%%@##@@@   ....++++++++++++++....   @@@##@%%%%%%%%%%%%%%%%$$$$$$@          ",
"          @$$$%%%%%%%%%%%%%%%%%%%@@###@@ ....++++++&&++++++.... @@###@@%%%%%%%%%%%%%%%%%%%$$$@           ",
"           @%%%%%$$$$$$%%%%%%%%%%%%@####@....++++++&&++++++....@####@%%%%%%%%%%%%$$$$$$%%%%%@            ",
"           @%%%$$$$$$%%%%%%$$%%%%%%%@@###@...++++++++++++++...@###@@%%%%%%%$$%%%%%%$$$$$$%%%@            ",
"          @%%%$$$$$%%%%%%%$$%%%%%%%@  @##@....++++++++++++....@##@  @%%%%%%%$$%%%%%%%$$$$$%%%@           ",
"         @%%%%@@@$$%%%%%$$$%%%%%%%@    @@@ ....++++++++++.... @@@    @%%%%%%%$$$%%%%%$$@@@%%%%@          ",
"        @%%%@@   @%%%%%$$$$%%%%%%@         ......++++++......         @%%%%%%$$$$%%%%%@   @@%%%@         ",
"         @@@     @%%%%$$@@$$%%%%%@          ................          @%%%%%$$@@$$%%%%@     @@@          ",
"                 @%%%$@@  @$%%%%%%@          ..............          @%%%%%%$@  @@$%%%@                  ",
"                  @%$@     @%%%%%%@            ..........            @%%%%%%@     @$%@                   ",
"                  @%@       @%%%%%%@@           ........           @@%%%%%%@       @%@                   ",
"                   @         @%%%%%%%@           **  **           @%%%%%%%@         @                    ",
"                              @@@@@@@            **  **            @@@@@@@                               ",
"                                                 **  **                                                  ",
"                                                 **  **                                                  ",
"                                                 **  **                                                  ",
"                                                 **  **                                                  ",
"                                                 **  **                                                  ",
"                                                 **  **                                                  ",
"                                                                                                         ",
"                                                                                                         ",
"                                                                                                         ",
"                                                                                                         ",
"                                                                                                         ",
"                                                                                                         ",
"                                                                                                         ",
"                                                                                                         ",
"                                                                                                         ",
"                                                                                                         ",
"                                                                                                         ",
"                                                                                                         ",
"                                                                                                         ",
"                                                                                                         ",
"                                                                                                         ",
"                                                                                                         "};
