/* XPM */
static char * Bat_Wings_Up_xpm[] = {
"98 64 9 1",
" 	c #FFFFFF",
".	c #CF7373",
"+	c #E8879B",
"@	c #8C8C8C",
"#	c #E4A6AC",
"$	c #F0CED4",
"%	c #FFD438",
"&	c #000000",
"*	c #B8B8BB",
"                                                                                                  ",
"                                                                                                  ",
"                                                                                                  ",
"                                                                                                  ",
"                                                                                                  ",
"                                                                                                  ",
"                                                                                                  ",
"                                                                                                  ",
"                                                                                                  ",
"                                                                                                  ",
"                                                                                                  ",
"                                                                                                  ",
"                                                                                                  ",
"                                                                                                  ",
"                                                                                                  ",
"                                                                                                  ",
"                                                                                                  ",
"  ..                                                                                          ..  ",
" .++....                                                                                  ....++. ",
"  ..++++....                                                                          ....++++..  ",
"   .....++++....                             @@@@@@@@                             ....++++.....   ",
"    .###....++++....                        @@@@@@@@@@                        ....++++....###.    ",
"     ...####....++++....                  @@@@@@@@@@@@@@                  ....++++....####...     ",
"       .#######$....++++...              @@@@@@@@@@@@@@@@              ...++++....$#######.       ",
"        .#######$$$$....+++.            @@@@@@%%%%%%@@@@@@            .+++....$$$$#######.        ",
"        .########$$$$$$$...+.           @@@@%%%%%%%%%%@@@@           .+...$$$$$$$########.        ",
"         .$#$$$$$$$$$$$$$$$.+..        @@@@%%%%%%%%%%%%@@@@        ..+.$$$$$$$$$$$$$$$#$.         ",
"         .$$$$$$$$$$$$$$$$$$.++.       @@@%%%%%%%%%%%%%%@@@       .++.$$$$$$$$$$$$$$$$$$.         ",
"      ...$$$$######$$$$$$$$$..+.      @@@@%%%%%%%%%%%%%%@@@@      .+..$$$$$$$$$######$$$$...      ",
"     .$$$$$$#########$$$$$$$$$...     @@@@%%%%%%%%%%%%%%@@@@     ...$$$$$$$$$#########$$$$$$.     ",
"      .$$.....##$$$$$$$$$$$$$$.++..   @@@@%%%%%%%%%%%%%%@@@@   ..++.$$$$$$$$$$$$$$##.....$$.      ",
"       ..     .#$$$$$$$$##$$$$$..++.  @@@@%%%%%%%%%%%%%%@@@@  .++..$$$$$##$$$$$$$$#.     ..       ",
"             .$$$$$$$####$$$$$$$.+++..@@@@%%%%%%&&%%%%%%@@@@..+++.$$$$$$$####$$$$$$$.             ",
"             .$$$$$$####$$$$$$$$$..++.@@@@%%%%%%&&%%%%%%@@@@.++..$$$$$$$$$####$$$$$$.             ",
"             .$$$####..#$$$$$$$$.  +++.@@@%%%%%%%%%%%%%%@@@.+++  .$$$$$$$$#..####$$$.             ",
"             .$$#.... .#$$$$$$..   .++.@@@@%%%%%%%%%%%%@@@@.++.   ..$$$$$$#. ....#$$.             ",
"              .$.     .#$$$$$.      ... @@@@%%%%%%%%%%@@@@ ...      .$$$$$#.     .$.              ",
"               .       .$$$$$$.         @@@@@@%%%%%%@@@@@@         .$$$$$$.       .               ",
"                        .$$$$$.          @@@@@@@@@@@@@@@@          .$$$$$.                        ",
"                        ..$$$$.           @@@@@@@@@@@@@@           .$$$$..                        ",
"                         .$$$$..            @@@@@@@@@@            ..$$$$.                         ",
"                          ....$$.            @@@@@@@@            .$$....                          ",
"                              ..              **  **              ..                              ",
"                                              **  **                                              ",
"                                              **  **                                              ",
"                                              **  **                                              ",
"                                              **  **                                              ",
"                                              **  **                                              ",
"                                              **  **                                              ",
"                                              **  **                                              ",
"                                                                                                  ",
"                                                                                                  ",
"                                                                                                  ",
"                                                                                                  ",
"                                                                                                  ",
"                                                                                                  ",
"                                                                                                  ",
"                                                                                                  ",
"                                                                                                  ",
"                                                                                                  ",
"                                                                                                  ",
"                                                                                                  ",
"                                                                                                  ",
"                                                                                                  "};
