/* XPM */
static char * Bat_Right_Half_xpm[] = {
"64 64 102 2",
"  	c #FFFFFF",
". 	c #8C8C8C",
"+ 	c #A9A9A9",
"@ 	c #909090",
"# 	c #BDBDBD",
"$ 	c #FFD438",
"% 	c #C8B160",
"& 	c #E1C14D",
"* 	c #B4A56E",
"= 	c #A4A4A4",
"- 	c #DEA0A0",
"; 	c #CF7373",
"> 	c #FAD13B",
", 	c #D48181",
"' 	c #DF808E",
") 	c #E8879B",
"! 	c #DD9598",
"~ 	c #ECC8C8",
"{ 	c #D1D1D1",
"] 	c #F9EFEF",
"^ 	c #E58496",
"/ 	c #D7797F",
"( 	c #F6E7E7",
"_ 	c #DF9B9E",
": 	c #D17577",
"< 	c #E5B0B4",
"[ 	c #F0CED4",
"} 	c #EBBFC5",
"| 	c #E4A6AC",
"1 	c #DE989C",
"2 	c #D17979",
"3 	c #D17A7A",
"4 	c #DE7F8B",
"5 	c #ECC4C9",
"6 	c #E9B6BC",
"7 	c #E2A1A6",
"8 	c #DB9898",
"9 	c #D99393",
"0 	c #E68598",
"a 	c #D98289",
"b 	c #D98F91",
"c 	c #151204",
"d 	c #CF7474",
"e 	c #E28291",
"f 	c #D07475",
"g 	c #E6B4B9",
"h 	c #EEC8CE",
"i 	c #DD959A",
"j 	c #B47C7C",
"k 	c #E7869A",
"l 	c #DA7B84",
"m 	c #E8B4BA",
"n 	c #EFCCD2",
"o 	c #E0A5A6",
"p 	c #9A8686",
"q 	c #D4777C",
"r 	c #E1A5A8",
"s 	c #ECC2C8",
"t 	c #E4A8AE",
"u 	c #EBBDC3",
"v 	c #EDC4CA",
"w 	c #F4DEDE",
"x 	c #E4B1B1",
"y 	c #E7B2B8",
"z 	c #E9B8BE",
"A 	c #EDC6CC",
"B 	c #E5ABB1",
"C 	c #E5B1B5",
"D 	c #E0CCCC",
"E 	c #E1A8A8",
"F 	c #DC999B",
"G 	c #EFCBD1",
"H 	c #E6AFB5",
"I 	c #D37F80",
"J 	c #DD9B9C",
"K 	c #EFD0D0",
"L 	c #FDFBFB",
"M 	c #F8EBEB",
"N 	c #EDC7CC",
"O 	c #ECC5CA",
"P 	c #E6B7B7",
"Q 	c #DA8E91",
"R 	c #D47F80",
"S 	c #D27D7D",
"T 	c #D38080",
"U 	c #E4B3B3",
"V 	c #F3DDDD",
"W 	c #CF7374",
"X 	c #E8B6BC",
"Y 	c #FEFCFC",
"Z 	c #D7878A",
"` 	c #E7B4B9",
" .	c #EAC4C4",
"..	c #EFEFEF",
"+.	c #E6B4B8",
"@.	c #EFD1D1",
"#.	c #EBC5C5",
"$.	c #E3AAAE",
"%.	c #B8B8BB",
"&.	c #DFA1A2",
"*.	c #E0A4A5",
"=.	c #E1A9A9",
"                                                                                                                                ",
"                                                                                                                                ",
"                                                                                                                                ",
"                                                                                                                                ",
"                                                                                                                                ",
"                                                                                                                                ",
"                                                                                                                                ",
"                                                                                                                                ",
"                                                                                                                                ",
"                                                                                                                                ",
"                                                                                                                                ",
"                                                                                                                                ",
"                                                                                                                                ",
"                                                                                                                                ",
"                                                                                                                                ",
"                                                                                                                                ",
"                                                                                                                                ",
"                                                                                                                                ",
". .                                                                                                                             ",
". . +                                                                                                                           ",
". . . @                                                                                                                         ",
". . . . #                                                                                                                       ",
"$ % . . .                                                                                                                       ",
"$ $ & . .                                                                                                                       ",
"$ $ $ * . =                 - ; ; ; ; ; ; ; ; ; ; ; ; ; ; ;                                                                     ",
"$ $ $ > . =               , ' ) ) ) ) ) ) ) ) ) ) ) ) ) ) ) ! ~                                                                 ",
"$ $ $ > . . {         ] ; ^ / ; ; ; ; ; ; ; ; ; ; ; ; ; ; ; (                                                                   ",
"$ $ $ > . . {         _ ) : < [ [ [ [ [ [ } | | | | | 1 2                                                                       ",
"$ $ $ > . . {       3 4 ; 5 [ [ [ [ [ [ 6 | | | | 7 ; 8                                                                         ",
"$ $ $ > . . {   9 ; 0 a [ [ [ [ [ [ [ [ [ } | | | b                                                                             ",
"c $ $ > . . { d e ) f g [ [ [ [ [ [ [ [ [ [ h | i                                                                               ",
"c $ $ > . . j k ) l h [ [ [ [ [ [ m | | | n [ [ o                                                                               ",
"$ $ $ > . p 4 ) q r [ [ [ s t [ [ [ u | | | v [ o                                                                               ",
"$ $ $ * . p 4 4 w x h [ [ [ y z [ [ [ A | | B [ C                                                                               ",
"$ $ & . . D ; E     F [ [ [ G | H [ [ A | d I [ [ J                                                                             ",
"$ % . . .           K g [ [ G | | } [ [ F L M ; N O P                                                                           ",
". . . . #           K g [ [ y Q R | [ [ F L     S T                                                                             ",
". . . @             F [ [ [ H U V W X [ F L                                                                                     ",
". . +               F [ [ [ F     Y Z `  .                                                                                      ",
". . ..            ; h [ [ +.@.      #.$. .                                                                                      ",
"  %.            &.[ [ [ [ *.          =.                                                                                        ",
"  %.              ; ; ; ;                                                                                                       ",
"  %.                                                                                                                            ",
"  %.                                                                                                                            ",
"  %.                                                                                                                            ",
"  %.                                                                                                                            ",
"  %.                                                                                                                            ",
"  %.                                                                                                                            ",
"                                                                                                                                ",
"                                                                                                                                ",
"                                                                                                                                ",
"                                                                                                                                ",
"                                                                                                                                ",
"                                                                                                                                ",
"                                                                                                                                ",
"                                                                                                                                ",
"                                                                                                                                ",
"                                                                                                                                ",
"                                                                                                                                ",
"                                                                                                                                ",
"                                                                                                                                ",
"                                                                                                                                ",
"                                                                                                                                ",
"                                                                                                                                "};
