/* XPM */
static char * Bat_Wings_Up_Bottom_Half_xpm[] = {
"64 64 67 1",
" 	c #FFFFFF",
".	c #E6B7B7",
"+	c #EBC1C6",
"@	c #F0CED4",
"#	c #ECC2C8",
"$	c #E4A6AC",
"%	c #ECC0C6",
"&	c #ECC4CA",
"*	c #DA7B84",
"=	c #E8879B",
"-	c #DB7D87",
";	c #C27777",
">	c #8C8C8C",
",	c #CDB55B",
"'	c #FFD438",
")	c #584913",
"!	c #CDB55C",
"~	c #EBC0C6",
"{	c #E4A8AE",
"]	c #E7B3B9",
"^	c #E1A5A8",
"/	c #D27578",
"(	c #C67A7E",
"_	c #E5AAB0",
":	c #DE979B",
"<	c #CF7373",
"[	c #E7B2B7",
"}	c #E4B1B1",
"|	c #FBEDF0",
"1	c #E38393",
"2	c #AB8080",
"3	c #E9B7BD",
"4	c #D17878",
"5	c #DC9A9A",
"6	c #E0A6A6",
"7	c #E2A8AC",
"8	c #D38181",
"9	c #F8EAEA",
"0	c #DB7C86",
"a	c #F5CE3E",
"b	c #F8EBEB",
"c	c #DC999A",
"d	c #DD9B9E",
"e	c #FAF0F0",
"f	c #EDC8CE",
"g	c #E2ACAC",
"h	c #E7BABA",
"i	c #E8BDBD",
"j	c #9A9A9A",
"k	c #AA9F75",
"l	c #F5E2E2",
"m	c #E9C0C0",
"n	c #DA9395",
"o	c #F3DCDC",
"p	c #FAD13B",
"q	c #EFD1D1",
"r	c #E5B0B4",
"s	c #E5E5E5",
"t	c #CF7474",
"u	c #BDBDBD",
"v	c #DFA2A2",
"w	c #E0E0E0",
"x	c #FEFCFC",
"y	c #DC989A",
"z	c #B8B8B8",
"A	c #EBC5C5",
"B	c #BABABD",
"                                                                ",
"                                                                ",
"                                                                ",
"                                                                ",
"                                                                ",
"                                                                ",
"                                                                ",
"                                                                ",
"                                                                ",
"                                                                ",
"                                                                ",
"                                                                ",
"                                                                ",
"                                                                ",
"                                                                ",
"                                                                ",
"                                                                ",
"                                                                ",
"                                                                ",
"                                                                ",
"        .+@@@#$$%@@@&*=-;>>,'''))'''!>>;-=*&@@@%$$#@@@~.        ",
"        .+@@@{$]@@@@@^/=(>>,'''))'''!>>(=/^@@@@@]${@@@~.        ",
"        .+@_$:<[@@@@&}|=12>,''''''''!>21=|}&@@@@[<:$_@~.        ",
"        .+34<56[@@@78 9012>>a''''''a>>210b 87@@@[65<43~.        ",
"         cde  6[@@fg   h<ij>k''''''k>ji<h   gf@@[6  edc         ",
"         lm    n@@@7o     j>>>p''p>>>j     o7@@@n    ml         ",
"               qr@@7o     s>>>>>>>>>>s     o7@@rq               ",
"               qt@@7o      u>>>>>>>>u      o7@@tq               ",
"                v@@78       w>>>>>>w       87@@v                ",
"                x<<y&}       z>>>>z       }&y<<x                ",
"                   A8         B  B         8A                   ",
"                              B  B                              ",
"                              B  B                              ",
"                              B  B                              ",
"                              B  B                              ",
"                              B  B                              ",
"                              B  B                              ",
"                              B  B                              ",
"                                                                ",
"                                                                ",
"                                                                ",
"                                                                ",
"                                                                ",
"                                                                ",
"                                                                ",
"                                                                ",
"                                                                ",
"                                                                ",
"                                                                ",
"                                                                ",
"                                                                ",
"                                                                ",
"                                                                ",
"                                                                ",
"                                                                ",
"                                                                ",
"                                                                ",
"                                                                ",
"                                                                ",
"                                                                ",
"                                                                ",
"                                                                ",
"                                                                ",
"                                                                "};
