/* XPM */
static char * Bat_Wings_Up_Right_Half_xpm[] = {
"64 64 125 2",
"  	c None",
". 	c #E1A9A9",
"+ 	c #DD9D9D",
"@ 	c #F4DFDF",
"# 	c #CF7373",
"$ 	c #DE7F8B",
"% 	c #E0808E",
"& 	c #EECECE",
"* 	c #D68989",
"= 	c #D4777B",
"- 	c #E8879B",
"; 	c #D87A82",
"> 	c #8C8C8C",
", 	c #B8B8B8",
"' 	c #E9C0C0",
") 	c #E38394",
"! 	c #E28292",
"~ 	c #FDF9F9",
"{ 	c #E0E0E0",
"] 	c #FCF6F6",
"^ 	c #DA7B84",
"/ 	c #D37679",
"( 	c #D37E7F",
"_ 	c #E4A6AC",
": 	c #DE989C",
"< 	c #ECC8C8",
"[ 	c #BDBDBD",
"} 	c #DEA0A0",
"| 	c #D07475",
"1 	c #DC7E89",
"2 	c #E09DA2",
"3 	c #DF9A9F",
"4 	c #DB9898",
"5 	c #E5E5E5",
"6 	c #E0A6A6",
"7 	c #DF808D",
"8 	c #E68598",
"9 	c #DD9B9E",
"0 	c #E6AEB4",
"a 	c #EAC3C3",
"b 	c #FFD438",
"c 	c #FAD13B",
"d 	c #9A9A9A",
"e 	c #F1D7D7",
"f 	c #DE7F8C",
"g 	c #D77980",
"h 	c #D17878",
"i 	c #F0CED4",
"j 	c #EABCC2",
"k 	c #DC9899",
"l 	c #AA9F75",
"m 	c #D98186",
"n 	c #D87A81",
"o 	c #E5B0B4",
"p 	c #EEC9CF",
"q 	c #F5CE3E",
"r 	c #C1C1C1",
"s 	c #F3DCDC",
"t 	c #E3ACB0",
"u 	c #E8B3B9",
"v 	c #DE9DA0",
"w 	c #F9EDED",
"x 	c #CDB55C",
"y 	c #DA868B",
"z 	c #D98E91",
"A 	c #E9E9E9",
"B 	c #D97B83",
"C 	c #D88C8E",
"D 	c #EBBDC3",
"E 	c #E9B9BF",
"F 	c #D37E7E",
"G 	c #FBF3F3",
"H 	c #E4B1B1",
"I 	c #E2A8AC",
"J 	c #E7B1B7",
"K 	c #EEC7CD",
"L 	c #DE9FA0",
"M 	c #D58686",
"N 	c #E18291",
"O 	c #E09EA3",
"P 	c #EBC2C8",
"Q 	c #DD999C",
"R 	c #E6B7B7",
"S 	c #E48495",
"T 	c #D7898A",
"U 	c #ECC0C6",
"V 	c #DA9192",
"W 	c #D48484",
"X 	c #584913",
"Y 	c #C27777",
"Z 	c #DB7D87",
"` 	c #ECC4CA",
" .	c #ECC2C8",
"..	c #EBC0C6",
"+.	c #C67A7E",
"@.	c #D27578",
"#.	c #E1A5A8",
"$.	c #E7B3B9",
"%.	c #E4A8AE",
"&.	c #AB8080",
"*.	c #E38393",
"=.	c #FBEDF0",
"-.	c #E7B2B7",
";.	c #DE979B",
">.	c #E5AAB0",
",.	c #DB7C86",
"'.	c #F8EBEB",
").	c #D38181",
"!.	c #DC9A9A",
"~.	c #E9B7BD",
"{.	c #E8BDBD",
"].	c #E7BABA",
"^.	c #E2ACAC",
"/.	c #EDC8CE",
"(.	c #FAF0F0",
"_.	c #DC999A",
":.	c #DA9395",
"<.	c #F5E2E2",
"[.	c #EFD1D1",
"}.	c #CF7474",
"|.	c #DFA2A2",
"1.	c #DC989A",
"2.	c #FEFCFC",
"3.	c #BABABD",
"4.	c #EBC5C5",
"                                                                                                                                ",
"                                                                                                                                ",
"                                                                                                                                ",
"                                                                                                                                ",
"                                                                                                                                ",
"                                                                                                                                ",
"                                                                                                                                ",
"                                                                                                                                ",
"                                                                                                                                ",
"                                                                                                                                ",
"                                                                                                                                ",
"                                                                                                                                ",
"                                                                                                                                ",
"                                                                                                                                ",
"                                                                                                                                ",
"                                                                                                                                ",
"                                                                                                                                ",
"                                                          . +                                                                   ",
"                                                    @ # # $ % &                                                                 ",
"                                                * # = - - ; +                                                                   ",
"> > ,                                     ' # # ) - ! # # # ~                                                                   ",
"> > > {                             ] # # ^ - - / # ( _ : <                                                                     ",
"> > > > [                       } # | - - 1 # # 2 _ 3 # 4                                                                       ",
"> > > > > 5                 6 # 7 - 8 # # 9 0 _ _ _ 3 a                                                                         ",
"b c > > > d               e f - g # h i i j _ _ _ _ k                                                                           ",
"b b b l > d               m n # o i i i p _ _ _ _ _ k                                                                           ",
"b b b q > > r         s # 7 t i i i i i i i i i u v w                                                                           ",
"b b b b x > r         y - z i i i i i i i i i i i v w                                                                           ",
"b b b b x > > A       y B C i i i i i D _ _ _ E i i F # G                                                                       ",
"b b b b x > > A     H # I i i i i i J _ _ _ _ _ K i i i L                                                                       ",
"b b b b x > > A   M 1 N I i i i i i i i i j O # # # P Q G                                                                       ",
"b b b b x > > A R S ^ T i i i _ U i i i i j V       W a                                                                         ",
"X b b b x > > Y Z - ^ ` i i i U _ _  .i i i ..R                                                                                 ",
"X b b b x > > +.- @.#.i i i i i $._ %.i i i ..R                                                                                 ",
"b b b b x > &.*.- =.H ` i i i i -.# ;._ >.i ..R                                                                                 ",
"b b b q > > &.*.,.'.  ).I i i i -.6 !.# h ~...R                                                                                 ",
"b b b l > d {.# ].      ^./.i i -.6     (.9 _.                                                                                  ",
"b c > > > d           s I i i i :.        ' <.                                                                                  ",
"> > > > > 5           s I i i o [.                                                                                              ",
"> > > > [             s I i i }.[.                                                                                              ",
"> > > {               ).I i i |.                                                                                                ",
"> > ,               H ` 1.# # 2.                                                                                                ",
"  3.                  ).4.                                                                                                      ",
"  3.                                                                                                                            ",
"  3.                                                                                                                            ",
"  3.                                                                                                                            ",
"  3.                                                                                                                            ",
"  3.                                                                                                                            ",
"  3.                                                                                                                            ",
"  3.                                                                                                                            ",
"                                                                                                                                ",
"                                                                                                                                ",
"                                                                                                                                ",
"                                                                                                                                ",
"                                                                                                                                ",
"                                                                                                                                ",
"                                                                                                                                ",
"                                                                                                                                ",
"                                                                                                                                ",
"                                                                                                                                ",
"                                                                                                                                ",
"                                                                                                                                ",
"                                                                                                                                ",
"                                                                                                                                "};
