/* XPM */
static char * Bat_Wings_Up64_xpm[] = {
"64 64 132 2",
"  	c None",
". 	c #DD9D9D",
"+ 	c #E1A9A9",
"@ 	c #EECECE",
"# 	c #E0808E",
"$ 	c #DE7F8B",
"% 	c #CF7373",
"& 	c #F4DFDF",
"* 	c #D87A82",
"= 	c #E8879B",
"- 	c #D4777B",
"; 	c #D68989",
"> 	c #FDF9F9",
", 	c #E28292",
"' 	c #E38394",
") 	c #E9C0C0",
"! 	c #B8B8B8",
"~ 	c #8C8C8C",
"{ 	c #ECC8C8",
"] 	c #DE989C",
"^ 	c #E4A6AC",
"/ 	c #D37E7F",
"( 	c #D37679",
"_ 	c #DA7B84",
": 	c #FCF6F6",
"< 	c #E0E0E0",
"[ 	c #DB9898",
"} 	c #DF9A9F",
"| 	c #E09DA2",
"1 	c #DC7E89",
"2 	c #D07475",
"3 	c #DEA0A0",
"4 	c #BDBDBD",
"5 	c #EAC2C2",
"6 	c #E6AEB4",
"7 	c #DD9B9E",
"8 	c #E68598",
"9 	c #DF808D",
"0 	c #E0A6A6",
"a 	c #E5E5E5",
"b 	c #EAC3C3",
"c 	c #DC9899",
"d 	c #EABCC2",
"e 	c #F0CED4",
"f 	c #D17878",
"g 	c #D77980",
"h 	c #DE7F8C",
"i 	c #F1D7D7",
"j 	c #9A9A9A",
"k 	c #FAD13B",
"l 	c #FFD438",
"m 	c #EEC9CF",
"n 	c #E5B0B4",
"o 	c #D87A81",
"p 	c #D98186",
"q 	c #AA9F75",
"r 	c #F9EDED",
"s 	c #DE9DA0",
"t 	c #E8B3B9",
"u 	c #E3ACB0",
"v 	c #F3DCDC",
"w 	c #C1C1C1",
"x 	c #F5CE3E",
"y 	c #D98E91",
"z 	c #DA868B",
"A 	c #CDB55B",
"B 	c #CDB55C",
"C 	c #FBF3F3",
"D 	c #D37E7E",
"E 	c #E9B9BF",
"F 	c #EBBDC3",
"G 	c #D88C8E",
"H 	c #D97B83",
"I 	c #E9E9E9",
"J 	c #DE9FA0",
"K 	c #EEC7CD",
"L 	c #E7B1B7",
"M 	c #E2A8AC",
"N 	c #E4B1B1",
"O 	c #DD9A9C",
"P 	c #EBC2C8",
"Q 	c #E19EA3",
"R 	c #E18291",
"S 	c #D58787",
"T 	c #D58686",
"U 	c #E09EA3",
"V 	c #DD999C",
"W 	c #D48484",
"X 	c #DA9192",
"Y 	c #ECC0C6",
"Z 	c #D7898A",
"` 	c #E48495",
" .	c #E6B7B7",
"..	c #EBC1C6",
"+.	c #ECC2C8",
"@.	c #ECC4CA",
"#.	c #DB7D87",
"$.	c #C27777",
"%.	c #584913",
"&.	c #EBC0C6",
"*.	c #E4A8AE",
"=.	c #E7B3B9",
"-.	c #E1A5A8",
";.	c #D27578",
">.	c #C67A7E",
",.	c #E5AAB0",
"'.	c #DE979B",
").	c #E7B2B7",
"!.	c #FBEDF0",
"~.	c #E38393",
"{.	c #AB8080",
"].	c #E9B7BD",
"^.	c #DC9A9A",
"/.	c #D38181",
"(.	c #F8EAEA",
"_.	c #DB7C86",
":.	c #F8EBEB",
"<.	c #DC999A",
"[.	c #FAF0F0",
"}.	c #EDC8CE",
"|.	c #E2ACAC",
"1.	c #E7BABA",
"2.	c #E8BDBD",
"3.	c #F5E2E2",
"4.	c #DA9395",
"5.	c #EFD1D1",
"6.	c #CF7474",
"7.	c #DFA2A2",
"8.	c #FEFCFC",
"9.	c #DC989A",
"0.	c #EBC5C5",
"a.	c #BABABD",
"                                                                                                                                ",
"                                                                                                                                ",
"                                                                                                                                ",
"                                                                                                                                ",
"                                                                                                                                ",
"                                                                                                                                ",
"                                                                                                                                ",
"                                                                                                                                ",
"                                                                                                                                ",
"                                                                                                                                ",
"                                                                                                                                ",
"                                                                                                                                ",
"                                                                                                                                ",
"                                                                                                                                ",
"                                                                                                                                ",
"                                                                                                                                ",
"                                                                                                                                ",
"  . +                                                                                                                     + .   ",
"@ # $ % % &                                                                                                         & % % $ # @ ",
"  . * = = - % ;                                                                                                 ; % - = = * .   ",
"  > % % % , = ' % % )                                     ! ~ ~ ~ ~ !                                     ) % % ' = , % % % >   ",
"    { ] ^ / % ( = = _ % % :                             < ~ ~ ~ ~ ~ ~ <                             : % % _ = = ( % / ^ ] {     ",
"      [ % } ^ | % % 1 = = 2 % 3                       4 ~ ~ ~ ~ ~ ~ ~ ~ 4                       3 % 2 = = 1 % % | ^ } % [       ",
"        5 } ^ ^ ^ 6 7 % % 8 = 9 % 0                 a ~ ~ ~ ~ ~ ~ ~ ~ ~ ~ a                 0 % 9 = 8 % % 7 6 ^ ^ ^ } b         ",
"          c ^ ^ ^ ^ d e e f % g = h i               j ~ ~ ~ k l l k ~ ~ ~ j               i h = g % f e e d ^ ^ ^ ^ c           ",
"          c ^ ^ ^ ^ ^ m e e e n % o p               j ~ q l l l l l l q ~ j               p o % n e e e m ^ ^ ^ ^ ^ c           ",
"          r s t e e e e e e e e e u 9 % v         w ~ ~ x l l l l l l x ~ ~ w         v % 9 u e e e e e e e e e t s r           ",
"          r s e e e e e e e e e e e y = z         w ~ A l l l l l l l l B ~ w         z = y e e e e e e e e e e e s r           ",
"      C % D e e E ^ ^ ^ F e e e e e G H z       I ~ ~ A l l l l l l l l B ~ ~ I       z H G e e e e e F ^ ^ ^ E e e D % C       ",
"      J e e e K ^ ^ ^ ^ ^ L e e e e e M % N     I ~ ~ A l l l l l l l l B ~ ~ I     N % M e e e e e L ^ ^ ^ ^ ^ K e e e J       ",
"      C O P % % % Q d e e e e e e e e M R 1 S   I ~ ~ A l l l l l l l l B ~ ~ I   T 1 R M e e e e e e e e d U % % % P V C       ",
"        5 W       X d e e e e Y ^ e e e Z _ `  .I ~ ~ A l l l l l l l l B ~ ~ I  .` _ Z e e e ^ Y e e e e d X       W b         ",
"                 ...e e e +.^ ^ Y e e e @._ = #.$.~ ~ A l l l %.%.l l l B ~ ~ $.#.= _ @.e e e Y ^ ^ +.e e e &. .                ",
"                 ...e e e *.^ =.e e e e e -.;.= >.~ ~ A l l l %.%.l l l B ~ ~ >.= ;.-.e e e e e =.^ *.e e e &. .                ",
"                 ...e ,.^ '.% ).e e e e @.N !.= ~.{.~ A l l l l l l l l B ~ {.~.= !.N @.e e e e ).% '.^ ,.e &. .                ",
"                 ...].f % ^.0 ).e e e M /.  (._.~.{.~ ~ x l l l l l l x ~ ~ {.~._.:.  /.M e e e ).0 ^.% f ].&. .                ",
"                  <.7 [.    0 ).e e }.|.      1.% 2.j ~ q l l l l l l q ~ j 2.% 1.      |.}.e e ).0     [.7 <.                  ",
"                  3.)         4.e e e M v           j ~ ~ ~ k l l k ~ ~ ~ j           v M e e e 4.        ) 3.                  ",
"                              5.n e e M v           a ~ ~ ~ ~ ~ ~ ~ ~ ~ ~ a           v M e e n 5.                              ",
"                              5.6.e e M v             4 ~ ~ ~ ~ ~ ~ ~ ~ 4             v M e e 6.5.                              ",
"                                7.e e M /.              < ~ ~ ~ ~ ~ ~ <               /.M e e 7.                                ",
"                                8.% % 9.@.N               ! ~ ~ ~ ~ !               N @.9.% % 8.                                ",
"                                      0./.                  a.    a.                  /.0.                                      ",
"                                                            a.    a.                                                            ",
"                                                            a.    a.                                                            ",
"                                                            a.    a.                                                            ",
"                                                            a.    a.                                                            ",
"                                                            a.    a.                                                            ",
"                                                            a.    a.                                                            ",
"                                                            a.    a.                                                            ",
"                                                                                                                                ",
"                                                                                                                                ",
"                                                                                                                                ",
"                                                                                                                                ",
"                                                                                                                                ",
"                                                                                                                                ",
"                                                                                                                                ",
"                                                                                                                                ",
"                                                                                                                                ",
"                                                                                                                                ",
"                                                                                                                                ",
"                                                                                                                                ",
"                                                                                                                                ",
"                                                                                                                                "};
