/* XPM */
static char * Bat_64_xpm[] = {
"64 64 158 2",
"  	c None",
". 	c #A9A9A9",
"+ 	c #8C8C8C",
"@ 	c #D6D6D6",
"# 	c #BDBDBD",
"$ 	c #909090",
"% 	c #EAEAEA",
"& 	c #A4A4A4",
"* 	c #9B9580",
"= 	c #FFD438",
"- 	c #C8B160",
"; 	c #B4A56E",
"> 	c #E1C14D",
", 	c #D99191",
"' 	c #CF7373",
") 	c #FBF5F5",
"! 	c #D0D0D0",
"~ 	c #FAD13B",
"{ 	c #DEA0A0",
"] 	c #ECC8C8",
"^ 	c #E28292",
"/ 	c #E8879B",
"( 	c #D07475",
"_ 	c #F1D7D7",
": 	c #CDB55C",
"< 	c #D48181",
"[ 	c #DF808E",
"} 	c #DD9598",
"| 	c #E68598",
"1 	c #D6787E",
"2 	c #E6B8B8",
"3 	c #D1D1D1",
"4 	c #F9EFEF",
"5 	c #E58496",
"6 	c #D7797F",
"7 	c #F6E7E7",
"8 	c #E4B0B0",
"9 	c #D68486",
"0 	c #E4A6AC",
"a 	c #E6AFB5",
"b 	c #F0CED4",
"c 	c #D17979",
"d 	c #E0818F",
"e 	c #DB7D87",
"f 	c #DF9B9E",
"g 	c #D17577",
"h 	c #E5B0B4",
"i 	c #EBBFC5",
"j 	c #DE989C",
"k 	c #EECFCF",
"l 	c #D98D90",
"m 	c #E4A7AD",
"n 	c #D88C8E",
"o 	c #DB7C86",
"p 	c #EFD0D0",
"q 	c #D17A7A",
"r 	c #DE7F8B",
"s 	c #ECC4C9",
"t 	c #E9B6BC",
"u 	c #E2A1A6",
"v 	c #DB9898",
"w 	c #E6B7B7",
"x 	c #DFA0A3",
"y 	c #D77980",
"z 	c #F7E8E8",
"A 	c #D99393",
"B 	c #D98289",
"C 	c #D98F91",
"D 	c #E9B8BE",
"E 	c #D27D7E",
"F 	c #DF808D",
"G 	c #D37679",
"H 	c #151204",
"I 	c #CF7474",
"J 	c #E28291",
"K 	c #E6B4B9",
"L 	c #EEC8CE",
"M 	c #DD959A",
"N 	c #F0D5D5",
"O 	c #E5B1B5",
"P 	c #E8B4BA",
"Q 	c #EFCDD3",
"R 	c #DB9295",
"S 	c #D77A82",
"T 	c #B47C7C",
"U 	c #E7869A",
"V 	c #DA7B84",
"W 	c #EFCCD2",
"X 	c #E0A5A6",
"Y 	c #E5ABB1",
"Z 	c #E6AEB4",
"` 	c #E7B2B8",
" .	c #E38394",
"..	c #B47D7D",
"+.	c #9A8686",
"@.	c #D4777C",
"#.	c #E1A5A8",
"$.	c #ECC2C8",
"%.	c #E4A8AE",
"&.	c #EBBDC3",
"*.	c #EDC4CA",
"=.	c #DD9B9C",
"-.	c #EABBC1",
";.	c #EEC7CD",
">.	c #EFCBD1",
",.	c #DC999B",
"'.	c #DC8E92",
").	c #F4DEDE",
"!.	c #E4B1B1",
"~.	c #EDC6CC",
"{.	c #ECC5CA",
"].	c #E0A3A6",
"^.	c #DC9397",
"/.	c #E2ABAB",
"(.	c #E0CCCC",
"_.	c #E1A8A8",
":.	c #D37F80",
"<.	c #DFA1A4",
"[.	c #E5B4B4",
"}.	c #E0A4A4",
"|.	c #FDFBFB",
"1.	c #F8EBEB",
"2.	c #EDC7CC",
"3.	c #EFD3D3",
"4.	c #E8B6BC",
"5.	c #DC9396",
"6.	c #D27A7B",
"7.	c #DA8E91",
"8.	c #D47F80",
"9.	c #D27D7D",
"0.	c #D38080",
"a.	c #EDC5CB",
"b.	c #D7878A",
"c.	c #E0A6A6",
"d.	c #F7E9E9",
"e.	c #E4B3B3",
"f.	c #F3DDDD",
"g.	c #CF7374",
"h.	c #E2A3A8",
"i.	c #EBC5C5",
"j.	c #EDC7CD",
"k.	c #FEFCFC",
"l.	c #E7B4B9",
"m.	c #EAC4C4",
"n.	c #DEA0A1",
"o.	c #D99193",
"p.	c #EFEFEF",
"q.	c #E6B4B8",
"r.	c #EFD1D1",
"s.	c #E3AAAE",
"t.	c #F5E4E4",
"u.	c #DFA1A2",
"v.	c #F5F5F5",
"w.	c #B8B8BB",
"x.	c #F8F8F9",
"y.	c #E0A4A5",
"z.	c #E1A9A9",
"A.	c #DC9A9A",
"                                                                                                                                ",
"                                                                                                                                ",
"                                                                                                                                ",
"                                                                                                                                ",
"                                                                                                                                ",
"                                                                                                                                ",
"                                                                                                                                ",
"                                                                                                                                ",
"                                                                                                                                ",
"                                                                                                                                ",
"                                                                                                                                ",
"                                                                                                                                ",
"                                                                                                                                ",
"                                                                                                                                ",
"                                                                                                                                ",
"                                                                                                                                ",
"                                                                                                                                ",
"                                                                                                                                ",
"                                                          . + + + +                                                             ",
"                                                        @ + + + + + .                                                           ",
"                                                      # + + + + + + + $                                                         ",
"                                                    % + + + + + + + + + #                                                       ",
"                                                    & + + * = = = - + + +                                                       ",
"                                                    & + ; = = = = = > + +                                                       ",
"  , ' ' ' ' ' ' ' ' ' ' ' ' ' ' ' )               ! + + ~ = = = = = = ; + &                 { ' ' ' ' ' ' ' ' ' ' ' ' ' ' '     ",
"] ^ / / / / / / / / / / / / / / / ( _             ! + : = = = = = = = ~ + &               < [ / / / / / / / / / / / / / / / }   ",
"  , ' ' ' ' ' ' ' ' ' ' ' ' ' ' ' | 1 2         3 + + : = = = = = = = ~ + + 3         4 ' 5 6 ' ' ' ' ' ' ' ' ' ' ' ' ' ' ' 7   ",
"    8 9 0 0 0 0 0 a b b b b b b b c d e 4       3 + + : = = = = = = = ~ + + 3         f / g h b b b b b b i 0 0 0 0 0 j c       ",
"      k ' l 0 0 0 0 m b b b b b b b n o g p     3 + + : = = = = = = = ~ + + 3       q r ' s b b b b b b t 0 0 0 0 u ' v         ",
"          w u 0 0 a b b b b b b b b b x 5 y ' z 3 + + : = = = = = = = ~ + + 3   A ' | B b b b b b b b b b i 0 0 0 C             ",
"            C 0 D b b b b b b b b b b b E F / G 3 + + : = = = H H = = ~ + + 3 I J / ( K b b b b b b b b b b L 0 M               ",
"            N O b b P 0 0 0 Q b b b b b b R / / S + + : = = = H H = = ~ + + T U / V L b b b b b b P 0 0 0 W b b X               ",
"            N O b Y 0 0 Z b b b D ` b b b L '  .U ..+ : = = = = = = = ~ + +.r / @.#.b b b $.%.b b b &.0 0 0 *.b X               ",
"            =.b -.0 0 t b b b ;.0 >.b b b ,.  '.U ..+ + ~ = = = = = = ; + +.r r ).!.L b b b ` D b b b ~.0 0 Y b O               ",
"          w {.b ].' ^.t b b i 0 -.b b b K p   ).' /.& + ; = = = = = > + + (.' _.    ,.b b b >.0 a b b ~.0 I :.b b =.            ",
"        w <.b C [.  _.b b b 0 0 -.b b b }.          & + + * = = = - + + +           p K b b >.0 0 i b b ,.|.1.' 2.{.w           ",
"          w ' 3.    _.b b 4.5.6.0 >.b b }.            + + + + + + + + + #           p K b b ` 7.8.0 b b ,.|.    9.0.            ",
"                    _.b a.b.c.d.7.>.b b K p           # + + + + + + + $             ,.b b b a e.f.g.4.b ,.|.                    ",
"                    |.,.h.i.    e.j.b b K p             @ + + + + + .               ,.b b b ,.    k.b.l.m.                      ",
"                    |.,.n.        ,.b b b o.!.            . + + + + p.            ' L b b q.r.      i.s.m.                      ",
"                      m.t.        r.q.b b b #.u.            w.    w.            u.b b b b y.          z.                        ",
"                                    A.' ' ' !.              w.    w.              ' ' ' '                                       ",
"                                                            w.    w.                                                            ",
"                                                            w.    w.                                                            ",
"                                                            w.    w.                                                            ",
"                                                            w.    w.                                                            ",
"                                                            w.    w.                                                            ",
"                                                            w.    w.                                                            ",
"                                                                                                                                ",
"                                                                                                                                ",
"                                                                                                                                ",
"                                                                                                                                ",
"                                                                                                                                ",
"                                                                                                                                ",
"                                                                                                                                ",
"                                                                                                                                ",
"                                                                                                                                ",
"                                                                                                                                ",
"                                                                                                                                ",
"                                                                                                                                ",
"                                                                                                                                ",
"                                                                                                                                ",
"                                                                                                                                ",
"                                                                                                                                "};
