/* XPM */
static char * Bat_Wings_Up_Left_Half_xpm[] = {
"64 64 125 2",
"  	c #FFFFFF",
". 	c #DD9D9D",
"+ 	c #E1A9A9",
"@ 	c #EECECE",
"# 	c #E0808E",
"$ 	c #DE7F8B",
"% 	c #CF7373",
"& 	c #F4DFDF",
"* 	c #D87A82",
"= 	c #E8879B",
"- 	c #D4777B",
"; 	c #D68989",
"> 	c #FDF9F9",
", 	c #E28292",
"' 	c #E38394",
") 	c #E9C0C0",
"! 	c #B8B8B8",
"~ 	c #8C8C8C",
"{ 	c #ECC8C8",
"] 	c #DE989C",
"^ 	c #E4A6AC",
"/ 	c #D37E7F",
"( 	c #D37679",
"_ 	c #DA7B84",
": 	c #FCF6F6",
"< 	c #E0E0E0",
"[ 	c #DB9898",
"} 	c #DF9A9F",
"| 	c #E09DA2",
"1 	c #DC7E89",
"2 	c #D07475",
"3 	c #DEA0A0",
"4 	c #BDBDBD",
"5 	c #EAC2C2",
"6 	c #E6AEB4",
"7 	c #DD9B9E",
"8 	c #E68598",
"9 	c #DF808D",
"0 	c #E0A6A6",
"a 	c #E5E5E5",
"b 	c #DC9899",
"c 	c #EABCC2",
"d 	c #F0CED4",
"e 	c #D17878",
"f 	c #D77980",
"g 	c #DE7F8C",
"h 	c #F1D7D7",
"i 	c #9A9A9A",
"j 	c #FAD13B",
"k 	c #FFD438",
"l 	c #EEC9CF",
"m 	c #E5B0B4",
"n 	c #D87A81",
"o 	c #D98186",
"p 	c #AA9F75",
"q 	c #F9EDED",
"r 	c #DE9DA0",
"s 	c #E8B3B9",
"t 	c #E3ACB0",
"u 	c #F3DCDC",
"v 	c #C1C1C1",
"w 	c #F5CE3E",
"x 	c #D98E91",
"y 	c #DA868B",
"z 	c #CDB55B",
"A 	c #FBF3F3",
"B 	c #D37E7E",
"C 	c #E9B9BF",
"D 	c #EBBDC3",
"E 	c #D88C8E",
"F 	c #D97B83",
"G 	c #E9E9E9",
"H 	c #DE9FA0",
"I 	c #EEC7CD",
"J 	c #E7B1B7",
"K 	c #E2A8AC",
"L 	c #E4B1B1",
"M 	c #DD9A9C",
"N 	c #EBC2C8",
"O 	c #E19EA3",
"P 	c #E18291",
"Q 	c #D58787",
"R 	c #D48484",
"S 	c #DA9192",
"T 	c #ECC0C6",
"U 	c #D7898A",
"V 	c #E48495",
"W 	c #E6B7B7",
"X 	c #EBC1C6",
"Y 	c #ECC2C8",
"Z 	c #ECC4CA",
"` 	c #DB7D87",
" .	c #C27777",
"..	c #584913",
"+.	c #E4A8AE",
"@.	c #E7B3B9",
"#.	c #E1A5A8",
"$.	c #D27578",
"%.	c #C67A7E",
"&.	c #E5AAB0",
"*.	c #DE979B",
"=.	c #E7B2B7",
"-.	c #FBEDF0",
";.	c #E38393",
">.	c #AB8080",
",.	c #E9B7BD",
"'.	c #DC9A9A",
").	c #D38181",
"!.	c #F8EAEA",
"~.	c #DB7C86",
"{.	c #DC999A",
"].	c #FAF0F0",
"^.	c #EDC8CE",
"/.	c #E2ACAC",
"(.	c #E7BABA",
"_.	c #E8BDBD",
":.	c #F5E2E2",
"<.	c #DA9395",
"[.	c #EFD1D1",
"}.	c #CF7474",
"|.	c #DFA2A2",
"1.	c #FEFCFC",
"2.	c #DC989A",
"3.	c #EBC5C5",
"4.	c #BABABD",
"                                                                                                                                ",
"                                                                                                                                ",
"                                                                                                                                ",
"                                                                                                                                ",
"                                                                                                                                ",
"                                                                                                                                ",
"                                                                                                                                ",
"                                                                                                                                ",
"                                                                                                                                ",
"                                                                                                                                ",
"                                                                                                                                ",
"                                                                                                                                ",
"                                                                                                                                ",
"                                                                                                                                ",
"                                                                                                                                ",
"                                                                                                                                ",
"                                                                                                                                ",
"                                                                  . +                                                           ",
"                                                                @ # $ % % &                                                     ",
"                                                                  . * = = - % ;                                                 ",
"                                                                  > % % % , = ' % % )                                     ! ~ ~ ",
"                                                                    { ] ^ / % ( = = _ % % :                             < ~ ~ ~ ",
"                                                                      [ % } ^ | % % 1 = = 2 % 3                       4 ~ ~ ~ ~ ",
"                                                                        5 } ^ ^ ^ 6 7 % % 8 = 9 % 0                 a ~ ~ ~ ~ ~ ",
"                                                                          b ^ ^ ^ ^ c d d e % f = g h               i ~ ~ ~ j k ",
"                                                                          b ^ ^ ^ ^ ^ l d d d m % n o               i ~ p k k k ",
"                                                                          q r s d d d d d d d d d t 9 % u         v ~ ~ w k k k ",
"                                                                          q r d d d d d d d d d d d x = y         v ~ z k k k k ",
"                                                                      A % B d d C ^ ^ ^ D d d d d d E F y       G ~ ~ z k k k k ",
"                                                                      H d d d I ^ ^ ^ ^ ^ J d d d d d K % L     G ~ ~ z k k k k ",
"                                                                      A M N % % % O c d d d d d d d d K P 1 Q   G ~ ~ z k k k k ",
"                                                                        5 R       S c d d d d T ^ d d d U _ V W G ~ ~ z k k k k ",
"                                                                                W X d d d Y ^ ^ T d d d Z _ = `  .~ ~ z k k k ..",
"                                                                                W X d d d +.^ @.d d d d d #.$.= %.~ ~ z k k k ..",
"                                                                                W X d &.^ *.% =.d d d d Z L -.= ;.>.~ z k k k k ",
"                                                                                W X ,.e % '.0 =.d d d K ).  !.~.;.>.~ ~ w k k k ",
"                                                                                  {.7 ].    0 =.d d ^./.      (.% _.i ~ p k k k ",
"                                                                                  :.)         <.d d d K u           i ~ ~ ~ j k ",
"                                                                                              [.m d d K u           a ~ ~ ~ ~ ~ ",
"                                                                                              [.}.d d K u             4 ~ ~ ~ ~ ",
"                                                                                                |.d d K ).              < ~ ~ ~ ",
"                                                                                                1.% % 2.Z L               ! ~ ~ ",
"                                                                                                      3.).                  4.  ",
"                                                                                                                            4.  ",
"                                                                                                                            4.  ",
"                                                                                                                            4.  ",
"                                                                                                                            4.  ",
"                                                                                                                            4.  ",
"                                                                                                                            4.  ",
"                                                                                                                            4.  ",
"                                                                                                                                ",
"                                                                                                                                ",
"                                                                                                                                ",
"                                                                                                                                ",
"                                                                                                                                ",
"                                                                                                                                ",
"                                                                                                                                ",
"                                                                                                                                ",
"                                                                                                                                ",
"                                                                                                                                ",
"                                                                                                                                ",
"                                                                                                                                ",
"                                                                                                                                ",
"                                                                                                                                "};
