/* XPM */
static char * Bat_Left_Half_xpm[] = {
"64 64 111 2",
"  	c #FFFFFF",
". 	c #A9A9A9",
"+ 	c #8C8C8C",
"@ 	c #D6D6D6",
"# 	c #BDBDBD",
"$ 	c #EAEAEA",
"% 	c #A4A4A4",
"& 	c #9B9580",
"* 	c #FFD438",
"= 	c #B4A56E",
"- 	c #D99191",
"; 	c #CF7373",
"> 	c #FBF5F5",
", 	c #D0D0D0",
"' 	c #FAD13B",
") 	c #ECC8C8",
"! 	c #E28292",
"~ 	c #E8879B",
"{ 	c #D07475",
"] 	c #F1D7D7",
"^ 	c #CDB55C",
"/ 	c #E68598",
"( 	c #D6787E",
"_ 	c #E6B8B8",
": 	c #D1D1D1",
"< 	c #E4B0B0",
"[ 	c #D68486",
"} 	c #E4A6AC",
"| 	c #E6AFB5",
"1 	c #F0CED4",
"2 	c #D17979",
"3 	c #E0818F",
"4 	c #DB7D87",
"5 	c #F9EFEF",
"6 	c #EECFCF",
"7 	c #D98D90",
"8 	c #E4A7AD",
"9 	c #D88C8E",
"0 	c #DB7C86",
"a 	c #D17577",
"b 	c #EFD0D0",
"c 	c #E6B7B7",
"d 	c #E2A1A6",
"e 	c #DFA0A3",
"f 	c #E58496",
"g 	c #D77980",
"h 	c #F7E8E8",
"i 	c #D98F91",
"j 	c #E9B8BE",
"k 	c #D27D7E",
"l 	c #DF808D",
"m 	c #D37679",
"n 	c #151204",
"o 	c #F0D5D5",
"p 	c #E5B1B5",
"q 	c #E8B4BA",
"r 	c #EFCDD3",
"s 	c #DB9295",
"t 	c #D77A82",
"u 	c #E5ABB1",
"v 	c #E6AEB4",
"w 	c #E7B2B8",
"x 	c #EEC8CE",
"y 	c #E38394",
"z 	c #E7869A",
"A 	c #B47D7D",
"B 	c #DD9B9C",
"C 	c #EABBC1",
"D 	c #E9B6BC",
"E 	c #EEC7CD",
"F 	c #EFCBD1",
"G 	c #DC999B",
"H 	c #DC8E92",
"I 	c #ECC5CA",
"J 	c #E0A3A6",
"K 	c #DC9397",
"L 	c #EBBFC5",
"M 	c #E6B4B9",
"N 	c #F4DEDE",
"O 	c #E2ABAB",
"P 	c #DFA1A4",
"Q 	c #E5B4B4",
"R 	c #E1A8A8",
"S 	c #E0A4A4",
"T 	c #EFD3D3",
"U 	c #E8B6BC",
"V 	c #DC9396",
"W 	c #D27A7B",
"X 	c #EDC5CB",
"Y 	c #D7878A",
"Z 	c #E0A6A6",
"` 	c #F7E9E9",
" .	c #DA8E91",
"..	c #FDFBFB",
"+.	c #E2A3A8",
"@.	c #EBC5C5",
"#.	c #E4B3B3",
"$.	c #EDC7CD",
"%.	c #DEA0A1",
"&.	c #D99193",
"*.	c #E4B1B1",
"=.	c #EAC4C4",
"-.	c #F5E4E4",
";.	c #EFD1D1",
">.	c #E6B4B8",
",.	c #E1A5A8",
"'.	c #DFA1A2",
").	c #F5F5F5",
"!.	c #B8B8BB",
"~.	c #F8F8F9",
"{.	c #DC9A9A",
"                                                                                                                                ",
"                                                                                                                                ",
"                                                                                                                                ",
"                                                                                                                                ",
"                                                                                                                                ",
"                                                                                                                                ",
"                                                                                                                                ",
"                                                                                                                                ",
"                                                                                                                                ",
"                                                                                                                                ",
"                                                                                                                                ",
"                                                                                                                                ",
"                                                                                                                                ",
"                                                                                                                                ",
"                                                                                                                                ",
"                                                                                                                                ",
"                                                                                                                                ",
"                                                                                                                                ",
"                                                                                                                          . + + ",
"                                                                                                                        @ + + + ",
"                                                                                                                      # + + + + ",
"                                                                                                                    $ + + + + + ",
"                                                                                                                    % + + & * * ",
"                                                                                                                    % + = * * * ",
"                                                                  - ; ; ; ; ; ; ; ; ; ; ; ; ; ; ; >               , + + ' * * * ",
"                                                                ) ! ~ ~ ~ ~ ~ ~ ~ ~ ~ ~ ~ ~ ~ ~ ~ { ]             , + ^ * * * * ",
"                                                                  - ; ; ; ; ; ; ; ; ; ; ; ; ; ; ; / ( _         : + + ^ * * * * ",
"                                                                    < [ } } } } } | 1 1 1 1 1 1 1 2 3 4 5       : + + ^ * * * * ",
"                                                                      6 ; 7 } } } } 8 1 1 1 1 1 1 1 9 0 a b     : + + ^ * * * * ",
"                                                                          c d } } | 1 1 1 1 1 1 1 1 1 e f g ; h : + + ^ * * * * ",
"                                                                            i } j 1 1 1 1 1 1 1 1 1 1 1 k l ~ m : + + ^ * * * n ",
"                                                                            o p 1 1 q } } } r 1 1 1 1 1 1 s ~ ~ t + + ^ * * * n ",
"                                                                            o p 1 u } } v 1 1 1 j w 1 1 1 x ; y z A + ^ * * * * ",
"                                                                            B 1 C } } D 1 1 1 E } F 1 1 1 G   H z A + + ' * * * ",
"                                                                          c I 1 J ; K D 1 1 L } C 1 1 1 M b   N ; O % + = * * * ",
"                                                                        c P 1 i Q   R 1 1 1 } } C 1 1 1 S           % + + & * * ",
"                                                                          c ; T     R 1 1 U V W } F 1 1 S             + + + + + ",
"                                                                                    R 1 X Y Z `  .F 1 1 M b           # + + + + ",
"                                                                                    ..G +.@.    #.$.1 1 M b             @ + + + ",
"                                                                                    ..G %.        G 1 1 1 &.*.            . + + ",
"                                                                                      =.-.        ;.>.1 1 1 ,.'.          ).!.~.",
"                                                                                                    {.; ; ; *.            ).!.~.",
"                                                                                                                          ).!.~.",
"                                                                                                                          ).!.~.",
"                                                                                                                          ).!.  ",
"                                                                                                                          ).!.  ",
"                                                                                                                          ).!.  ",
"                                                                                                                          ).!.  ",
"                                                                                                                                ",
"                                                                                                                                ",
"                                                                                                                                ",
"                                                                                                                                ",
"                                                                                                                                ",
"                                                                                                                                ",
"                                                                                                                                ",
"                                                                                                                                ",
"                                                                                                                                ",
"                                                                                                                                ",
"                                                                                                                                ",
"                                                                                                                                ",
"                                                                                                                                ",
"                                                                                                                                ",
"                                                                                                                                ",
"                                                                                                                                "};
