/* XPM */
static char * Bat_Bottom_Half_xpm[] = {
"64 64 102 2",
"  	c #FFFFFF",
". 	c #F0D5D5",
"+ 	c #E5B1B5",
"@ 	c #F0CED4",
"# 	c #E5ABB1",
"$ 	c #E4A6AC",
"% 	c #E6AEB4",
"& 	c #E9B8BE",
"* 	c #E7B2B8",
"= 	c #EEC8CE",
"- 	c #CF7373",
"; 	c #E38394",
"> 	c #E7869A",
", 	c #B47D7D",
"' 	c #8C8C8C",
") 	c #CDB55C",
"! 	c #FFD438",
"~ 	c #FAD13B",
"{ 	c #9A8686",
"] 	c #DE7F8B",
"^ 	c #E8879B",
"/ 	c #D4777C",
"( 	c #E1A5A8",
"_ 	c #ECC2C8",
": 	c #E4A8AE",
"< 	c #EBBDC3",
"[ 	c #EDC4CA",
"} 	c #E0A5A6",
"| 	c #DD9B9C",
"1 	c #EABBC1",
"2 	c #E9B6BC",
"3 	c #EEC7CD",
"4 	c #EFCBD1",
"5 	c #DC999B",
"6 	c #DC8E92",
"7 	c #B4A56E",
"8 	c #F4DEDE",
"9 	c #E4B1B1",
"0 	c #EDC6CC",
"a 	c #E6B7B7",
"b 	c #ECC5CA",
"c 	c #E0A3A6",
"d 	c #DC9397",
"e 	c #EBBFC5",
"f 	c #E6B4B9",
"g 	c #EFD0D0",
"h 	c #E2ABAB",
"i 	c #A4A4A4",
"j 	c #E1C14D",
"k 	c #E0CCCC",
"l 	c #E1A8A8",
"m 	c #E6AFB5",
"n 	c #CF7474",
"o 	c #D37F80",
"p 	c #DFA1A4",
"q 	c #D98F91",
"r 	c #E5B4B4",
"s 	c #E0A4A4",
"t 	c #9B9580",
"u 	c #C8B160",
"v 	c #FDFBFB",
"w 	c #F8EBEB",
"x 	c #EDC7CC",
"y 	c #EFD3D3",
"z 	c #E8B6BC",
"A 	c #DC9396",
"B 	c #D27A7B",
"C 	c #BDBDBD",
"D 	c #DA8E91",
"E 	c #D47F80",
"F 	c #D27D7D",
"G 	c #D38080",
"H 	c #EDC5CB",
"I 	c #D7878A",
"J 	c #E0A6A6",
"K 	c #F7E9E9",
"L 	c #909090",
"M 	c #E4B3B3",
"N 	c #F3DDDD",
"O 	c #CF7374",
"P 	c #E2A3A8",
"Q 	c #EBC5C5",
"R 	c #EDC7CD",
"S 	c #D6D6D6",
"T 	c #A9A9A9",
"U 	c #FEFCFC",
"V 	c #E7B4B9",
"W 	c #EAC4C4",
"X 	c #DEA0A1",
"Y 	c #D99193",
"Z 	c #EFEFEF",
"` 	c #E6B4B8",
" .	c #EFD1D1",
"..	c #E3AAAE",
"+.	c #F5E4E4",
"@.	c #DFA1A2",
"#.	c #F5F5F5",
"$.	c #B8B8BB",
"%.	c #F8F8F9",
"&.	c #E0A4A5",
"*.	c #E1A9A9",
"=.	c #DC9A9A",
"                                                                                                                                ",
"                                                                                                                                ",
"                                                                                                                                ",
"                                                                                                                                ",
"                                                                                                                                ",
"                                                                                                                                ",
"                                                                                                                                ",
"                                                                                                                                ",
"                                                                                                                                ",
"                                                                                                                                ",
"                                                                                                                                ",
"                                                                                                                                ",
"                                                                                                                                ",
"                                                                                                                                ",
"                                                                                                                                ",
"                                                                                                                                ",
"                                                                                                                                ",
"                                                                                                                                ",
"            . + @ # $ $ % @ @ @ & * @ @ @ = - ; > , ' ) ! ! ! ! ! ! ! ~ ' { ] ^ / ( @ @ @ _ : @ @ @ < $ $ $ [ @ }               ",
"            | @ 1 $ $ 2 @ @ @ 3 $ 4 @ @ @ 5   6 > , ' ' ~ ! ! ! ! ! ! 7 ' { ] ] 8 9 = @ @ @ * & @ @ @ 0 $ $ # @ +               ",
"          a b @ c - d 2 @ @ e $ 1 @ @ @ f g   8 - h i ' 7 ! ! ! ! ! j ' ' k - l     5 @ @ @ 4 $ m @ @ 0 $ n o @ @ |             ",
"        a p @ q r   l @ @ @ $ $ 1 @ @ @ s           i ' ' t ! ! ! u ' ' '           g f @ @ 4 $ $ e @ @ 5 v w - x b a           ",
"          a - y     l @ @ z A B $ 4 @ @ s             ' ' ' ' ' ' ' ' ' C           g f @ @ * D E $ @ @ 5 v     F G             ",
"                    l @ H I J K D 4 @ @ f g           C ' ' ' ' ' ' ' L             5 @ @ @ m M N O z @ 5 v                     ",
"                    v 5 P Q     M R @ @ f g             S ' ' ' ' ' T               5 @ @ @ 5     U I V W                       ",
"                    v 5 X         5 @ @ @ Y 9             T ' ' ' ' Z             - = @ @ `  .      Q ..W                       ",
"                      W +.         .` @ @ @ ( @.          #.$.%.  $.            @.@ @ @ @ &.          *.                        ",
"                                    =.- - - 9             #.$.%.  $.              - - - -                                       ",
"                                                          #.$.%.  $.                                                            ",
"                                                          #.$.%.  $.                                                            ",
"                                                          #.$.    $.                                                            ",
"                                                          #.$.    $.                                                            ",
"                                                          #.$.    $.                                                            ",
"                                                          #.$.    $.                                                            ",
"                                                                                                                                ",
"                                                                                                                                ",
"                                                                                                                                ",
"                                                                                                                                ",
"                                                                                                                                ",
"                                                                                                                                ",
"                                                                                                                                ",
"                                                                                                                                ",
"                                                                                                                                ",
"                                                                                                                                ",
"                                                                                                                                ",
"                                                                                                                                ",
"                                                                                                                                ",
"                                                                                                                                ",
"                                                                                                                                ",
"                                                                                                                                ",
"                                                                                                                                ",
"                                                                                                                                ",
"                                                                                                                                ",
"                                                                                                                                ",
"                                                                                                                                ",
"                                                                                                                                ",
"                                                                                                                                ",
"                                                                                                                                ",
"                                                                                                                                ",
"                                                                                                                                ",
"                                                                                                                                ",
"                                                                                                                                ",
"                                                                                                                                ",
"                                                                                                                                "};
