/* XPM */
static char * Bunny_Right_Left_Half_xpm[] = {
"64 64 160 2",
"  	c #FFFFFF",
". 	c #F3F3F3",
"+ 	c #E6E6E6",
"@ 	c #F2F2F2",
"# 	c #8B8B8B",
"$ 	c #000000",
"% 	c #7D7D7D",
"& 	c #D0D0D0",
"* 	c #CECECE",
"= 	c #868686",
"- 	c #303030",
"; 	c #7E7E7E",
"> 	c #0D0D0D",
", 	c #737373",
"' 	c #FFFFFE",
") 	c #818180",
"! 	c #DEDEDE",
"~ 	c #B5B5B5",
"{ 	c #4E4E4E",
"] 	c #494948",
"^ 	c #9B9B9B",
"/ 	c #A5A5A4",
"( 	c #8E8E8E",
"_ 	c #F1F1F0",
": 	c #C4C4C4",
"< 	c #7A7A7A",
"[ 	c #848483",
"} 	c #848484",
"| 	c #BCBCBB",
"1 	c #F38696",
"2 	c #F38495",
"3 	c #E60325",
"4 	c #E60023",
"5 	c #989898",
"6 	c #929292",
"7 	c #818181",
"8 	c #6C6C6B",
"9 	c #B0B0B0",
"0 	c #F494A2",
"a 	c #F492A0",
"b 	c #ED4A62",
"c 	c #777776",
"d 	c #F28191",
"e 	c #D8D8D8",
"f 	c #ABABAB",
"g 	c #828282",
"h 	c #535353",
"i 	c #A6A6A5",
"j 	c #FAD5DA",
"k 	c #F6ABB5",
"l 	c #878787",
"m 	c #E3E3E3",
"n 	c #C3C3C3",
"o 	c #3B3B3B",
"p 	c #EEEEEE",
"q 	c #DCDCDC",
"r 	c #808080",
"s 	c #222222",
"t 	c #F9F9F9",
"u 	c #F4F4F4",
"v 	c #ADADAD",
"w 	c #A7A7A7",
"x 	c #FAFAFA",
"y 	c #A8A8A8",
"z 	c #101010",
"A 	c #F1F1F1",
"B 	c #030303",
"C 	c #CFCFCF",
"D 	c #8F8F8F",
"E 	c #717171",
"F 	c #6F6F6F",
"G 	c #8D8D8D",
"H 	c #C2C2C2",
"I 	c #C9C9C9",
"J 	c #70706F",
"K 	c #919191",
"L 	c #EEEEED",
"M 	c #FBFBFA",
"N 	c #767676",
"O 	c #888887",
"P 	c #F7F7F6",
"Q 	c #8E8E8D",
"R 	c #80807F",
"S 	c #7F7F7E",
"T 	c #FDFDFC",
"U 	c #131313",
"V 	c #6D6D6C",
"W 	c #8B8B8A",
"X 	c #F5F5F5",
"Y 	c #060606",
"Z 	c #5A5A5A",
"` 	c #5E5E5E",
" .	c #9E9E9E",
"..	c #A0A09F",
"+.	c #CDCDCD",
"@.	c #F8F8F7",
"#.	c #BEBEBE",
"$.	c #B9B9B9",
"%.	c #454545",
"&.	c #F3F3F2",
"*.	c #ADADAC",
"=.	c #7A7A79",
"-.	c #B9B9B8",
";.	c #EBEBEB",
">.	c #D1D1D1",
",.	c #383837",
"'.	c #2D2D2D",
").	c #757575",
"!.	c #D1D1D0",
"~.	c #E6E6E5",
"{.	c #707070",
"].	c #9A9A9A",
"^.	c #151515",
"/.	c #DCDCDB",
"(.	c #E9E9E9",
"_.	c #B2B2B2",
":.	c #4C4C4C",
"<.	c #B2B2B1",
"[.	c #D4D4D3",
"}.	c #858585",
"|.	c #7F7F7F",
"1.	c #969696",
"2.	c #6B6B6A",
"3.	c #686868",
"4.	c #F9F9F8",
"5.	c #F5F5F4",
"6.	c #4F4F4F",
"7.	c #AEAEAE",
"8.	c #545453",
"9.	c #505050",
"0.	c #FAFAF9",
"a.	c #090909",
"b.	c #383838",
"c.	c #020202",
"d.	c #191919",
"e.	c #C1C1C1",
"f.	c #C6C6C6",
"g.	c #212121",
"h.	c #1D1D1C",
"i.	c #9F9F9F",
"j.	c #1F1F1F",
"k.	c #747473",
"l.	c #DFDFDE",
"m.	c #797979",
"n.	c #1E1E1E",
"o.	c #888888",
"p.	c #777777",
"q.	c #1A1A1A",
"r.	c #070707",
"s.	c #6E6E6D",
"t.	c #878786",
"u.	c #F8F8F8",
"v.	c #656565",
"w.	c #0F0F0F",
"x.	c #696968",
"y.	c #EDEDEC",
"z.	c #E4E4E3",
"A.	c #3A3A3A",
"B.	c #292929",
"C.	c #959595",
"                                                                                                                                ",
"                                                                                            . + + + + + + + + + + + + + + @     ",
"                                                                                            # $ $ $ $ $ $ $ $ $ $ $ $ $ $ %     ",
"                                                                                        & * = - - - - - - - - - - - - - - ; * * ",
"                                                                                        > $ , ' ' ' ' ' ' ' ' ' ' ' ' ' ' ) $ $ ",
"                                                                                  ! ~ ~ { ] ^ ' ' ' ' ' ' ' ' ' ' ' ' ' ' / ] ] ",
"                                                                                  ( $ $ _ ' ' ' ' ' ' ' ' ' ' ' ' ' ' ' ' ' ' ' ",
"                                                                                  ( $ $ _ ' ' ' ' ' ' ' ' ' ' ' ' ' ' ' ' ' ' ' ",
"                                                                                  ( $ $ _ ' ' ' ' ' ' ' ' ' ' ' ' ' ' ' ' ' ' ' ",
"                                                                                  : < < [ } | ' ' ' ' ' ' ' ' ' ' ' ' 1 2 2 2 2 ",
"                                                                                        > $ , ' ' ' ' ' ' ' ' ' ' ' ' 3 4 4 4 4 ",
"                                                                                        5 6 7 8 8 8 8 9 ' ' ' ' ' ' ' 0 a b 4 4 ",
"                                                                                            # $ $ $ $ c ' ' ' ' ' ' ' ' ' d 4 4 ",
"                                                                                            e f f f f g h h h h i ' ' ' ' j k k ",
"                                                                                                      l $ $ $ $ < ' ' ' ' ' ' ' ",
"                                                                                                      m n n n n g o o o o ^ ' ' ",
"                                                                                                                } $ $ $ $ % ' ' ",
"                                                                                                                p q q q q r s s ",
"                                                                                                                          7 $ $ ",
"                                                                                                                          t u u ",
"                                                                                                                                ",
"                                                                                                                                ",
"                                                                                                                                ",
"                                                                                                                                ",
"                                                                                                                                ",
"                                                                                                                                ",
"                                                                              v w w w w x                             y w w w w ",
"                                                                              z $ $ $ $ A                             B $ $ $ $ ",
"                                                                        C D D E F F F F G D H                   I D D J F F F F ",
"                                                                        K $ $ L ' ' ' ' > $ ,                   } $ $ M ' ' ' ' ",
"                                                                    7 N ; O O P ' ' ' ' Q O R N N t         < N S O O T ' ' ' ' ",
"                                                                    U $ V ' ' ' ' ' ' ' ' ' W $ $ X         Y $ < ' ' ' ' ' ' ' ",
"                                                                    U $ V ' ' ' ' ' ' ' ' ' W $ $ Z ` ` ` `  ...+.' ' ' ' ' ' ' ",
"                                                                    U $ V ' ' ' ' ' ' ' ' ' W $ $ $ $ $ $ $ @.' ' ' ' ' ' ' ' ' ",
"                                                                    #.$.l %.%.&.' *.%.%.%.%.=.-.-.-.-.-.-.-.T ' ' ' ' ' ' ' ' ' ",
"                                                                        K $ $ L ' Q $ $ $ $ , ' ' ' ' ' ' ' ' ' ' ' ' ' ' ' ' ' ",
"                                                                        ;.>.>.,.'.).!.!.!.!.~.' ' ' ' ' ' ' ' ' ' ' ' ' ' ' ' ' ",
"                                                                              z $ {.' ' ' ' ' ' ' ' ' ' ' ' ' ' ' ' ' ' ' ' ' ' ",
"                                                                        ].^.^./.(.&.' ' ' ' ' ' ' ' ' ' ' ' ' ' ' ' ' ' ' ' ' ' ",
"                                                                        K $ $ L ' ' ' ' ' ' ' ' ' ' ' ' ' ' ' ' ' ' ' ' ' ' ' ' ",
"                                                                        K $ $ L ' ' ' ' ' ' ' ' ' ' ' ' ' ' ' ' ' ' ' ' ' ' ' ' ",
"                                                                        K $ $ L ' ' ' ' ' ' ' ' ' ' ' ' ' ' ' ' ' ' ' ' ' ' ' ' ",
"                                                                        K $ $ L ' ' ' ' ' ' ' ' ' ' ' ' ' ' ' ' ' ' ' ' ' ' ' ' ",
"                                                                        K $ $ L ' ' ' ' ' ' ' ' ' ' ' ' ' ' ' ' ' ' ' ' ' ' ' ' ",
"                                                                        K $ $ L ' ' ' ' ' ' ' ' ' ' ' ' ' ' ' ' ' ' ' ' ' ' ' ' ",
"                                                                        _.:.:.f <.[.' ' ' ' ' ' ' ' ' ' ' ' ' ' ' ' ' ' ' ' ' ' ",
"                                                                              z $ {.' ' ' ' ' ' ' ' ' ' ' ' ' ' ' ' ' ' ' ' ' ' ",
"                                                                              z $ {.' ' ' ' ' ' ' ' ' ' ' ' ' ' ' ' ' ' ' ' ' ' ",
"                                                                              z $ {.' ' ' ' ' ' ' ' ' ' ' ' ' ' ' ' ' ' ' ' ' ' ",
"                                                                              }.% |.) ) @.' ' ' ' ' ' ' ' ' ' ' ' ' ' ' ' ' ' ' ",
"                                                                                  ( $ $ _ ' ' ' ' ' ' ' ' ' ' ' ' ' ' ' ' ' ' ' ",
"                                                                                  & 1.1.2.3.3.3.3.4.' ' ' ' ' ' ' ' ' ' ' ' ' ' ",
"                                                                                        > $ $ $ $ 5.' ' ' ' ' ' ' ' ' ' ' ' ' ' ",
"                                                                                        > $ 6.7.7.8.9.9.9.9.0.' ' ' ' ' ' ' ' ' ",
"                                                                                        > $ ,     a.$ $ $ $ @.' ' ' ' ' ' ' ' ' ",
"                                                                                  w b.b.c.$ d.b.b.e.f.f.f.f.g.h.h.h.h.h.h.h.h.h.",
"                                                                                  ( $ $ $ $ $ $ $ X         Y $ $ $ $ $ $ $ $ $ ",
"                                                                        i.j.j.j.j.k.l.l.l.l.m.$ $ n.j.o.    x x x x x x x x x x ",
"                                                                        K $ $ $ $ {.        W $ $ $ $ p.                        ",
"                                                                    q.r.s.P P z $ {.        W $ $   P t.r.r.u.            } r.r.",
"                                                                    U $ v.    w.$ x.y.y.y.y.7 $ $ z.y.; $ $ u.            7 $ $ ",
"                                                                    U $ $ $ $ $ $ $ $ $ $ $ $ $ $ $ $ $ $ $ u.            7 $ $ ",
"                                                                    A.B.B.B.B.B.B.B.B.B.B.B.B.B.B.B.B.B.B.B.t             C.B.B.",
"                                                                                                                                "};
