/* XPM */
static char * bunny_Right_xpm[] = {
"64 64 274 2",
"  	c #FFFFFF",
". 	c #F3F3F3",
"+ 	c #E6E6E6",
"@ 	c #F2F2F2",
"# 	c #8B8B8B",
"$ 	c #000000",
"% 	c #7D7D7D",
"& 	c #7A7A7A",
"* 	c #D0D0D0",
"= 	c #CECECE",
"- 	c #868686",
"; 	c #303030",
"> 	c #7E7E7E",
", 	c #FEFEFE",
"' 	c #7C7C7C",
") 	c #E9E9E9",
"! 	c #0D0D0D",
"~ 	c #737373",
"{ 	c #FFFFFE",
"] 	c #818180",
"^ 	c #818181",
"/ 	c #FBFBFB",
"( 	c #848483",
"_ 	c #8E8E8E",
": 	c #DEDEDE",
"< 	c #B5B5B5",
"[ 	c #4E4E4E",
"} 	c #494948",
"| 	c #9B9B9B",
"1 	c #A5A5A4",
"2 	c #808080",
"3 	c #B4B4B4",
"4 	c #A7A7A7",
"5 	c #858585",
"6 	c #BABABA",
"7 	c #F1F1F0",
"8 	c #030303",
"9 	c #707070",
"0 	c #101010",
"a 	c #AFAFAE",
"b 	c #616161",
"c 	c #636363",
"d 	c #A7A7A6",
"e 	c #656565",
"f 	c #9D9D9D",
"g 	c #D5D5D5",
"h 	c #EEEEED",
"i 	c #919191",
"j 	c #C4C4C4",
"k 	c #848484",
"l 	c #BCBCBB",
"m 	c #F38696",
"n 	c #F38495",
"o 	c #F9C2CA",
"p 	c #BFBFBE",
"q 	c #C5C5C5",
"r 	c #F8BCC4",
"s 	c #F9C9CF",
"t 	c #E60325",
"u 	c #E60023",
"v 	c #F28191",
"w 	c #878787",
"x 	c #F17386",
"y 	c #F38E9D",
"z 	c #989898",
"A 	c #929292",
"B 	c #6C6C6B",
"C 	c #B0B0B0",
"D 	c #F494A2",
"E 	c #F492A0",
"F 	c #ED4A62",
"G 	c #EB3652",
"H 	c #F06C80",
"I 	c #F06E81",
"J 	c #727271",
"K 	c #F9C3CB",
"L 	c #F38B9A",
"M 	c #EB3C56",
"N 	c #EA6E81",
"O 	c #6C6C6C",
"P 	c #777777",
"Q 	c #777776",
"R 	c #060606",
"S 	c #090909",
"T 	c #FDF1F2",
"U 	c #E71031",
"V 	c #6D6D6D",
"W 	c #131313",
"X 	c #D8D8D8",
"Y 	c #ABABAB",
"Z 	c #828282",
"` 	c #535353",
" .	c #A6A6A5",
"..	c #FAD5DA",
"+.	c #F6ABB5",
"@.	c #D2D2D2",
"#.	c #B1B1B0",
"$.	c #F5F5F5",
"%.	c #8B8B8A",
"&.	c #E3E3E3",
"*.	c #C3C3C3",
"=.	c #3B3B3B",
"-.	c #F9C3CA",
";.	c #EF6075",
">.	c #EB3B56",
",.	c #D6828E",
"'.	c #C3C3C2",
").	c #C0C0BF",
"!.	c #A3A3A3",
"~.	c #FEFBFB",
"{.	c #EE566D",
"].	c #F27D8F",
"^.	c #F28494",
"/.	c #F8F8F7",
"(.	c #F17083",
"_.	c #EEEEEE",
":.	c #DCDCDC",
"<.	c #222222",
"[.	c #FDEDEE",
"}.	c #FBDCDF",
"|.	c #FBD9DD",
"1.	c #FDFDFD",
"2.	c #2E2E2E",
"3.	c #F9F9F9",
"4.	c #F4F4F4",
"5.	c #0A0A0A",
"6.	c #868685",
"7.	c #262626",
"8.	c #D8D8D7",
"9.	c #D8D6D5",
"0.	c #E92643",
"a.	c #F496A4",
"b.	c #F38596",
"c.	c #E8314D",
"d.	c #727272",
"e.	c #373737",
"f.	c #C0C0C0",
"g.	c #5E5E5E",
"h.	c #666666",
"i.	c #797979",
"j.	c #3E3E3E",
"k.	c #484848",
"l.	c #DBDBDB",
"m.	c #B7B7B7",
"n.	c #ACACAC",
"o.	c #ADADAD",
"p.	c #FAFAFA",
"q.	c #A8A8A8",
"r.	c #575756",
"s.	c #2B2B2A",
"t.	c #D1D1D0",
"u.	c #A5A5A5",
"v.	c #FAFAF9",
"w.	c #575757",
"x.	c #626262",
"y.	c #F1F1F1",
"z.	c #F5F5F4",
"A.	c #CFCFCF",
"B.	c #8F8F8F",
"C.	c #717171",
"D.	c #6F6F6F",
"E.	c #8D8D8D",
"F.	c #C2C2C2",
"G.	c #C9C9C9",
"H.	c #70706F",
"I.	c #B6B6B5",
"J.	c #B4B4B3",
"K.	c #737372",
"L.	c #F9F9F8",
"M.	c #BDBDBD",
"N.	c #F7F7F6",
"O.	c #969696",
"P.	c #FBFBFA",
"Q.	c #767676",
"R.	c #888887",
"S.	c #8E8E8D",
"T.	c #80807F",
"U.	c #7F7F7E",
"V.	c #FDFDFC",
"W.	c #6D6D6C",
"X.	c #5A5A5A",
"Y.	c #9E9E9E",
"Z.	c #A0A09F",
"`.	c #CDCDCD",
" +	c #ADADAC",
".+	c #B3B3B3",
"++	c #585857",
"@+	c #BEBEBE",
"#+	c #B9B9B9",
"$+	c #454545",
"%+	c #F3F3F2",
"&+	c #7A7A79",
"*+	c #B9B9B8",
"=+	c #7E7E35",
"-+	c #B5B525",
";+	c #7A7A36",
">+	c #4D4D4C",
",+	c #848433",
"'+	c #757537",
")+	c #545454",
"!+	c #7E7E19",
"~+	c #FAFA33",
"{+	c #747417",
"]+	c #8B8B1C",
"^+	c #6B6B15",
"/+	c #EBEBEB",
"(+	c #D1D1D1",
"_+	c #383837",
":+	c #2D2D2D",
"<+	c #757575",
"[+	c #E6E6E5",
"}+	c #9A9A9A",
"|+	c #151515",
"1+	c #DCDCDB",
"2+	c #7E7E1B",
"3+	c #F6F632",
"4+	c #757519",
"5+	c #8B8B1D",
"6+	c #6B6B17",
"7+	c #161616",
"8+	c #1B1B1B",
"9+	c #949494",
"0+	c #E5E5E5",
"a+	c #B2B2B2",
"b+	c #4C4C4C",
"c+	c #B2B2B1",
"d+	c #D4D4D3",
"e+	c #D9D9D8",
"f+	c #D6D6D5",
"g+	c #787877",
"h+	c #656564",
"i+	c #7F7F7F",
"j+	c #999999",
"k+	c #676767",
"l+	c #969695",
"m+	c #BDBDBC",
"n+	c #F8F8F8",
"o+	c #6B6B6A",
"p+	c #686868",
"q+	c #6A6A69",
"r+	c #4F4F4F",
"s+	c #AEAEAE",
"t+	c #545453",
"u+	c #505050",
"v+	c #383838",
"w+	c #020202",
"x+	c #191919",
"y+	c #C1C1C1",
"z+	c #C6C6C6",
"A+	c #212121",
"B+	c #1D1D1C",
"C+	c #E4E4E4",
"D+	c #9F9F9F",
"E+	c #1F1F1F",
"F+	c #747473",
"G+	c #DFDFDE",
"H+	c #1E1E1E",
"I+	c #888888",
"J+	c #0F0F0F",
"K+	c #242424",
"L+	c #1A1A1A",
"M+	c #070707",
"N+	c #6E6E6D",
"O+	c #878786",
"P+	c #FEFEFD",
"Q+	c #747474",
"R+	c #141413",
"S+	c #EDEDEC",
"T+	c #696968",
"U+	c #E4E4E3",
"V+	c #0C0C0C",
"W+	c #3A3A3A",
"X+	c #292929",
"Y+	c #959595",
"                                                                                                                                ",
"                            . + + + + + + + + + + + + + + @                   @ + + + + + + + + + .                             ",
"                            # $ $ $ $ $ $ $ $ $ $ $ $ $ $ %                   & $ $ $ $ $ $ $ $ $ #                             ",
"                        * = - ; ; ; ; ; ; ; ; ; ; ; ; ; ; > = = = = +   , = = ' ; ; ; ; ; ; ; ; ; - = = = = )                   ",
"                        ! $ ~ { { { { { { { { { { { { { { ] $ $ $ $ ^   / $ $ ( { { { { { { { { { ~ $ $ $ $ _                   ",
"                  : < < [ } | { { { { { { { { { { { { { { 1 } } } } 2 < 3 } } 4 { { { { { { { { { | } } } } 5 < 6               ",
"                  _ $ $ 7 { { { { { { { { { { { { { { { { { { { { { % $ 8 { { { { { { { { { { { { { { { { { 9 $ 0               ",
"                  _ $ $ 7 { { { { { { { { { { { { { { { { { { { { { a b c { { { { { { { { { { { { { { { { { d b e f f g         ",
"                  _ $ $ 7 { { { { { { { { { { { { { { { { { { { { { { { { { { { { { { { { { { { { { { { { { { { h $ $ i         ",
"                  j & & ( k l { { { { { { { { { { { { m n n n n n n o { { { { p k k k k q { { { { r n n n n s { h $ $ i         ",
"                        ! $ ~ { { { { { { { { { { { { t u u u u u u v { { { { & $ $ $ $ w { { { { x u u u u y { h $ $ i         ",
"                        z A ^ B B B B C { { { { { { { D E F u u u u G H I { { & $ 8 A A > B J { { K E L u u M H N A A ' O P     ",
"                            # $ $ $ $ Q { { { { { { { { { v u u u u u u t { { & $ R     P $ S { { { { T u u u u U { { V $ W     ",
"                            X Y Y Y Y Z ` ` ` `  .{ { { { ..+.+.u u u u t { { & $ R     @.Y 4 ` ` #.{ T u u u u U { { V $ W     ",
"                                      w $ $ $ $ & { { { { { { { u u u u t { { & $ R         $.$ $ %.{ T u u u u U { { V $ W     ",
"                                      &.*.*.*.*.Z =.=.=.=.| { { -.-.;.u u >.>.,.'.).=.=.!.  $.$ $ %.{ ~.-.-.{.u U { { V $ W     ",
"                                                k $ $ $ $ % { { { { ].u u u u ^.{ /.$ $ w   $.$ $ %.{ { { { (.u U { { V $ W     ",
"                                                _.:.:.:.:.2 <.<.{ { [.}.|.u u ^.{ /.$ $ w   1.:.:.Q <.2.{ { (.u U { { V $ W     ",
"                                                          ^ $ $ { { { { ~.u u ^.{ /.$ $ w         ~ $ ! { { (.u U { { V $ W     ",
"                                                          3.4.4.5.5.6.{ ~.u u ^.{ /.$ $ w         ~ $ ! { { (.u U { { V $ W     ",
"                                                                $ $ ] { ~.u u ^.{ /.$ $ w         ~ $ ! { { (.u U { { V $ W     ",
"                                                                $ $ ] { ~.u u ^.{ /.$ $ w         ~ $ ! { { (.u U { { V $ W     ",
"                                                                7.7.2 8.9.0.0.a.{ /.$ $ w         ~ $ ! { { b.0.c.X X d.7.e.    ",
"                                                                    % $ 8 { { { { /.$ $ w         ~ $ ! { { { { h $ $ i         ",
"                                                                f.f.g.$ 8 { { { { /.$ $ h.f.f.f.f.i.j.k.{ { l.).m.j.j.n.        ",
"                                                                $ $ $ $ 8 { { { { /.$ $ $ $ $ $ $ %.{ { { { 9 $ 0               ",
"              o.4 4 4 4 p.                            q.4 4 4 4 r.r.s.$ 8 { { t.4 u.r.r.r.r.` $ $ %.{ v.4 4 & w.x.              ",
"              0 $ $ $ $ y.                            8 $ $ $ $ { { % $ 8 { { & $ R { { { { z.$ $ %.{ 7 $ $ _                   ",
"        A.B.B.C.D.D.D.D.E.B.F.                  G.B.B.H.D.D.D.D.{ { I.D.C.{ { J.D.K.{ { { { L.D.D.M.{ N.D.D.^ B.O.              ",
"        i $ $ h { { { { ! $ ~                   k $ $ P.{ { { { { { { { { { { { { { { { { { { { { { { { { { 9 $ 0               ",
"    ^ Q.> R.R.N.{ { { { S.R.T.Q.Q.3.        & Q.U.R.R.V.{ { { { { { { { { { { { { { { { { { { { { { { { { { l R.- Q.Q.j         ",
"    W $ W.{ { { { { { { { { %.$ $ $.        R $ & { { { { { { { { { { { { { { { { { { { { { { { { { { { { { { { h $ $ i         ",
"    W $ W.{ { { { { { { { { %.$ $ X.g.g.g.g.Y.Z.`.{ { { { { { { { {  +g.g.g.g.g.g.g.g.g..+{ { { { { { { { { 1 g.++$ $ i         ",
"    W $ W.{ { { { { { { { { %.$ $ $ $ $ $ $ /.{ { { { { { { { { { { % $ $ $ $ $ $ $ $ $ w { { { { { { { { { 9 $ $ $ $ i         ",
"    @+#+w $+$+%+{  +$+$+$+$+&+*+*+*+*+*+*+*+V.{ { { { { { { { { $+$+=+-+-+-+-+-+-+-+-+-+;+$+>+{ { { { z.$+$+,+-+-+-+-+'+$+)+    ",
"        i $ $ h { S.$ $ $ $ ~ { { { { { { { { { { { { { { { { { $ $ !+~+~+~+~+~+~+~+~+~+{+$ S { { { { 7 $ $ ]+~+~+~+~+^+$ W     ",
"        /+(+(+_+:+<+t.t.t.t.[+{ { { { { { { { { { { { { { { { { $ $ !+~+~+~+~+~+~+~+~+~+{+$ S { { { { 7 $ $ ]+~+~+~+~+^+$ W     ",
"              0 $ 9 { { { { { { { { { { { { { { { { { { { { { { $ $ !+~+~+~+~+~+~+~+~+~+{+$ S { { { { 7 $ $ ]+~+~+~+~+^+$ W     ",
"        }+|+|+1+) %+{ { { { { { { { { { { { { { { { { { { { { { $ $ !+~+~+~+~+~+~+~+~+~+{+$ S { { { { 7 $ $ ]+~+~+~+~+^+$ W     ",
"        i $ $ h { { { { { { { { { { { { { { { { { { { { { { { { 8 8 2+3+3+3+3+3+3+3+3+3+4+8 ! { { { { 7 8 8 5+3+3+3+3+6+8 7+    ",
"        i $ $ h { { { { { { { { { { { { { { { { { { { { { { { { { { % $ $ $ $ $ $ $ $ $ w { { { { { { { { { 9 $ $ $ $ i         ",
"        i $ $ h { { { { { { { { { { { { { { { { { { { { { { { { { { # 8+8+8+8+8+8+8+8+8+9+{ { { { { { { { { T.8+8+8+8+E.&.0+    ",
"        i $ $ h { { { { { { { { { { { { { { { { { { { { { { { { { { { { { { { { { { { { { { { { { { { { { { { { { { { W.$ W     ",
"        i $ $ h { { { { { { { { { { { { { { { { { { { { { { { { { { { { { { { { { { { { { { { { { { { { { { { { { { { W.$ W     ",
"        i $ $ h { { { { { { { { { { { { { { { { { { { { { { { { { { { { { { { { { { { { { { { { { { { { { { { { { { { W.$ W     ",
"        a+b+b+Y c+d+{ { { { { { { { { { { { { { { { { { { { { { c+c+e+{ { { { { { { { { f+c+c+c+c+c+c+I.{ { { { v.c+c+g+b+X.    ",
"              0 $ 9 { { { { { { { { { { { { { { { { { { { { { { $ $ ] { { { { { { { { { Q $ $ $ $ $ $ ! { { { { h $ $ i         ",
"              0 $ 9 { { { { { { { { { { { { { { { { { { { { { { h+h+i+j+j+j+j+j+j+j+j+j+% e e e e e e k+j+j+j+j+l+e e M.        ",
"              0 $ 9 { { { { { { { { { { { { { { { { { { { { { { { { % $ $ $ $ $ $ $ $ $ w             y.$ $ $ $ 0               ",
"              5 % i+] ] /.{ { { { { { { { { { { { { { { { { { { { { m+% % % % % % &+$ $ w             n+% % % % 5               ",
"                  _ $ $ 7 { { { { { { { { { { { { { { { { { { { { { { { { { { { { /.$ $ w                                       ",
"                  * O.O.o+p+p+p+p+L.{ { { { { { { { { { { { { { { { { { { { { #.p+q+O.O.`.                                      ",
"                        ! $ $ $ $ z.{ { { { { { { { { { { { { { { { { { { { { & $ R                                             ",
"                        ! $ r+s+s+t+u+u+u+u+v.{ { { { { { { { { u+u+u+u+u+u+u+^ s+C                                             ",
"                        ! $ ~     S $ $ $ $ /.{ { { { { { { { { $ $ $ $ $ $ $ k                                                 ",
"                  4 v+v+w+$ x+v+v+y+z+z+z+z+A+B+B+B+B+B+B+B+B+B+z+z+x.$ w+z+z+C+  3.v+v+v+v+v+v+v+v+v+v+v+v+4                   ",
"                  _ $ $ $ $ $ $ $ $.        R $ $ $ $ $ $ $ $ $     % $ 8         n+$ $ $ $ $ $ $ $ $ $ $ $ _                   ",
"        D+E+E+E+E+F+G+G+G+G+i.$ $ H+E+I+    p.p.p.p.p.p.p.p.p.p.E+E+J+$ $ E+E+E+E+K+G+G+G+G+f+$ $ i.G+G+G+G+F+E+E+E+E+D+        ",
"        i $ $ $ $ 9 { { { { %.$ $ $ $ P                         $ $ $ $ $ $ $ $ $ R { { { { z.$ $ %.{ { { { 9 $ $ $ $ i         ",
"    L+M+N+N.N.0 $ 9 { { { { %.$ $ h N.O+M+M+n+            k M+M+N.N.N.N.N.N.N.N.N./.{ { { { P+N.N.Q+M+R+{ { 9 $ 0 N.N.N+M+L+    ",
"    W $ e S+S+J+$ T+S+S+S+S+^ $ $ U+S+> $ $ n+            ^ $ $ S+S+S+S+S+S+S+S+S+S+S+S+S+S+S+S+S+B $ V+S+S+T+$ J+S+S+e $ W     ",
"    W $ $ $ $ $ $ $ $ $ $ $ $ $ $ $ $ $ $ $ n+            ^ $ $ $ $ $ $ $ $ $ $ $ $ $ $ $ $ $ $ $ $ $ $ $ $ $ $ $ $ $ $ $ W     ",
"    W+X+X+X+X+X+X+X+X+X+X+X+X+X+X+X+X+X+X+X+3.            Y+X+X+X+X+X+X+X+X+X+X+X+X+X+X+X+X+X+X+X+X+X+X+X+X+X+X+X+X+X+X+X+W+    ",
"                                                                                                                                "};
