/* XPM */
static char * bunny_Left_xpm[] = {
"64 64 274 2",
"  	c #FFFFFF",
". 	c #F3F3F3",
"+ 	c #E6E6E6",
"@ 	c #F2F2F2",
"# 	c #8B8B8B",
"$ 	c #000000",
"% 	c #7A7A7A",
"& 	c #7D7D7D",
"* 	c #E9E9E9",
"= 	c #CECECE",
"- 	c #868686",
"; 	c #303030",
"> 	c #7C7C7C",
", 	c #FEFEFE",
"' 	c #7E7E7E",
") 	c #D0D0D0",
"! 	c #8E8E8E",
"~ 	c #737373",
"{ 	c #FFFFFE",
"] 	c #848483",
"^ 	c #FBFBFB",
"/ 	c #818181",
"( 	c #818180",
"_ 	c #0D0D0D",
": 	c #BABABA",
"< 	c #B5B5B5",
"[ 	c #858585",
"} 	c #494948",
"| 	c #9B9B9B",
"1 	c #A7A7A7",
"2 	c #B4B4B4",
"3 	c #808080",
"4 	c #A5A5A4",
"5 	c #4E4E4E",
"6 	c #DEDEDE",
"7 	c #101010",
"8 	c #707070",
"9 	c #030303",
"0 	c #F1F1F0",
"a 	c #D5D5D5",
"b 	c #9D9D9D",
"c 	c #656565",
"d 	c #616161",
"e 	c #A7A7A6",
"f 	c #636363",
"g 	c #AFAFAE",
"h 	c #919191",
"i 	c #EEEEED",
"j 	c #F9C9CF",
"k 	c #F38495",
"l 	c #F8BCC4",
"m 	c #C5C5C5",
"n 	c #848484",
"o 	c #BFBFBE",
"p 	c #F9C2CA",
"q 	c #F38696",
"r 	c #BCBCBB",
"s 	c #C4C4C4",
"t 	c #F38E9D",
"u 	c #E60023",
"v 	c #F17386",
"w 	c #878787",
"x 	c #F28191",
"y 	c #E60325",
"z 	c #777777",
"A 	c #6C6C6C",
"B 	c #929292",
"C 	c #EA6E81",
"D 	c #F06C80",
"E 	c #EB3C56",
"F 	c #F38B9A",
"G 	c #F492A0",
"H 	c #F9C3CB",
"I 	c #727271",
"J 	c #6C6C6B",
"K 	c #F06E81",
"L 	c #EB3652",
"M 	c #ED4A62",
"N 	c #F494A2",
"O 	c #B0B0B0",
"P 	c #989898",
"Q 	c #131313",
"R 	c #6D6D6D",
"S 	c #E71031",
"T 	c #FDF1F2",
"U 	c #090909",
"V 	c #060606",
"W 	c #777776",
"X 	c #B1B1B0",
"Y 	c #535353",
"Z 	c #ABABAB",
"` 	c #D2D2D2",
" .	c #F6ABB5",
"..	c #FAD5DA",
"+.	c #A6A6A5",
"@.	c #828282",
"#.	c #D8D8D8",
"$.	c #8B8B8A",
"%.	c #F5F5F5",
"&.	c #EE566D",
"*.	c #F9C3CA",
"=.	c #FEFBFB",
"-.	c #A3A3A3",
";.	c #3B3B3B",
">.	c #C0C0BF",
",.	c #C3C3C2",
"'.	c #D6828E",
").	c #EB3B56",
"!.	c #EF6075",
"~.	c #C3C3C3",
"{.	c #E3E3E3",
"].	c #F17083",
"^.	c #F8F8F7",
"/.	c #F28494",
"(.	c #F27D8F",
"_.	c #2E2E2E",
":.	c #222222",
"<.	c #DCDCDC",
"[.	c #FDFDFD",
"}.	c #FBD9DD",
"|.	c #FBDCDF",
"1.	c #FDEDEE",
"2.	c #EEEEEE",
"3.	c #868685",
"4.	c #0A0A0A",
"5.	c #F4F4F4",
"6.	c #F9F9F9",
"7.	c #373737",
"8.	c #262626",
"9.	c #727272",
"0.	c #E8314D",
"a.	c #E92643",
"b.	c #F38596",
"c.	c #F496A4",
"d.	c #D8D6D5",
"e.	c #D8D8D7",
"f.	c #ACACAC",
"g.	c #3E3E3E",
"h.	c #B7B7B7",
"i.	c #DBDBDB",
"j.	c #484848",
"k.	c #797979",
"l.	c #C0C0C0",
"m.	c #666666",
"n.	c #5E5E5E",
"o.	c #626262",
"p.	c #575757",
"q.	c #FAFAF9",
"r.	c #575756",
"s.	c #A5A5A5",
"t.	c #D1D1D0",
"u.	c #2B2B2A",
"v.	c #A8A8A8",
"w.	c #FAFAFA",
"x.	c #ADADAD",
"y.	c #F5F5F4",
"z.	c #F1F1F1",
"A.	c #969696",
"B.	c #8F8F8F",
"C.	c #6F6F6F",
"D.	c #F7F7F6",
"E.	c #BDBDBD",
"F.	c #F9F9F8",
"G.	c #737372",
"H.	c #B4B4B3",
"I.	c #717171",
"J.	c #B6B6B5",
"K.	c #70706F",
"L.	c #C9C9C9",
"M.	c #C2C2C2",
"N.	c #8D8D8D",
"O.	c #CFCFCF",
"P.	c #FBFBFA",
"Q.	c #767676",
"R.	c #888887",
"S.	c #FDFDFC",
"T.	c #7F7F7E",
"U.	c #80807F",
"V.	c #8E8E8D",
"W.	c #6D6D6C",
"X.	c #585857",
"Y.	c #B3B3B3",
"Z.	c #ADADAC",
"`.	c #CDCDCD",
" +	c #A0A09F",
".+	c #9E9E9E",
"++	c #5A5A5A",
"@+	c #545454",
"#+	c #454545",
"$+	c #757537",
"%+	c #B5B525",
"&+	c #848433",
"*+	c #4D4D4C",
"=+	c #7A7A36",
"-+	c #7E7E35",
";+	c #B9B9B8",
">+	c #7A7A79",
",+	c #F3F3F2",
"'+	c #B9B9B9",
")+	c #BEBEBE",
"!+	c #6B6B15",
"~+	c #FAFA33",
"{+	c #8B8B1C",
"]+	c #747417",
"^+	c #7E7E19",
"/+	c #E6E6E5",
"(+	c #757575",
"_+	c #2D2D2D",
":+	c #383837",
"<+	c #D1D1D1",
"[+	c #EBEBEB",
"}+	c #DCDCDB",
"|+	c #151515",
"1+	c #9A9A9A",
"2+	c #161616",
"3+	c #6B6B17",
"4+	c #F6F632",
"5+	c #8B8B1D",
"6+	c #757519",
"7+	c #7E7E1B",
"8+	c #E5E5E5",
"9+	c #1B1B1B",
"0+	c #949494",
"a+	c #4C4C4C",
"b+	c #787877",
"c+	c #B2B2B1",
"d+	c #D6D6D5",
"e+	c #D9D9D8",
"f+	c #D4D4D3",
"g+	c #B2B2B2",
"h+	c #969695",
"i+	c #999999",
"j+	c #676767",
"k+	c #7F7F7F",
"l+	c #656564",
"m+	c #F8F8F8",
"n+	c #BDBDBC",
"o+	c #6A6A69",
"p+	c #686868",
"q+	c #6B6B6A",
"r+	c #AEAEAE",
"s+	c #505050",
"t+	c #545453",
"u+	c #4F4F4F",
"v+	c #383838",
"w+	c #E4E4E4",
"x+	c #C6C6C6",
"y+	c #020202",
"z+	c #1D1D1C",
"A+	c #212121",
"B+	c #C1C1C1",
"C+	c #191919",
"D+	c #9F9F9F",
"E+	c #1F1F1F",
"F+	c #747473",
"G+	c #DFDFDE",
"H+	c #242424",
"I+	c #0F0F0F",
"J+	c #888888",
"K+	c #1E1E1E",
"L+	c #1A1A1A",
"M+	c #070707",
"N+	c #6E6E6D",
"O+	c #141413",
"P+	c #747474",
"Q+	c #FEFEFD",
"R+	c #878786",
"S+	c #EDEDEC",
"T+	c #696968",
"U+	c #0C0C0C",
"V+	c #E4E4E3",
"W+	c #3A3A3A",
"X+	c #292929",
"Y+	c #959595",
"                                                                                                                                ",
"                            . + + + + + + + + + @                   @ + + + + + + + + + + + + + + .                             ",
"                            # $ $ $ $ $ $ $ $ $ %                   & $ $ $ $ $ $ $ $ $ $ $ $ $ $ #                             ",
"                  * = = = = - ; ; ; ; ; ; ; ; ; > = = ,   + = = = = ' ; ; ; ; ; ; ; ; ; ; ; ; ; ; - = )                         ",
"                  ! $ $ $ $ ~ { { { { { { { { { ] $ $ ^   / $ $ $ $ ( { { { { { { { { { { { { { { ~ $ _                         ",
"              : < [ } } } } | { { { { { { { { { 1 } } 2 < 3 } } } } 4 { { { { { { { { { { { { { { | } 5 < < 6                   ",
"              7 $ 8 { { { { { { { { { { { { { { { { { 9 $ & { { { { { { { { { { { { { { { { { { { { { 0 $ $ !                   ",
"        a b b c d e { { { { { { { { { { { { { { { { { f d g { { { { { { { { { { { { { { { { { { { { { 0 $ $ !                   ",
"        h $ $ i { { { { { { { { { { { { { { { { { { { { { { { { { { { { { { { { { { { { { { { { { { { 0 $ $ !                   ",
"        h $ $ i { j k k k k l { { { { m n n n n o { { { { p k k k k k k q { { { { { { { { { { { { r n ] % % s                   ",
"        h $ $ i { t u u u u v { { { { w $ $ $ $ % { { { { x u u u u u u y { { { { { { { { { { { { ~ $ _                         ",
"    z A > B B C D E u u F G H { { I J ' B B 9 $ % { { K D L u u u u M G N { { { { { { { O J J J J / B P                         ",
"    Q $ R { { S u u u u T { { { { U $ z     V $ % { { y u u u u u u x { { { { { { { { { W $ $ $ $ #                             ",
"    Q $ R { { S u u u u T { X Y Y 1 Z `     V $ % { { y u u u u  . ...{ { { { +.Y Y Y Y @.Z Z Z Z #.                            ",
"    Q $ R { { S u u u u T { $.$ $ %.        V $ % { { y u u u u { { { { { { { % $ $ $ $ w                                       ",
"    Q $ R { { S u &.*.*.=.{ $.$ $ %.  -.;.;.>.,.'.).).u u !.*.*.{ { | ;.;.;.;.@.~.~.~.~.{.                                      ",
"    Q $ R { { S u ].{ { { { $.$ $ %.  w $ $ ^.{ /.u u u u (.{ { { { & $ $ $ $ n                                                 ",
"    Q $ R { { S u ].{ { _.:.W <.<.[.  w $ $ ^.{ /.u u }.|.1.{ { :.:.3 <.<.<.<.2.                                                ",
"    Q $ R { { S u ].{ { _ $ ~         w $ $ ^.{ /.u u =.{ { { { $ $ /                                                           ",
"    Q $ R { { S u ].{ { _ $ ~         w $ $ ^.{ /.u u =.{ 3.4.4.5.5.6.                                                          ",
"    Q $ R { { S u ].{ { _ $ ~         w $ $ ^.{ /.u u =.{ ( $ $                                                                 ",
"    Q $ R { { S u ].{ { _ $ ~         w $ $ ^.{ /.u u =.{ ( $ $                                                                 ",
"    7.8.9.#.#.0.a.b.{ { _ $ ~         w $ $ ^.{ c.a.a.d.e.3 8.8.                                                                ",
"        h $ $ i { { { { _ $ ~         w $ $ ^.{ { { { 9 $ &                                                                     ",
"        f.g.g.h.>.i.{ { j.g.k.l.l.l.l.m.$ $ ^.{ { { { 9 $ n.l.l.                                                                ",
"              7 $ 8 { { { { $.$ $ $ $ $ $ $ ^.{ { { { 9 $ $ $ $                                                                 ",
"              o.p.% 1 1 q.{ $.$ $ Y r.r.r.r.s.1 t.{ { 9 $ u.r.r.1 1 1 1 v.                            w.1 1 1 1 x.              ",
"                  ! $ $ 0 { $.$ $ y.{ { { { V $ % { { 9 $ & { { $ $ $ $ 9                             z.$ $ $ $ 7               ",
"              A.B./ C.C.D.{ E.C.C.F.{ { { { G.C.H.{ { I.C.J.{ { C.C.C.C.K.B.B.L.                  M.B.N.C.C.C.C.I.B.B.O.        ",
"              7 $ 8 { { { { { { { { { { { { { { { { { { { { { { { { { { P.$ $ n                   ~ $ _ { { { { i $ $ h         ",
"        s Q.Q.- R.r { { { { { { { { { { { { { { { { { { { { { { { { { { S.R.R.T.Q.%         6.Q.Q.U.R.V.{ { { { D.R.R.' Q./     ",
"        h $ $ i { { { { { { { { { { { { { { { { { { { { { { { { { { { { { { { % $ V         %.$ $ $.{ { { { { { { { { W.$ Q     ",
"        h $ $ X.n.4 { { { { { { { { { Y.n.n.n.n.n.n.n.n.n.Z.{ { { { { { { { { `. +.+n.n.n.n.++$ $ $.{ { { { { { { { { W.$ Q     ",
"        h $ $ $ $ 8 { { { { { { { { { w $ $ $ $ $ $ $ $ $ & { { { { { { { { { { { ^.$ $ $ $ $ $ $ $.{ { { { { { { { { W.$ Q     ",
"    @+#+$+%+%+%+%+&+#+#+y.{ { { { *+#+=+%+%+%+%+%+%+%+%+%+-+#+#+{ { { { { { { { { S.;+;+;+;+;+;+;+>+#+#+#+#+Z.{ ,+#+#+w '+)+    ",
"    Q $ !+~+~+~+~+{+$ $ 0 { { { { U $ ]+~+~+~+~+~+~+~+~+~+^+$ $ { { { { { { { { { { { { { { { { { ~ $ $ $ $ V.{ i $ $ h         ",
"    Q $ !+~+~+~+~+{+$ $ 0 { { { { U $ ]+~+~+~+~+~+~+~+~+~+^+$ $ { { { { { { { { { { { { { { { { { /+t.t.t.t.(+_+:+<+<+[+        ",
"    Q $ !+~+~+~+~+{+$ $ 0 { { { { U $ ]+~+~+~+~+~+~+~+~+~+^+$ $ { { { { { { { { { { { { { { { { { { { { { { 8 $ 7               ",
"    Q $ !+~+~+~+~+{+$ $ 0 { { { { U $ ]+~+~+~+~+~+~+~+~+~+^+$ $ { { { { { { { { { { { { { { { { { { { { { { ,+* }+|+|+1+        ",
"    2+9 3+4+4+4+4+5+9 9 0 { { { { _ 9 6+4+4+4+4+4+4+4+4+4+7+9 9 { { { { { { { { { { { { { { { { { { { { { { { { i $ $ h         ",
"        h $ $ $ $ 8 { { { { { { { { { w $ $ $ $ $ $ $ $ $ & { { { { { { { { { { { { { { { { { { { { { { { { { { i $ $ h         ",
"    8+{.N.9+9+9+9+U.{ { { { { { { { { 0+9+9+9+9+9+9+9+9+9+# { { { { { { { { { { { { { { { { { { { { { { { { { { i $ $ h         ",
"    Q $ W.{ { { { { { { { { { { { { { { { { { { { { { { { { { { { { { { { { { { { { { { { { { { { { { { { { { { i $ $ h         ",
"    Q $ W.{ { { { { { { { { { { { { { { { { { { { { { { { { { { { { { { { { { { { { { { { { { { { { { { { { { { i $ $ h         ",
"    Q $ W.{ { { { { { { { { { { { { { { { { { { { { { { { { { { { { { { { { { { { { { { { { { { { { { { { { { { i $ $ h         ",
"    ++a+b+c+c+q.{ { { { J.c+c+c+c+c+c+d+{ { { { { { { { { e+c+c+{ { { { { { { { { { { { { { { { { { { { { { f+c+Z a+a+g+        ",
"        h $ $ i { { { { _ $ $ $ $ $ $ W { { { { { { { { { ( $ $ { { { { { { { { { { { { { { { { { { { { { { 8 $ 7               ",
"        E.c c h+i+i+i+i+j+c c c c c c & i+i+i+i+i+i+i+i+i+k+l+l+{ { { { { { { { { { { { { { { { { { { { { { 8 $ 7               ",
"              7 $ $ $ $ z.            w $ $ $ $ $ $ $ $ $ & { { { { { { { { { { { { { { { { { { { { { { { { 8 $ 7               ",
"              [ & & & & m+            w $ $ >+& & & & & & n+{ { { { { { { { { { { { { { { { { { { { { ^.( ( k+& [               ",
"                                      w $ $ ^.{ { { { { { { { { { { { { { { { { { { { { { { { { { { { 0 $ $ !                   ",
"                                      `.A.A.o+p+X { { { { { { { { { { { { { { { { { { { { { F.p+p+p+p+q+A.A.)                   ",
"                                            V $ % { { { { { { { { { { { { { { { { { { { { { y.$ $ $ $ _                         ",
"                                            O r+/ s+s+s+s+s+s+s+{ { { { { { { { { q.s+s+s+s+t+r+r+u+$ _                         ",
"                                                n $ $ $ $ $ $ $ { { { { { { { { { ^.$ $ $ $ U     ~ $ _                         ",
"                  1 v+v+v+v+v+v+v+v+v+v+v+v+6.  w+x+x+y+$ o.x+x+z+z+z+z+z+z+z+z+z+A+x+x+x+x+B+v+v+C+$ y+v+v+1                   ",
"                  ! $ $ $ $ $ $ $ $ $ $ $ $ m+        9 $ &     $ $ $ $ $ $ $ $ $ V         %.$ $ $ $ $ $ $ !                   ",
"        D+E+E+E+E+F+G+G+G+G+k.$ $ d+G+G+G+G+H+E+E+E+E+$ $ I+E+E+w.w.w.w.w.w.w.w.w.w.    J+E+K+$ $ k.G+G+G+G+F+E+E+E+E+D+        ",
"        h $ $ $ $ 8 { { { { $.$ $ y.{ { { { V $ $ $ $ $ $ $ $ $                         z $ $ $ $ $.{ { { { 8 $ $ $ $ h         ",
"    L+M+N+{ { 7 $ 8 { { O+M+P+D.D.Q+{ { { { ^.D.D.D.D.D.D.D.D.D.M+M+n             m+M+M+R+{ i $ $ $.{ { { { 8 $ 7 { { N+M+L+    ",
"    Q $ c S+S+I+$ T+S+S+U+$ J S+S+S+S+S+S+S+S+S+S+S+S+S+S+S+S+S+$ $ /             m+$ $ ' S+V+$ $ / S+S+S+S+T+$ I+S+S+c $ Q     ",
"    Q $ $ $ $ $ $ $ $ $ $ $ $ $ $ $ $ $ $ $ $ $ $ $ $ $ $ $ $ $ $ $ /             m+$ $ $ $ $ $ $ $ $ $ $ $ $ $ $ $ $ $ $ Q     ",
"    W+X+X+X+X+X+X+X+X+X+X+X+X+X+X+X+X+X+X+X+X+X+X+X+X+X+X+X+X+X+X+X+Y+            6.X+X+X+X+X+X+X+X+X+X+X+X+X+X+X+X+X+X+X+W+    ",
"                                                                                                                                "};
