/* XPM */
static char * Bunny_Left_Bottom_Half_xpm[] = {
"64 64 152 2",
"  	c #FFFFFF",
". 	c #919191",
"+ 	c #000000",
"@ 	c #585857",
"# 	c #5E5E5E",
"$ 	c #A5A5A4",
"% 	c #FFFFFE",
"& 	c #B3B3B3",
"* 	c #ADADAC",
"= 	c #CDCDCD",
"- 	c #A0A09F",
"; 	c #9E9E9E",
"> 	c #5A5A5A",
", 	c #8B8B8A",
"' 	c #6D6D6C",
") 	c #131313",
"! 	c #707070",
"~ 	c #878787",
"{ 	c #7D7D7D",
"] 	c #F8F8F7",
"^ 	c #545454",
"/ 	c #454545",
"( 	c #757537",
"_ 	c #B5B525",
": 	c #848433",
"< 	c #F5F5F4",
"[ 	c #4D4D4C",
"} 	c #7A7A36",
"| 	c #7E7E35",
"1 	c #FDFDFC",
"2 	c #B9B9B8",
"3 	c #7A7A79",
"4 	c #F3F3F2",
"5 	c #B9B9B9",
"6 	c #BEBEBE",
"7 	c #6B6B15",
"8 	c #FAFA33",
"9 	c #8B8B1C",
"0 	c #F1F1F0",
"a 	c #090909",
"b 	c #747417",
"c 	c #7E7E19",
"d 	c #737373",
"e 	c #8E8E8D",
"f 	c #EEEEED",
"g 	c #E6E6E5",
"h 	c #D1D1D0",
"i 	c #757575",
"j 	c #2D2D2D",
"k 	c #383837",
"l 	c #D1D1D1",
"m 	c #EBEBEB",
"n 	c #101010",
"o 	c #E9E9E9",
"p 	c #DCDCDB",
"q 	c #151515",
"r 	c #9A9A9A",
"s 	c #161616",
"t 	c #030303",
"u 	c #6B6B17",
"v 	c #F6F632",
"w 	c #8B8B1D",
"x 	c #0D0D0D",
"y 	c #757519",
"z 	c #7E7E1B",
"A 	c #E5E5E5",
"B 	c #E3E3E3",
"C 	c #8D8D8D",
"D 	c #1B1B1B",
"E 	c #80807F",
"F 	c #949494",
"G 	c #8B8B8B",
"H 	c #4C4C4C",
"I 	c #787877",
"J 	c #B2B2B1",
"K 	c #FAFAF9",
"L 	c #B6B6B5",
"M 	c #D6D6D5",
"N 	c #D9D9D8",
"O 	c #D4D4D3",
"P 	c #ABABAB",
"Q 	c #B2B2B2",
"R 	c #777776",
"S 	c #818180",
"T 	c #BDBDBD",
"U 	c #656565",
"V 	c #969695",
"W 	c #999999",
"X 	c #676767",
"Y 	c #7F7F7F",
"Z 	c #656564",
"` 	c #F1F1F1",
" .	c #858585",
"..	c #F8F8F8",
"+.	c #BDBDBC",
"@.	c #8E8E8E",
"#.	c #969696",
"$.	c #6A6A69",
"%.	c #686868",
"&.	c #B1B1B0",
"*.	c #F9F9F8",
"=.	c #6B6B6A",
"-.	c #D0D0D0",
";.	c #060606",
">.	c #7A7A7A",
",.	c #B0B0B0",
"'.	c #AEAEAE",
").	c #818181",
"!.	c #505050",
"~.	c #545453",
"{.	c #4F4F4F",
"].	c #848484",
"^.	c #A7A7A7",
"/.	c #383838",
"(.	c #F9F9F9",
"_.	c #E4E4E4",
":.	c #C6C6C6",
"<.	c #020202",
"[.	c #626262",
"}.	c #1D1D1C",
"|.	c #212121",
"1.	c #C1C1C1",
"2.	c #191919",
"3.	c #F5F5F5",
"4.	c #9F9F9F",
"5.	c #1F1F1F",
"6.	c #747473",
"7.	c #DFDFDE",
"8.	c #797979",
"9.	c #242424",
"0.	c #0F0F0F",
"a.	c #FAFAFA",
"b.	c #888888",
"c.	c #1E1E1E",
"d.	c #777777",
"e.	c #1A1A1A",
"f.	c #070707",
"g.	c #6E6E6D",
"h.	c #F7F7F6",
"i.	c #141413",
"j.	c #747474",
"k.	c #FEFEFD",
"l.	c #878786",
"m.	c #EDEDEC",
"n.	c #696968",
"o.	c #0C0C0C",
"p.	c #6C6C6B",
"q.	c #7E7E7E",
"r.	c #E4E4E3",
"s.	c #3A3A3A",
"t.	c #292929",
"u.	c #959595",
"        . + + @ # $ % % % % % % % % % & # # # # # # # # # * % % % % % % % % % = - ; # # # # > + + , % % % % % % % % % ' + )     ",
"        . + + + + ! % % % % % % % % % ~ + + + + + + + + + { % % % % % % % % % % % ] + + + + + + + , % % % % % % % % % ' + )     ",
"    ^ / ( _ _ _ _ : / / < % % % % [ / } _ _ _ _ _ _ _ _ _ | / / % % % % % % % % % 1 2 2 2 2 2 2 2 3 / / / / * % 4 / / ~ 5 6     ",
"    ) + 7 8 8 8 8 9 + + 0 % % % % a + b 8 8 8 8 8 8 8 8 8 c + + % % % % % % % % % % % % % % % % % d + + + + e % f + + .         ",
"    ) + 7 8 8 8 8 9 + + 0 % % % % a + b 8 8 8 8 8 8 8 8 8 c + + % % % % % % % % % % % % % % % % % g h h h h i j k l l m         ",
"    ) + 7 8 8 8 8 9 + + 0 % % % % a + b 8 8 8 8 8 8 8 8 8 c + + % % % % % % % % % % % % % % % % % % % % % % ! + n               ",
"    ) + 7 8 8 8 8 9 + + 0 % % % % a + b 8 8 8 8 8 8 8 8 8 c + + % % % % % % % % % % % % % % % % % % % % % % 4 o p q q r         ",
"    s t u v v v v w t t 0 % % % % x t y v v v v v v v v v z t t % % % % % % % % % % % % % % % % % % % % % % % % f + + .         ",
"        . + + + + ! % % % % % % % % % ~ + + + + + + + + + { % % % % % % % % % % % % % % % % % % % % % % % % % % f + + .         ",
"    A B C D D D D E % % % % % % % % % F D D D D D D D D D G % % % % % % % % % % % % % % % % % % % % % % % % % % f + + .         ",
"    ) + ' % % % % % % % % % % % % % % % % % % % % % % % % % % % % % % % % % % % % % % % % % % % % % % % % % % % f + + .         ",
"    ) + ' % % % % % % % % % % % % % % % % % % % % % % % % % % % % % % % % % % % % % % % % % % % % % % % % % % % f + + .         ",
"    ) + ' % % % % % % % % % % % % % % % % % % % % % % % % % % % % % % % % % % % % % % % % % % % % % % % % % % % f + + .         ",
"    > H I J J K % % % % L J J J J J J M % % % % % % % % % N J J % % % % % % % % % % % % % % % % % % % % % % O J P H H Q         ",
"        . + + f % % % % x + + + + + + R % % % % % % % % % S + + % % % % % % % % % % % % % % % % % % % % % % ! + n               ",
"        T U U V W W W W X U U U U U U { W W W W W W W W W Y Z Z % % % % % % % % % % % % % % % % % % % % % % ! + n               ",
"              n + + + + `             ~ + + + + + + + + + { % % % % % % % % % % % % % % % % % % % % % % % % ! + n               ",
"               .{ { { { ..            ~ + + 3 { { { { { { +.% % % % % % % % % % % % % % % % % % % % % ] S S Y {  .              ",
"                                      ~ + + ] % % % % % % % % % % % % % % % % % % % % % % % % % % % % 0 + + @.                  ",
"                                      = #.#.$.%.&.% % % % % % % % % % % % % % % % % % % % % *.%.%.%.%.=.#.#.-.                  ",
"                                            ;.+ >.% % % % % % % % % % % % % % % % % % % % % < + + + + x                         ",
"                                            ,.'.).!.!.!.!.!.!.!.% % % % % % % % % K !.!.!.!.~.'.'.{.+ x                         ",
"                                                ].+ + + + + + + % % % % % % % % % ] + + + + a     d + x                         ",
"                  ^././././././././././././.(.  _.:.:.<.+ [.:.:.}.}.}.}.}.}.}.}.}.|.:.:.:.:.1././.2.+ <././.^.                  ",
"                  @.+ + + + + + + + + + + + ..        t + {     + + + + + + + + + ;.        3.+ + + + + + + @.                  ",
"        4.5.5.5.5.6.7.7.7.7.8.+ + M 7.7.7.7.9.5.5.5.5.+ + 0.5.5.a.a.a.a.a.a.a.a.a.a.    b.5.c.+ + 8.7.7.7.7.6.5.5.5.5.4.        ",
"        . + + + + ! % % % % , + + < % % % % ;.+ + + + + + + + +                         d.+ + + + , % % % % ! + + + + .         ",
"    e.f.g.h.h.n + ! % % i.f.j.h.h.k.% % % % ] h.h.h.h.h.h.h.h.h.f.f.].            ..f.f.l.h.f + + , % % % % ! + n h.h.g.f.e.    ",
"    ) + U m.m.0.+ n.m.m.o.+ p.m.m.m.m.m.m.m.m.m.m.m.m.m.m.m.m.m.+ + ).            ..+ + q.m.r.+ + ).m.m.m.m.n.+ 0.m.m.U + )     ",
"    ) + + + + + + + + + + + + + + + + + + + + + + + + + + + + + + + ).            ..+ + + + + + + + + + + + + + + + + + + )     ",
"    s.t.t.t.t.t.t.t.t.t.t.t.t.t.t.t.t.t.t.t.t.t.t.t.t.t.t.t.t.t.t.t.u.            (.t.t.t.t.t.t.t.t.t.t.t.t.t.t.t.t.t.t.t.s.    ",
"                                                                                                                                ",
"                                                                                                                                ",
"                                                                                                                                ",
"                                                                                                                                ",
"                                                                                                                                ",
"                                                                                                                                ",
"                                                                                                                                ",
"                                                                                                                                ",
"                                                                                                                                ",
"                                                                                                                                ",
"                                                                                                                                ",
"                                                                                                                                ",
"                                                                                                                                ",
"                                                                                                                                ",
"                                                                                                                                ",
"                                                                                                                                ",
"                                                                                                                                ",
"                                                                                                                                ",
"                                                                                                                                ",
"                                                                                                                                ",
"                                                                                                                                ",
"                                                                                                                                ",
"                                                                                                                                ",
"                                                                                                                                ",
"                                                                                                                                ",
"                                                                                                                                ",
"                                                                                                                                ",
"                                                                                                                                ",
"                                                                                                                                ",
"                                                                                                                                ",
"                                                                                                                                ",
"                                                                                                                                ",
"                                                                                                                                "};
