/* XPM */
static char * Bunny_Left_Right_Half_xpm[] = {
"64 64 160 2",
"  	c #FFFFFF",
". 	c #F2F2F2",
"+ 	c #E6E6E6",
"@ 	c #F3F3F3",
"# 	c #7D7D7D",
"$ 	c #000000",
"% 	c #8B8B8B",
"& 	c #CECECE",
"* 	c #7E7E7E",
"= 	c #303030",
"- 	c #868686",
"; 	c #D0D0D0",
"> 	c #818180",
", 	c #FFFFFE",
"' 	c #737373",
") 	c #0D0D0D",
"! 	c #494948",
"~ 	c #A5A5A4",
"{ 	c #9B9B9B",
"] 	c #4E4E4E",
"^ 	c #B5B5B5",
"/ 	c #DEDEDE",
"( 	c #F1F1F0",
"_ 	c #8E8E8E",
": 	c #F38495",
"< 	c #F38696",
"[ 	c #BCBCBB",
"} 	c #848484",
"| 	c #848483",
"1 	c #7A7A7A",
"2 	c #C4C4C4",
"3 	c #E60023",
"4 	c #E60325",
"5 	c #ED4A62",
"6 	c #F492A0",
"7 	c #F494A2",
"8 	c #B0B0B0",
"9 	c #6C6C6B",
"0 	c #818181",
"a 	c #929292",
"b 	c #989898",
"c 	c #F28191",
"d 	c #777776",
"e 	c #F6ABB5",
"f 	c #FAD5DA",
"g 	c #A6A6A5",
"h 	c #535353",
"i 	c #828282",
"j 	c #ABABAB",
"k 	c #D8D8D8",
"l 	c #878787",
"m 	c #3B3B3B",
"n 	c #C3C3C3",
"o 	c #E3E3E3",
"p 	c #222222",
"q 	c #808080",
"r 	c #DCDCDC",
"s 	c #EEEEEE",
"t 	c #F4F4F4",
"u 	c #F9F9F9",
"v 	c #A7A7A7",
"w 	c #A8A8A8",
"x 	c #FAFAFA",
"y 	c #ADADAD",
"z 	c #030303",
"A 	c #F1F1F1",
"B 	c #101010",
"C 	c #6F6F6F",
"D 	c #70706F",
"E 	c #8F8F8F",
"F 	c #C9C9C9",
"G 	c #C2C2C2",
"H 	c #8D8D8D",
"I 	c #717171",
"J 	c #CFCFCF",
"K 	c #FBFBFA",
"L 	c #EEEEED",
"M 	c #919191",
"N 	c #FDFDFC",
"O 	c #888887",
"P 	c #7F7F7E",
"Q 	c #767676",
"R 	c #80807F",
"S 	c #8E8E8D",
"T 	c #F7F7F6",
"U 	c #060606",
"V 	c #F5F5F5",
"W 	c #8B8B8A",
"X 	c #6D6D6C",
"Y 	c #131313",
"Z 	c #CDCDCD",
"` 	c #A0A09F",
" .	c #9E9E9E",
"..	c #5E5E5E",
"+.	c #5A5A5A",
"@.	c #F8F8F7",
"#.	c #B9B9B8",
"$.	c #7A7A79",
"%.	c #454545",
"&.	c #ADADAC",
"*.	c #F3F3F2",
"=.	c #B9B9B9",
"-.	c #BEBEBE",
";.	c #E6E6E5",
">.	c #D1D1D0",
",.	c #757575",
"'.	c #2D2D2D",
").	c #383837",
"!.	c #D1D1D1",
"~.	c #EBEBEB",
"{.	c #707070",
"].	c #E9E9E9",
"^.	c #DCDCDB",
"/.	c #151515",
"(.	c #9A9A9A",
"_.	c #D4D4D3",
":.	c #B2B2B1",
"<.	c #4C4C4C",
"[.	c #B2B2B2",
"}.	c #7F7F7F",
"|.	c #858585",
"1.	c #F9F9F8",
"2.	c #686868",
"3.	c #6B6B6A",
"4.	c #969696",
"5.	c #F5F5F4",
"6.	c #FAFAF9",
"7.	c #505050",
"8.	c #545453",
"9.	c #AEAEAE",
"0.	c #4F4F4F",
"a.	c #090909",
"b.	c #1D1D1C",
"c.	c #212121",
"d.	c #C6C6C6",
"e.	c #C1C1C1",
"f.	c #383838",
"g.	c #191919",
"h.	c #020202",
"i.	c #888888",
"j.	c #1F1F1F",
"k.	c #1E1E1E",
"l.	c #797979",
"m.	c #DFDFDE",
"n.	c #747473",
"o.	c #9F9F9F",
"p.	c #777777",
"q.	c #070707",
"r.	c #F8F8F8",
"s.	c #878786",
"t.	c #6E6E6D",
"u.	c #1A1A1A",
"v.	c #EDEDEC",
"w.	c #E4E4E3",
"x.	c #696968",
"y.	c #0F0F0F",
"z.	c #656565",
"A.	c #292929",
"B.	c #959595",
"C.	c #3A3A3A",
"                                                                                                                                ",
"    . + + + + + + + + + + + + + + @                                                                                             ",
"    # $ $ $ $ $ $ $ $ $ $ $ $ $ $ %                                                                                             ",
"& & * = = = = = = = = = = = = = = - & ;                                                                                         ",
"$ $ > , , , , , , , , , , , , , , ' $ )                                                                                         ",
"! ! ~ , , , , , , , , , , , , , , { ! ] ^ ^ /                                                                                   ",
", , , , , , , , , , , , , , , , , , , ( $ $ _                                                                                   ",
", , , , , , , , , , , , , , , , , , , ( $ $ _                                                                                   ",
", , , , , , , , , , , , , , , , , , , ( $ $ _                                                                                   ",
": : : : < , , , , , , , , , , , , [ } | 1 1 2                                                                                   ",
"3 3 3 3 4 , , , , , , , , , , , , ' $ )                                                                                         ",
"3 3 5 6 7 , , , , , , , 8 9 9 9 9 0 a b                                                                                         ",
"3 3 c , , , , , , , , , d $ $ $ $ %                                                                                             ",
"e e f , , , , g h h h h i j j j j k                                                                                             ",
", , , , , , , 1 $ $ $ $ l                                                                                                       ",
", , { m m m m i n n n n o                                                                                                       ",
", , # $ $ $ $ }                                                                                                                 ",
"p p q r r r r s                                                                                                                 ",
"$ $ 0                                                                                                                           ",
"t t u                                                                                                                           ",
"                                                                                                                                ",
"                                                                                                                                ",
"                                                                                                                                ",
"                                                                                                                                ",
"                                                                                                                                ",
"                                                                                                                                ",
"v v v v w                             x v v v v y                                                                               ",
"$ $ $ $ z                             A $ $ $ $ B                                                                               ",
"C C C C D E E F                   G E H C C C C I E E J                                                                         ",
", , , , K $ $ }                   ' $ ) , , , , L $ $ M                                                                         ",
", , , , N O O P Q 1         u Q Q R O S , , , , T O O * Q 0                                                                     ",
", , , , , , , 1 $ U         V $ $ W , , , , , , , , , X $ Y                                                                     ",
", , , , , , , Z `  .........+.$ $ W , , , , , , , , , X $ Y                                                                     ",
", , , , , , , , , @.$ $ $ $ $ $ $ W , , , , , , , , , X $ Y                                                                     ",
", , , , , , , , , N #.#.#.#.#.#.#.$.%.%.%.%.&., *.%.%.l =.-.                                                                    ",
", , , , , , , , , , , , , , , , , ' $ $ $ $ S , L $ $ M                                                                         ",
", , , , , , , , , , , , , , , , , ;.>.>.>.>.,.'.).!.!.~.                                                                        ",
", , , , , , , , , , , , , , , , , , , , , , {.$ B                                                                               ",
", , , , , , , , , , , , , , , , , , , , , , *.].^././.(.                                                                        ",
", , , , , , , , , , , , , , , , , , , , , , , , L $ $ M                                                                         ",
", , , , , , , , , , , , , , , , , , , , , , , , L $ $ M                                                                         ",
", , , , , , , , , , , , , , , , , , , , , , , , L $ $ M                                                                         ",
", , , , , , , , , , , , , , , , , , , , , , , , L $ $ M                                                                         ",
", , , , , , , , , , , , , , , , , , , , , , , , L $ $ M                                                                         ",
", , , , , , , , , , , , , , , , , , , , , , , , L $ $ M                                                                         ",
", , , , , , , , , , , , , , , , , , , , , , _.:.j <.<.[.                                                                        ",
", , , , , , , , , , , , , , , , , , , , , , {.$ B                                                                               ",
", , , , , , , , , , , , , , , , , , , , , , {.$ B                                                                               ",
", , , , , , , , , , , , , , , , , , , , , , {.$ B                                                                               ",
", , , , , , , , , , , , , , , , , , , @.> > }.# |.                                                                              ",
", , , , , , , , , , , , , , , , , , , ( $ $ _                                                                                   ",
", , , , , , , , , , , , , , 1.2.2.2.2.3.4.4.;                                                                                   ",
", , , , , , , , , , , , , , 5.$ $ $ $ )                                                                                         ",
", , , , , , , , , 6.7.7.7.7.8.9.9.0.$ )                                                                                         ",
", , , , , , , , , @.$ $ $ $ a.    ' $ )                                                                                         ",
"b.b.b.b.b.b.b.b.b.c.d.d.d.d.e.f.f.g.$ h.f.f.v                                                                                   ",
"$ $ $ $ $ $ $ $ $ U         V $ $ $ $ $ $ $ _                                                                                   ",
"x x x x x x x x x x     i.j.k.$ $ l.m.m.m.m.n.j.j.j.j.o.                                                                        ",
"                        p.$ $ $ $ W , , , , {.$ $ $ $ M                                                                         ",
"q.q.}             r.q.q.s.T L $ $ W , , , , {.$ B T T t.q.u.                                                                    ",
"$ $ 0             r.$ $ * v.w.$ $ 0 v.v.v.v.x.$ y.v.v.z.$ Y                                                                     ",
"$ $ 0             r.$ $ $ $ $ $ $ $ $ $ $ $ $ $ $ $ $ $ $ Y                                                                     ",
"A.A.B.            u A.A.A.A.A.A.A.A.A.A.A.A.A.A.A.A.A.A.A.C.                                                                    ",
"                                                                                                                                "};
