/* XPM */
static char * Bunny_Right_Bottom_Half_xpm[] = {
"64 64 152 2",
"  	c #FFFFFF",
". 	c #131313",
"+ 	c #000000",
"@ 	c #6D6D6C",
"# 	c #FFFFFE",
"$ 	c #8B8B8A",
"% 	c #5A5A5A",
"& 	c #5E5E5E",
"* 	c #9E9E9E",
"= 	c #A0A09F",
"- 	c #CDCDCD",
"; 	c #ADADAC",
"> 	c #B3B3B3",
", 	c #A5A5A4",
"' 	c #585857",
") 	c #919191",
"! 	c #F8F8F7",
"~ 	c #7D7D7D",
"{ 	c #878787",
"] 	c #707070",
"^ 	c #BEBEBE",
"/ 	c #B9B9B9",
"( 	c #454545",
"_ 	c #F3F3F2",
": 	c #7A7A79",
"< 	c #B9B9B8",
"[ 	c #FDFDFC",
"} 	c #7E7E35",
"| 	c #B5B525",
"1 	c #7A7A36",
"2 	c #4D4D4C",
"3 	c #F5F5F4",
"4 	c #848433",
"5 	c #757537",
"6 	c #545454",
"7 	c #EEEEED",
"8 	c #8E8E8D",
"9 	c #737373",
"0 	c #7E7E19",
"a 	c #FAFA33",
"b 	c #747417",
"c 	c #090909",
"d 	c #F1F1F0",
"e 	c #8B8B1C",
"f 	c #6B6B15",
"g 	c #EBEBEB",
"h 	c #D1D1D1",
"i 	c #383837",
"j 	c #2D2D2D",
"k 	c #757575",
"l 	c #D1D1D0",
"m 	c #E6E6E5",
"n 	c #101010",
"o 	c #9A9A9A",
"p 	c #151515",
"q 	c #DCDCDB",
"r 	c #E9E9E9",
"s 	c #030303",
"t 	c #7E7E1B",
"u 	c #F6F632",
"v 	c #757519",
"w 	c #0D0D0D",
"x 	c #8B8B1D",
"y 	c #6B6B17",
"z 	c #161616",
"A 	c #8B8B8B",
"B 	c #1B1B1B",
"C 	c #949494",
"D 	c #80807F",
"E 	c #8D8D8D",
"F 	c #E3E3E3",
"G 	c #E5E5E5",
"H 	c #B2B2B2",
"I 	c #4C4C4C",
"J 	c #ABABAB",
"K 	c #B2B2B1",
"L 	c #D4D4D3",
"M 	c #D9D9D8",
"N 	c #D6D6D5",
"O 	c #B6B6B5",
"P 	c #FAFAF9",
"Q 	c #787877",
"R 	c #818180",
"S 	c #777776",
"T 	c #656564",
"U 	c #7F7F7F",
"V 	c #999999",
"W 	c #656565",
"X 	c #676767",
"Y 	c #969695",
"Z 	c #BDBDBD",
"` 	c #F1F1F1",
" .	c #858585",
"..	c #BDBDBC",
"+.	c #F8F8F8",
"@.	c #8E8E8E",
"#.	c #D0D0D0",
"$.	c #969696",
"%.	c #6B6B6A",
"&.	c #686868",
"*.	c #F9F9F8",
"=.	c #B1B1B0",
"-.	c #6A6A69",
";.	c #7A7A7A",
">.	c #060606",
",.	c #4F4F4F",
"'.	c #AEAEAE",
").	c #545453",
"!.	c #505050",
"~.	c #818181",
"{.	c #B0B0B0",
"].	c #848484",
"^.	c #A7A7A7",
"/.	c #383838",
"(.	c #020202",
"_.	c #191919",
":.	c #C1C1C1",
"<.	c #C6C6C6",
"[.	c #212121",
"}.	c #1D1D1C",
"|.	c #626262",
"1.	c #E4E4E4",
"2.	c #F9F9F9",
"3.	c #F5F5F5",
"4.	c #9F9F9F",
"5.	c #1F1F1F",
"6.	c #747473",
"7.	c #DFDFDE",
"8.	c #797979",
"9.	c #1E1E1E",
"0.	c #888888",
"a.	c #FAFAFA",
"b.	c #0F0F0F",
"c.	c #242424",
"d.	c #777777",
"e.	c #1A1A1A",
"f.	c #070707",
"g.	c #6E6E6D",
"h.	c #F7F7F6",
"i.	c #878786",
"j.	c #FEFEFD",
"k.	c #747474",
"l.	c #141413",
"m.	c #EDEDEC",
"n.	c #696968",
"o.	c #E4E4E3",
"p.	c #7E7E7E",
"q.	c #6C6C6B",
"r.	c #0C0C0C",
"s.	c #3A3A3A",
"t.	c #292929",
"u.	c #959595",
"                                                                                                                                ",
"    . + @ # # # # # # # # # $ + + % & & & & * = - # # # # # # # # # ; & & & & & & & & & > # # # # # # # # # , & ' + + )         ",
"    . + @ # # # # # # # # # $ + + + + + + + ! # # # # # # # # # # # ~ + + + + + + + + + { # # # # # # # # # ] + + + + )         ",
"    ^ / { ( ( _ # ; ( ( ( ( : < < < < < < < [ # # # # # # # # # ( ( } | | | | | | | | | 1 ( 2 # # # # 3 ( ( 4 | | | | 5 ( 6     ",
"        ) + + 7 # 8 + + + + 9 # # # # # # # # # # # # # # # # # + + 0 a a a a a a a a a b + c # # # # d + + e a a a a f + .     ",
"        g h h i j k l l l l m # # # # # # # # # # # # # # # # # + + 0 a a a a a a a a a b + c # # # # d + + e a a a a f + .     ",
"              n + ] # # # # # # # # # # # # # # # # # # # # # # + + 0 a a a a a a a a a b + c # # # # d + + e a a a a f + .     ",
"        o p p q r _ # # # # # # # # # # # # # # # # # # # # # # + + 0 a a a a a a a a a b + c # # # # d + + e a a a a f + .     ",
"        ) + + 7 # # # # # # # # # # # # # # # # # # # # # # # # s s t u u u u u u u u u v s w # # # # d s s x u u u u y s z     ",
"        ) + + 7 # # # # # # # # # # # # # # # # # # # # # # # # # # ~ + + + + + + + + + { # # # # # # # # # ] + + + + )         ",
"        ) + + 7 # # # # # # # # # # # # # # # # # # # # # # # # # # A B B B B B B B B B C # # # # # # # # # D B B B B E F G     ",
"        ) + + 7 # # # # # # # # # # # # # # # # # # # # # # # # # # # # # # # # # # # # # # # # # # # # # # # # # # # @ + .     ",
"        ) + + 7 # # # # # # # # # # # # # # # # # # # # # # # # # # # # # # # # # # # # # # # # # # # # # # # # # # # @ + .     ",
"        ) + + 7 # # # # # # # # # # # # # # # # # # # # # # # # # # # # # # # # # # # # # # # # # # # # # # # # # # # @ + .     ",
"        H I I J K L # # # # # # # # # # # # # # # # # # # # # # K K M # # # # # # # # # N K K K K K K O # # # # P K K Q I %     ",
"              n + ] # # # # # # # # # # # # # # # # # # # # # # + + R # # # # # # # # # S + + + + + + w # # # # 7 + + )         ",
"              n + ] # # # # # # # # # # # # # # # # # # # # # # T T U V V V V V V V V V ~ W W W W W W X V V V V Y W W Z         ",
"              n + ] # # # # # # # # # # # # # # # # # # # # # # # # ~ + + + + + + + + + {             ` + + + + n               ",
"               .~ U R R ! # # # # # # # # # # # # # # # # # # # # # ..~ ~ ~ ~ ~ ~ : + + {             +.~ ~ ~ ~  .              ",
"                  @.+ + d # # # # # # # # # # # # # # # # # # # # # # # # # # # # ! + + {                                       ",
"                  #.$.$.%.&.&.&.&.*.# # # # # # # # # # # # # # # # # # # # # =.&.-.$.$.-                                       ",
"                        w + + + + 3 # # # # # # # # # # # # # # # # # # # # # ;.+ >.                                            ",
"                        w + ,.'.'.).!.!.!.!.P # # # # # # # # # !.!.!.!.!.!.!.~.'.{.                                            ",
"                        w + 9 # # c + + + + ! # # # # # # # # # + + + + + + + ].                                                ",
"                  ^././.(.+ _././.:.<.<.<.<.[.}.}.}.}.}.}.}.}.}.<.<.|.+ (.<.<.1.  2././././././././././././.^.                  ",
"                  @.+ + + + + + + 3.        >.+ + + + + + + + + # # ~ + s         +.+ + + + + + + + + + + + @.                  ",
"        4.5.5.5.5.6.7.7.7.7.8.+ + 9.5.0.    a.a.a.a.a.a.a.a.a.a.5.5.b.+ + 5.5.5.5.c.7.7.7.7.N + + 8.7.7.7.7.6.5.5.5.5.4.        ",
"        ) + + + + ] # # # # $ + + + + d.                        + + + + + + + + + >.# # # # 3 + + $ # # # # ] + + + + )         ",
"    e.f.g.# # n + ] # # # # $ + + # h.i.f.f.+.            ].f.f.# # # # # # # # # ! # # # # j.h.h.k.f.l.# # ] + n # # g.f.e.    ",
"    . + W m.m.b.+ n.m.m.m.m.~.+ + o.m.p.+ + +.            ~.+ + m.m.m.m.m.m.m.m.m.m.m.m.m.m.m.m.m.q.+ r.m.m.n.+ b.m.m.W + .     ",
"    . + + + + + + + + + + + + + + + + + + + +.            ~.+ + + + + + + + + + + + + + + + + + + + + + + + + + + + + + + .     ",
"    s.t.t.t.t.t.t.t.t.t.t.t.t.t.t.t.t.t.t.t.2.            u.t.t.t.t.t.t.t.t.t.t.t.t.t.t.t.t.t.t.t.t.t.t.t.t.t.t.t.t.t.t.t.s.    ",
"                                                                                                                                ",
"                                                                                                                                ",
"                                                                                                                                ",
"                                                                                                                                ",
"                                                                                                                                ",
"                                                                                                                                ",
"                                                                                                                                ",
"                                                                                                                                ",
"                                                                                                                                ",
"                                                                                                                                ",
"                                                                                                                                ",
"                                                                                                                                ",
"                                                                                                                                ",
"                                                                                                                                ",
"                                                                                                                                ",
"                                                                                                                                ",
"                                                                                                                                ",
"                                                                                                                                ",
"                                                                                                                                ",
"                                                                                                                                ",
"                                                                                                                                ",
"                                                                                                                                ",
"                                                                                                                                ",
"                                                                                                                                ",
"                                                                                                                                ",
"                                                                                                                                ",
"                                                                                                                                ",
"                                                                                                                                ",
"                                                                                                                                ",
"                                                                                                                                ",
"                                                                                                                                ",
"                                                                                                                                "};
