/* XPM */
static char * Bunny_Left_Left_Half_xpm[] = {
"64 64 220 2",
"  	c #FFFFFF",
". 	c #F3F3F3",
"+ 	c #E6E6E6",
"@ 	c #F2F2F2",
"# 	c #8B8B8B",
"$ 	c #000000",
"% 	c #7A7A7A",
"& 	c #E9E9E9",
"* 	c #CECECE",
"= 	c #868686",
"- 	c #303030",
"; 	c #7C7C7C",
"> 	c #FEFEFE",
", 	c #8E8E8E",
"' 	c #737373",
") 	c #FFFFFE",
"! 	c #848483",
"~ 	c #FBFBFB",
"{ 	c #818181",
"] 	c #BABABA",
"^ 	c #B5B5B5",
"/ 	c #858585",
"( 	c #494948",
"_ 	c #9B9B9B",
": 	c #A7A7A7",
"< 	c #B4B4B4",
"[ 	c #808080",
"} 	c #101010",
"| 	c #707070",
"1 	c #030303",
"2 	c #7D7D7D",
"3 	c #D5D5D5",
"4 	c #9D9D9D",
"5 	c #656565",
"6 	c #616161",
"7 	c #A7A7A6",
"8 	c #636363",
"9 	c #AFAFAE",
"0 	c #919191",
"a 	c #EEEEED",
"b 	c #F9C9CF",
"c 	c #F38495",
"d 	c #F8BCC4",
"e 	c #C5C5C5",
"f 	c #848484",
"g 	c #BFBFBE",
"h 	c #F9C2CA",
"i 	c #F38E9D",
"j 	c #E60023",
"k 	c #F17386",
"l 	c #878787",
"m 	c #F28191",
"n 	c #777777",
"o 	c #6C6C6C",
"p 	c #929292",
"q 	c #EA6E81",
"r 	c #F06C80",
"s 	c #EB3C56",
"t 	c #F38B9A",
"u 	c #F492A0",
"v 	c #F9C3CB",
"w 	c #727271",
"x 	c #6C6C6B",
"y 	c #7E7E7E",
"z 	c #F06E81",
"A 	c #EB3652",
"B 	c #131313",
"C 	c #6D6D6D",
"D 	c #E71031",
"E 	c #FDF1F2",
"F 	c #090909",
"G 	c #060606",
"H 	c #E60325",
"I 	c #B1B1B0",
"J 	c #535353",
"K 	c #ABABAB",
"L 	c #D2D2D2",
"M 	c #8B8B8A",
"N 	c #F5F5F5",
"O 	c #EE566D",
"P 	c #F9C3CA",
"Q 	c #FEFBFB",
"R 	c #A3A3A3",
"S 	c #3B3B3B",
"T 	c #C0C0BF",
"U 	c #C3C3C2",
"V 	c #D6828E",
"W 	c #EB3B56",
"X 	c #EF6075",
"Y 	c #F17083",
"Z 	c #F8F8F7",
"` 	c #F28494",
" .	c #F27D8F",
"..	c #2E2E2E",
"+.	c #222222",
"@.	c #777776",
"#.	c #DCDCDC",
"$.	c #FDFDFD",
"%.	c #FBD9DD",
"&.	c #FBDCDF",
"*.	c #FDEDEE",
"=.	c #0D0D0D",
"-.	c #868685",
";.	c #0A0A0A",
">.	c #818180",
",.	c #373737",
"'.	c #262626",
").	c #727272",
"!.	c #D8D8D8",
"~.	c #E8314D",
"{.	c #E92643",
"].	c #F38596",
"^.	c #F496A4",
"/.	c #D8D6D5",
"(.	c #D8D8D7",
"_.	c #ACACAC",
":.	c #3E3E3E",
"<.	c #B7B7B7",
"[.	c #DBDBDB",
"}.	c #484848",
"|.	c #797979",
"1.	c #C0C0C0",
"2.	c #666666",
"3.	c #5E5E5E",
"4.	c #626262",
"5.	c #575757",
"6.	c #FAFAF9",
"7.	c #575756",
"8.	c #A5A5A5",
"9.	c #D1D1D0",
"0.	c #2B2B2A",
"a.	c #F1F1F0",
"b.	c #F5F5F4",
"c.	c #969696",
"d.	c #8F8F8F",
"e.	c #6F6F6F",
"f.	c #F7F7F6",
"g.	c #BDBDBD",
"h.	c #F9F9F8",
"i.	c #737372",
"j.	c #B4B4B3",
"k.	c #717171",
"l.	c #B6B6B5",
"m.	c #C4C4C4",
"n.	c #767676",
"o.	c #888887",
"p.	c #BCBCBB",
"q.	c #585857",
"r.	c #A5A5A4",
"s.	c #B3B3B3",
"t.	c #ADADAC",
"u.	c #545454",
"v.	c #454545",
"w.	c #757537",
"x.	c #B5B525",
"y.	c #848433",
"z.	c #4D4D4C",
"A.	c #7A7A36",
"B.	c #7E7E35",
"C.	c #6B6B15",
"D.	c #FAFA33",
"E.	c #8B8B1C",
"F.	c #747417",
"G.	c #7E7E19",
"H.	c #161616",
"I.	c #6B6B17",
"J.	c #F6F632",
"K.	c #8B8B1D",
"L.	c #757519",
"M.	c #7E7E1B",
"N.	c #E5E5E5",
"O.	c #E3E3E3",
"P.	c #8D8D8D",
"Q.	c #1B1B1B",
"R.	c #80807F",
"S.	c #949494",
"T.	c #6D6D6C",
"U.	c #5A5A5A",
"V.	c #4C4C4C",
"W.	c #787877",
"X.	c #B2B2B1",
"Y.	c #D6D6D5",
"Z.	c #D9D9D8",
"`.	c #969695",
" +	c #999999",
".+	c #676767",
"++	c #7F7F7F",
"@+	c #656564",
"#+	c #F1F1F1",
"$+	c #F8F8F8",
"%+	c #7A7A79",
"&+	c #BDBDBC",
"*+	c #CDCDCD",
"=+	c #6A6A69",
"-+	c #686868",
";+	c #B0B0B0",
">+	c #AEAEAE",
",+	c #505050",
"'+	c #383838",
")+	c #F9F9F9",
"!+	c #E4E4E4",
"~+	c #C6C6C6",
"{+	c #020202",
"]+	c #9F9F9F",
"^+	c #1F1F1F",
"/+	c #747473",
"(+	c #DFDFDE",
"_+	c #242424",
":+	c #0F0F0F",
"<+	c #1A1A1A",
"[+	c #070707",
"}+	c #6E6E6D",
"|+	c #141413",
"1+	c #747474",
"2+	c #FEFEFD",
"3+	c #EDEDEC",
"4+	c #696968",
"5+	c #0C0C0C",
"6+	c #3A3A3A",
"7+	c #292929",
"                                                                                                                                ",
"                                                                                            . + + + + + + + + + @               ",
"                                                                                            # $ $ $ $ $ $ $ $ $ %               ",
"                                                                                  & * * * * = - - - - - - - - - ; * * >   + * * ",
"                                                                                  , $ $ $ $ ' ) ) ) ) ) ) ) ) ) ! $ $ ~   { $ $ ",
"                                                                              ] ^ / ( ( ( ( _ ) ) ) ) ) ) ) ) ) : ( ( < ^ [ ( ( ",
"                                                                              } $ | ) ) ) ) ) ) ) ) ) ) ) ) ) ) ) ) ) 1 $ 2 ) ) ",
"                                                                        3 4 4 5 6 7 ) ) ) ) ) ) ) ) ) ) ) ) ) ) ) ) ) 8 6 9 ) ) ",
"                                                                        0 $ $ a ) ) ) ) ) ) ) ) ) ) ) ) ) ) ) ) ) ) ) ) ) ) ) ) ",
"                                                                        0 $ $ a ) b c c c c d ) ) ) ) e f f f f g ) ) ) ) h c c ",
"                                                                        0 $ $ a ) i j j j j k ) ) ) ) l $ $ $ $ % ) ) ) ) m j j ",
"                                                                    n o ; p p q r s j j t u v ) ) w x y p p 1 $ % ) ) z r A j j ",
"                                                                    B $ C     D j j j j E ) ) ) ) F $ n     G $ % ) ) H j j j j ",
"                                                                    B $ C     D j j j j E ) I J J : K L     G $ % ) ) H j j j j ",
"                                                                    B $ C     D j j j j E ) M $ $ N         G $ % ) ) H j j j j ",
"                                                                    B $ C     D j O P P Q ) M $ $ N   R S S T U V W W j j X P P ",
"                                                                    B $ C     D j Y ) ) ) ) M $ $ N   l $ $ Z ) ` j j j j  .) ) ",
"                                                                    B $ C     D j Y ) ) ..+.@.#.#.$.  l $ $ Z ) ` j j %.&.*.) ) ",
"                                                                    B $ C     D j Y ) ) =.$ '         l $ $ Z ) ` j j Q ) ) ) ) ",
"                                                                    B $ C     D j Y ) ) =.$ '         l $ $ Z ) ` j j Q ) -.;.;.",
"                                                                    B $ C     D j Y ) ) =.$ '         l $ $ Z ) ` j j Q ) >.$ $ ",
"                                                                    B $ C     D j Y ) ) =.$ '         l $ $ Z ) ` j j Q ) >.$ $ ",
"                                                                    ,.'.).!.!.~.{.].) ) =.$ '         l $ $ Z ) ^.{.{./.(.[ '.'.",
"                                                                        0 $ $ a ) ) ) ) =.$ '         l $ $ Z ) ) ) ) 1 $ 2     ",
"                                                                        _.:.:.<.T [.) ) }.:.|.1.1.1.1.2.$ $ Z ) ) ) ) 1 $ 3.1.1.",
"                                                                              } $ | ) ) ) ) M $ $ $ $ $ $ $ Z ) ) ) ) 1 $ $ $ $ ",
"                                                                              4.5.% : : 6.) M $ $ J 7.7.7.7.8.: 9.) ) 1 $ 0.7.7.",
"                                                                                  , $ $ a.) M $ $ b.) ) ) ) G $ % ) ) 1 $ 2 ) ) ",
"                                                                              c.d.{ e.e.f.) g.e.e.h.) ) ) ) i.e.j.) ) k.e.l.) ) ",
"                                                                              } $ | ) ) ) ) ) ) ) ) ) ) ) ) ) ) ) ) ) ) ) ) ) ) ",
"                                                                        m.n.n.= o.p.) ) ) ) ) ) ) ) ) ) ) ) ) ) ) ) ) ) ) ) ) ) ",
"                                                                        0 $ $ a ) ) ) ) ) ) ) ) ) ) ) ) ) ) ) ) ) ) ) ) ) ) ) ) ",
"                                                                        0 $ $ q.3.r.) ) ) ) ) ) ) ) ) s.3.3.3.3.3.3.3.3.3.t.) ) ",
"                                                                        0 $ $ $ $ | ) ) ) ) ) ) ) ) ) l $ $ $ $ $ $ $ $ $ 2 ) ) ",
"                                                                    u.v.w.x.x.x.x.y.v.v.b.) ) ) ) z.v.A.x.x.x.x.x.x.x.x.x.B.v.v.",
"                                                                    B $ C.D.D.D.D.E.$ $ a.) ) ) ) F $ F.D.D.D.D.D.D.D.D.D.G.$ $ ",
"                                                                    B $ C.D.D.D.D.E.$ $ a.) ) ) ) F $ F.D.D.D.D.D.D.D.D.D.G.$ $ ",
"                                                                    B $ C.D.D.D.D.E.$ $ a.) ) ) ) F $ F.D.D.D.D.D.D.D.D.D.G.$ $ ",
"                                                                    B $ C.D.D.D.D.E.$ $ a.) ) ) ) F $ F.D.D.D.D.D.D.D.D.D.G.$ $ ",
"                                                                    H.1 I.J.J.J.J.K.1 1 a.) ) ) ) =.1 L.J.J.J.J.J.J.J.J.J.M.1 1 ",
"                                                                        0 $ $ $ $ | ) ) ) ) ) ) ) ) ) l $ $ $ $ $ $ $ $ $ 2 ) ) ",
"                                                                    N.O.P.Q.Q.Q.Q.R.) ) ) ) ) ) ) ) ) S.Q.Q.Q.Q.Q.Q.Q.Q.Q.# ) ) ",
"                                                                    B $ T.) ) ) ) ) ) ) ) ) ) ) ) ) ) ) ) ) ) ) ) ) ) ) ) ) ) ) ",
"                                                                    B $ T.) ) ) ) ) ) ) ) ) ) ) ) ) ) ) ) ) ) ) ) ) ) ) ) ) ) ) ",
"                                                                    B $ T.) ) ) ) ) ) ) ) ) ) ) ) ) ) ) ) ) ) ) ) ) ) ) ) ) ) ) ",
"                                                                    U.V.W.X.X.6.) ) ) ) l.X.X.X.X.X.X.Y.) ) ) ) ) ) ) ) ) Z.X.X.",
"                                                                        0 $ $ a ) ) ) ) =.$ $ $ $ $ $ @.) ) ) ) ) ) ) ) ) >.$ $ ",
"                                                                        g.5 5 `. + + + +.+5 5 5 5 5 5 2  + + + + + + + + +++@+@+",
"                                                                              } $ $ $ $ #+            l $ $ $ $ $ $ $ $ $ 2 ) ) ",
"                                                                              / 2 2 2 2 $+            l $ $ %+2 2 2 2 2 2 &+) ) ",
"                                                                                                      l $ $ Z ) ) ) ) ) ) ) ) ) ",
"                                                                                                      *+c.c.=+-+I ) ) ) ) ) ) ) ",
"                                                                                                            G $ % ) ) ) ) ) ) ) ",
"                                                                                                            ;+>+{ ,+,+,+,+,+,+,+",
"                                                                                                                f $ $ $ $ $ $ $ ",
"                                                                                  : '+'+'+'+'+'+'+'+'+'+'+'+)+  !+~+~+{+$ 4.~+~+",
"                                                                                  , $ $ $ $ $ $ $ $ $ $ $ $ $+        1 $ 2     ",
"                                                                        ]+^+^+^+^+/+(+(+(+(+|.$ $ Y.(+(+(+(+_+^+^+^+^+$ $ :+^+^+",
"                                                                        0 $ $ $ $ | ) ) ) ) M $ $ b.) ) ) ) G $ $ $ $ $ $ $ $ $ ",
"                                                                    <+[+}+f.f.} $ | ) ) |+[+1+f.f.2+) ) ) ) Z f.f.f.f.f.f.f.f.f.",
"                                                                    B $ 5 3+3+:+$ 4+3+3+5+$ x 3+3+3+3+3+3+3+3+3+3+3+3+3+3+3+3+3+",
"                                                                    B $ $ $ $ $ $ $ $ $ $ $ $ $ $ $ $ $ $ $ $ $ $ $ $ $ $ $ $ $ ",
"                                                                    6+7+7+7+7+7+7+7+7+7+7+7+7+7+7+7+7+7+7+7+7+7+7+7+7+7+7+7+7+7+",
"                                                                                                                                "};
