/* XPM */
static char * Bunny_Right_Right_Half_xpm[] = {
"64 64 220 2",
"  	c #FEFEFE",
". 	c #FFFFFF",
"+ 	c #F2F2F2",
"@ 	c #E6E6E6",
"# 	c #F3F3F3",
"$ 	c #7A7A7A",
"% 	c #000000",
"& 	c #8B8B8B",
"* 	c #CECECE",
"= 	c #7C7C7C",
"- 	c #303030",
"; 	c #868686",
"> 	c #E9E9E9",
", 	c #818181",
"' 	c #FBFBFB",
") 	c #848483",
"! 	c #737373",
"~ 	c #8E8E8E",
"{ 	c #494948",
"] 	c #808080",
"^ 	c #B5B5B5",
"/ 	c #B4B4B4",
"( 	c #A7A7A7",
"_ 	c #9B9B9B",
": 	c #858585",
"< 	c #BABABA",
"[ 	c #7D7D7D",
"} 	c #030303",
"| 	c #707070",
"1 	c #101010",
"2 	c #AFAFAE",
"3 	c #616161",
"4 	c #636363",
"5 	c #A7A7A6",
"6 	c #656565",
"7 	c #9D9D9D",
"8 	c #D5D5D5",
"9 	c #EEEEED",
"0 	c #919191",
"a 	c #F38495",
"b 	c #F9C2CA",
"c 	c #BFBFBE",
"d 	c #848484",
"e 	c #C5C5C5",
"f 	c #F8BCC4",
"g 	c #F9C9CF",
"h 	c #E60023",
"i 	c #F28191",
"j 	c #878787",
"k 	c #F17386",
"l 	c #F38E9D",
"m 	c #EB3652",
"n 	c #F06C80",
"o 	c #F06E81",
"p 	c #929292",
"q 	c #7E7E7E",
"r 	c #6C6C6B",
"s 	c #727271",
"t 	c #F9C3CB",
"u 	c #F492A0",
"v 	c #F38B9A",
"w 	c #EB3C56",
"x 	c #EA6E81",
"y 	c #6C6C6C",
"z 	c #777777",
"A 	c #E60325",
"B 	c #060606",
"C 	c #090909",
"D 	c #FDF1F2",
"E 	c #E71031",
"F 	c #6D6D6D",
"G 	c #131313",
"H 	c #D2D2D2",
"I 	c #ABABAB",
"J 	c #535353",
"K 	c #B1B1B0",
"L 	c #F5F5F5",
"M 	c #8B8B8A",
"N 	c #F9C3CA",
"O 	c #EF6075",
"P 	c #EB3B56",
"Q 	c #D6828E",
"R 	c #C3C3C2",
"S 	c #C0C0BF",
"T 	c #3B3B3B",
"U 	c #A3A3A3",
"V 	c #FEFBFB",
"W 	c #EE566D",
"X 	c #FFFFFE",
"Y 	c #F27D8F",
"Z 	c #F28494",
"` 	c #F8F8F7",
" .	c #F17083",
"..	c #FDEDEE",
"+.	c #FBDCDF",
"@.	c #FBD9DD",
"#.	c #FDFDFD",
"$.	c #DCDCDC",
"%.	c #777776",
"&.	c #222222",
"*.	c #2E2E2E",
"=.	c #0D0D0D",
"-.	c #0A0A0A",
";.	c #868685",
">.	c #818180",
",.	c #262626",
"'.	c #D8D8D7",
").	c #D8D6D5",
"!.	c #E92643",
"~.	c #F496A4",
"{.	c #F38596",
"].	c #E8314D",
"^.	c #D8D8D8",
"/.	c #727272",
"(.	c #373737",
"_.	c #C0C0C0",
":.	c #5E5E5E",
"<.	c #666666",
"[.	c #797979",
"}.	c #3E3E3E",
"|.	c #484848",
"1.	c #DBDBDB",
"2.	c #B7B7B7",
"3.	c #ACACAC",
"4.	c #575756",
"5.	c #2B2B2A",
"6.	c #D1D1D0",
"7.	c #A5A5A5",
"8.	c #FAFAF9",
"9.	c #575757",
"0.	c #626262",
"a.	c #F5F5F4",
"b.	c #F1F1F0",
"c.	c #B6B6B5",
"d.	c #6F6F6F",
"e.	c #717171",
"f.	c #B4B4B3",
"g.	c #737372",
"h.	c #F9F9F8",
"i.	c #BDBDBD",
"j.	c #F7F7F6",
"k.	c #8F8F8F",
"l.	c #969696",
"m.	c #BCBCBB",
"n.	c #888887",
"o.	c #767676",
"p.	c #C4C4C4",
"q.	c #ADADAC",
"r.	c #B3B3B3",
"s.	c #A5A5A4",
"t.	c #585857",
"u.	c #454545",
"v.	c #7E7E35",
"w.	c #B5B525",
"x.	c #7A7A36",
"y.	c #4D4D4C",
"z.	c #848433",
"A.	c #757537",
"B.	c #545454",
"C.	c #7E7E19",
"D.	c #FAFA33",
"E.	c #747417",
"F.	c #8B8B1C",
"G.	c #6B6B15",
"H.	c #7E7E1B",
"I.	c #F6F632",
"J.	c #757519",
"K.	c #8B8B1D",
"L.	c #6B6B17",
"M.	c #161616",
"N.	c #1B1B1B",
"O.	c #949494",
"P.	c #80807F",
"Q.	c #8D8D8D",
"R.	c #E3E3E3",
"S.	c #E5E5E5",
"T.	c #6D6D6C",
"U.	c #B2B2B1",
"V.	c #D9D9D8",
"W.	c #D6D6D5",
"X.	c #787877",
"Y.	c #4C4C4C",
"Z.	c #5A5A5A",
"`.	c #656564",
" +	c #7F7F7F",
".+	c #999999",
"++	c #676767",
"@+	c #969695",
"#+	c #F1F1F1",
"$+	c #BDBDBC",
"%+	c #7A7A79",
"&+	c #F8F8F8",
"*+	c #686868",
"=+	c #6A6A69",
"-+	c #CDCDCD",
";+	c #505050",
">+	c #AEAEAE",
",+	c #B0B0B0",
"'+	c #C6C6C6",
")+	c #020202",
"!+	c #E4E4E4",
"~+	c #F9F9F9",
"{+	c #383838",
"]+	c #1F1F1F",
"^+	c #0F0F0F",
"/+	c #242424",
"(+	c #DFDFDE",
"_+	c #747473",
":+	c #9F9F9F",
"<+	c #FEFEFD",
"[+	c #747474",
"}+	c #070707",
"|+	c #141413",
"1+	c #6E6E6D",
"2+	c #1A1A1A",
"3+	c #EDEDEC",
"4+	c #0C0C0C",
"5+	c #696968",
"6+	c #292929",
"7+	c #3A3A3A",
". . . . . . . . . . . . . . . . . . . . . . . . . . . . . . . . . . . . . . . . . . . . . . . . . . . . . . . . . . . . . . . . ",
". . . . . . . + @ @ @ @ @ @ @ @ @ # . . . . . . . . . . . . . . . . . . . . . . . . . . . . . . . . . . . . . . . . . . . . . . ",
". . . . . . . $ % % % % % % % % % & . . . . . . . . . . . . . . . . . . . . . . . . . . . . . . . . . . . . . . . . . . . . . . ",
"* * @ .   * * = - - - - - - - - - ; * * * * > . . . . . . . . . . . . . . . . . . . . . . . . . . . . . . . . . . . . . . . . . ",
"% % , . ' % % )                   ! % % % % ~ . . . . . . . . . . . . . . . . . . . . . . . . . . . . . . . . . . . . . . . . . ",
"{ { ] ^ / { { (                   _ { { { { : ^ < . . . . . . . . . . . . . . . . . . . . . . . . . . . . . . . . . . . . . . . ",
"    [ % }                                   | % 1 . . . . . . . . . . . . . . . . . . . . . . . . . . . . . . . . . . . . . . . ",
"    2 3 4                                   5 3 6 7 7 8 . . . . . . . . . . . . . . . . . . . . . . . . . . . . . . . . . . . . ",
"                                                9 % % 0 . . . . . . . . . . . . . . . . . . . . . . . . . . . . . . . . . . . . ",
"a a b         c d d d d e         f a a a a g   9 % % 0 . . . . . . . . . . . . . . . . . . . . . . . . . . . . . . . . . . . . ",
"h h i         $ % % % % j         k h h h h l   9 % % 0 . . . . . . . . . . . . . . . . . . . . . . . . . . . . . . . . . . . . ",
"h h m n o     $ % } p p q r s     t u v h h w n x p p = y z . . . . . . . . . . . . . . . . . . . . . . . . . . . . . . . . . . ",
"h h h h A     $ % B . . z % C         D h h h h E . . F % G . . . . . . . . . . . . . . . . . . . . . . . . . . . . . . . . . . ",
"h h h h A     $ % B . . H I ( J J K   D h h h h E . . F % G . . . . . . . . . . . . . . . . . . . . . . . . . . . . . . . . . . ",
"h h h h A     $ % B . . . . L % % M   D h h h h E . . F % G . . . . . . . . . . . . . . . . . . . . . . . . . . . . . . . . . . ",
"N N O h h P P Q R S T T U . L % % M   V N N W h E . . F % G . . . . . . . . . . . . . . . . . . . . . . . . . . . . . . . . . . ",
"X X Y h h h h Z   ` % % j . L % % M          .h E . . F % G . . . . . . . . . . . . . . . . . . . . . . . . . . . . . . . . . . ",
"X X ..+.@.h h Z   ` % % j . #.$.$.%.&.*.     .h E . . F % G . . . . . . . . . . . . . . . . . . . . . . . . . . . . . . . . . . ",
"X X X X V h h Z   ` % % j . . . . ! % =.     .h E . . F % G . . . . . . . . . . . . . . . . . . . . . . . . . . . . . . . . . . ",
"-.-.;.X V h h Z   ` % % j . . . . ! % =.     .h E . . F % G . . . . . . . . . . . . . . . . . . . . . . . . . . . . . . . . . . ",
"% % >.X V h h Z   ` % % j . . . . ! % =.     .h E . . F % G . . . . . . . . . . . . . . . . . . . . . . . . . . . . . . . . . . ",
"% % >.X V h h Z   ` % % j . . . . ! % =.     .h E . . F % G . . . . . . . . . . . . . . . . . . . . . . . . . . . . . . . . . . ",
",.,.] '.).!.!.~.  ` % % j . . . . ! % =.    {.!.].^.^./.,.(.. . . . . . . . . . . . . . . . . . . . . . . . . . . . . . . . . . ",
". . [ % }         ` % % j . . . . ! % =.        9 % % 0 . . . . . . . . . . . . . . . . . . . . . . . . . . . . . . . . . . . . ",
"_._.:.% }         ` % % <._._._._.[.}.|.    1.S 2.}.}.3.. . . . . . . . . . . . . . . . . . . . . . . . . . . . . . . . . . . . ",
"% % % % }         ` % % % % % % % M         | % 1 . . . . . . . . . . . . . . . . . . . . . . . . . . . . . . . . . . . . . . . ",
"4.4.5.% }     6.( 7.4.4.4.4.J % % M   8.( ( $ 9.0.. . . . . . . . . . . . . . . . . . . . . . . . . . . . . . . . . . . . . . . ",
"    [ % }     $ % B         a.% % M   b.% % ~ . . . . . . . . . . . . . . . . . . . . . . . . . . . . . . . . . . . . . . . . . ",
"    c.d.e.    f.d.g.        h.d.d.i.  j.d.d., k.l.. . . . . . . . . . . . . . . . . . . . . . . . . . . . . . . . . . . . . . . ",
"                                            | % 1 . . . . . . . . . . . . . . . . . . . . . . . . . . . . . . . . . . . . . . . ",
"                                            m.n.; o.o.p.. . . . . . . . . . . . . . . . . . . . . . . . . . . . . . . . . . . . ",
"                                                9 % % 0 . . . . . . . . . . . . . . . . . . . . . . . . . . . . . . . . . . . . ",
"    q.:.:.:.:.:.:.:.:.:.r.                  s.:.t.% % 0 . . . . . . . . . . . . . . . . . . . . . . . . . . . . . . . . . . . . ",
"    [ % % % % % % % % % j                   | % % % % 0 . . . . . . . . . . . . . . . . . . . . . . . . . . . . . . . . . . . . ",
"u.u.v.w.w.w.w.w.w.w.w.w.x.u.y.        a.u.u.z.w.w.w.w.A.u.B.. . . . . . . . . . . . . . . . . . . . . . . . . . . . . . . . . . ",
"% % C.D.D.D.D.D.D.D.D.D.E.% C         b.% % F.D.D.D.D.G.% G . . . . . . . . . . . . . . . . . . . . . . . . . . . . . . . . . . ",
"% % C.D.D.D.D.D.D.D.D.D.E.% C         b.% % F.D.D.D.D.G.% G . . . . . . . . . . . . . . . . . . . . . . . . . . . . . . . . . . ",
"% % C.D.D.D.D.D.D.D.D.D.E.% C         b.% % F.D.D.D.D.G.% G . . . . . . . . . . . . . . . . . . . . . . . . . . . . . . . . . . ",
"% % C.D.D.D.D.D.D.D.D.D.E.% C         b.% % F.D.D.D.D.G.% G . . . . . . . . . . . . . . . . . . . . . . . . . . . . . . . . . . ",
"} } H.I.I.I.I.I.I.I.I.I.J.} =.        b.} } K.I.I.I.I.L.} M.. . . . . . . . . . . . . . . . . . . . . . . . . . . . . . . . . . ",
"    [ % % % % % % % % % j                   | % % % % 0 . . . . . . . . . . . . . . . . . . . . . . . . . . . . . . . . . . . . ",
"    & N.N.N.N.N.N.N.N.N.O.                  P.N.N.N.N.Q.R.S.. . . . . . . . . . . . . . . . . . . . . . . . . . . . . . . . . . ",
"                                                      T.% G . . . . . . . . . . . . . . . . . . . . . . . . . . . . . . . . . . ",
"                                                      T.% G . . . . . . . . . . . . . . . . . . . . . . . . . . . . . . . . . . ",
"                                                      T.% G . . . . . . . . . . . . . . . . . . . . . . . . . . . . . . . . . . ",
"U.U.V.                  W.U.U.U.U.U.U.c.        8.U.U.X.Y.Z.. . . . . . . . . . . . . . . . . . . . . . . . . . . . . . . . . . ",
"% % >.                  %.% % % % % % =.        9 % % 0 . . . . . . . . . . . . . . . . . . . . . . . . . . . . . . . . . . . . ",
"`.`. +.+.+.+.+.+.+.+.+.+[ 6 6 6 6 6 6 ++.+.+.+.+@+6 6 i.. . . . . . . . . . . . . . . . . . . . . . . . . . . . . . . . . . . . ",
"X X [ % % % % % % % % % j . . . . . . #+% % % % 1 . . . . . . . . . . . . . . . . . . . . . . . . . . . . . . . . . . . . . . . ",
"X X $+[ [ [ [ [ [ %+% % j . . . . . . &+[ [ [ [ : . . . . . . . . . . . . . . . . . . . . . . . . . . . . . . . . . . . . . . . ",
"X X X X X X X X X ` % % j . . . . . . . . . . . . . . . . . . . . . . . . . . . . . . . . . . . . . . . . . . . . . . . . . . . ",
"X X X X X X X K *+=+l.l.-+. . . . . . . . . . . . . . . . . . . . . . . . . . . . . . . . . . . . . . . . . . . . . . . . . . . ",
"X X X X X X X $ % B . . . . . . . . . . . . . . . . . . . . . . . . . . . . . . . . . . . . . . . . . . . . . . . . . . . . . . ",
";+;+;+;+;+;+;+, >+,+. . . . . . . . . . . . . . . . . . . . . . . . . . . . . . . . . . . . . . . . . . . . . . . . . . . . . . ",
"% % % % % % % d . . . . . . . . . . . . . . . . . . . . . . . . . . . . . . . . . . . . . . . . . . . . . . . . . . . . . . . . ",
"'+'+0.% )+'+'+!+. ~+{+{+{+{+{+{+{+{+{+{+{+{+( . . . . . . . . . . . . . . . . . . . . . . . . . . . . . . . . . . . . . . . . . ",
". . [ % } . . . . &+% % % % % % % % % % % % ~ . . . . . . . . . . . . . . . . . . . . . . . . . . . . . . . . . . . . . . . . . ",
"]+]+^+% % ]+]+]+]+/+(+(+(+(+W.% % [.(+(+(+(+_+]+]+]+]+:+. . . . . . . . . . . . . . . . . . . . . . . . . . . . . . . . . . . . ",
"% % % % % % % % % B X X X X a.% % M X X X X | % % % % 0 . . . . . . . . . . . . . . . . . . . . . . . . . . . . . . . . . . . . ",
"j.j.j.j.j.j.j.j.j.` X X X X <+j.j.[+}+|+X X | % 1 j.j.1+}+2+. . . . . . . . . . . . . . . . . . . . . . . . . . . . . . . . . . ",
"3+3+3+3+3+3+3+3+3+3+3+3+3+3+3+3+3+r % 4+3+3+5+% ^+3+3+6 % G . . . . . . . . . . . . . . . . . . . . . . . . . . . . . . . . . . ",
"% % % % % % % % % % % % % % % % % % % % % % % % % % % % % G . . . . . . . . . . . . . . . . . . . . . . . . . . . . . . . . . . ",
"6+6+6+6+6+6+6+6+6+6+6+6+6+6+6+6+6+6+6+6+6+6+6+6+6+6+6+6+6+7+. . . . . . . . . . . . . . . . . . . . . . . . . . . . . . . . . . ",
". . . . . . . . . . . . . . . . . . . . . . . . . . . . . . . . . . . . . . . . . . . . . . . . . . . . . . . . . . . . . . . . "};
