/* XPM */
static char * Duck_Right32_xpm[] = {
"32 32 9 1",
" 	c #FFFFFF",
".	c #000000",
"+	c #7F7100",
"@	c #FFE300",
"#	c #BFAA00",
"$	c #7F4500",
"%	c #FF8B00",
"&	c #FFCD00",
"*	c #FFB700",
"                                ",
"             .......            ",
"            .+@@@@@+.           ",
"           .+#@@@@@#+.          ",
"          ..@@@@@@@@@..         ",
"         .+@@@@@@@@@@@+.        ",
"        .+#@@@@@@@+++@#+.       ",
"        .@@@@@@@@@...@@@.       ",
"        .@@@@@@@@@...@@@...     ",
"        .@@@@@@@@@+++@@@$$$.    ",
"        .@@@@@@@@@@@@@@@%%%...  ",
"        .@@@@@@@@@@@@@@@%%%%%%. ",
"        .@@@@@@@@@@@@@&*%%%$$$. ",
"        .@@@@@@@@@@@@@*%%%%...  ",
"  .   ....+@@@@@@@@@@@+....     ",
" .+...++++++@@@@@@@@@@+.        ",
".+@@@@@@@@+@@@@@@@@@@@+.        ",
".+@@@@@@@@@@@@@@@@@@@@@@.       ",
".+@@#+@@@@@@@@@@@@@@@@@@+.      ",
".+@@+.@@@@@@@@@@@@@@@@@@@+.     ",
".+@@@@.+@@@@@@@@+.@@@@@@@+.     ",
".+@@@@+++@@@@@@+++@@@@@@@+.     ",
".+@@@@@+.@@@@@@.+@@@@@@@@+.     ",
".+@@@@@@@.......+@@@@@@@@+.     ",
" .+@@@@@@+++++++#@@@@@@@@+.     ",
"  .@@@@@@@@@@@@@@@@@@@@@@+.     ",
"   .+@@@@@@@@@@@@@@@@@@@..      ",
"    .+@@@@@@@@@@@@@@@@#+.       ",
"     .@@@@@@@@@@@@@@@@+.        ",
"      .+@@@@@@@@@@@@@..         ",
"       .+++++++++++++.          ",
"        .............           "};
