/* XPM */
static char * Duck_Left_Bottom_Half_Turning_Left_xpm[] = {
"64 64 3 1",
" 	c #FFFFFF",
".	c #000000",
"+	c #FFE300",
"                ...+++++++++++++++++++++...+++++++++......+++...",
"                ...+++++++++++++++++++++...+++++++++......+++...",
"             ...+++++++++++++++++++++++++++++++++++++++++++++...",
"             ...+++++++++++++++++++++++++++++++++++++++++++++...",
"             ...+++++++++++++++++++++++++++++++++++++++++++++...",
"          ...+++++++++++++++++++++++++++++++++++++++...++++++...",
"          ...+++++++++++++++++++++++++++++++++++++++...++++++...",
"          ...+++++++++++++++++++++++++++++++++++++++...++++++...",
"          ...+++++++++++++++...++++++++++++++++++...+++++++++...",
"          ...+++++++++++++++...++++++++++++++++++...+++++++++...",
"          ...+++++++++++++++...++++++++++++++++++...+++++++++...",
"          ...++++++++++++++++++...++++++++++++...++++++++++++...",
"          ...++++++++++++++++++...++++++++++++...++++++++++++...",
"          ...++++++++++++++++++...++++++++++++...++++++++++++...",
"          ...++++++++++++++++++...............+++++++++++++++...",
"          ...++++++++++++++++++...............+++++++++++++++...",
"          ...++++++++++++++++++...............+++++++++++++++...",
"          ...+++++++++++++++++++++++++++++++++++++++++++++...   ",
"          ...+++++++++++++++++++++++++++++++++++++++++++++...   ",
"          ...+++++++++++++++++++++++++++++++++++++++++++++...   ",
"             ...+++++++++++++++++++++++++++++++++++++++...      ",
"             ...+++++++++++++++++++++++++++++++++++++++...      ",
"             ...+++++++++++++++++++++++++++++++++++++++...      ",
"                ...+++++++++++++++++++++++++++++++++...         ",
"                ...+++++++++++++++++++++++++++++++++...         ",
"                ...+++++++++++++++++++++++++++++++++...         ",
"                   ...+++++++++++++++++++++++++++...            ",
"                   ...+++++++++++++++++++++++++++...            ",
"                   ...+++++++++++++++++++++++++++...            ",
"                      ...........................               ",
"                      ...........................               ",
"                      ...........................               ",
"                                                                ",
"                                                                ",
"                                                                ",
"                                                                ",
"                                                                ",
"                                                                ",
"                                                                ",
"                                                                ",
"                                                                ",
"                                                                ",
"                                                                ",
"                                                                ",
"                                                                ",
"                                                                ",
"                                                                ",
"                                                                ",
"                                                                ",
"                                                                ",
"                                                                ",
"                                                                ",
"                                                                ",
"                                                                ",
"                                                                ",
"                                                                ",
"                                                                ",
"                                                                ",
"                                                                ",
"                                                                ",
"                                                                ",
"                                                                ",
"                                                                ",
"                                                                "};
