/* XPM */
static char * Duck_Left_Upper_Half_Turning_Left_xpm[] = {
"64 64 4 1",
" 	c #FFFFFF",
".	c #000000",
"+	c #FFE300",
"@	c #FF8B00",
"                                                                ",
"                                                                ",
"                                                                ",
"                                                                ",
"                                                                ",
"                                                                ",
"                                                                ",
"                                                                ",
"                                                                ",
"                                                                ",
"                                                                ",
"                                                                ",
"                                                                ",
"                                                                ",
"                                                                ",
"                                                                ",
"                                                                ",
"                                                                ",
"                                                                ",
"                                                                ",
"                                                                ",
"                                                                ",
"                                                                ",
"                                                                ",
"                                                                ",
"                                                                ",
"                                                                ",
"                                                                ",
"                                                                ",
"                                                                ",
"                                                                ",
"                                                                ",
"                                                                ",
"                         ............                           ",
"                         ............                           ",
"                         ............                           ",
"                      ...++++++++++++...                        ",
"                      ...++++++++++++...                        ",
"                      ...++++++++++++...                        ",
"                   ...++++++++++++++++++...                     ",
"                   ...++++++++++++++++++...                     ",
"                   ...++++++++++++++++++...                     ",
"                ...++++++++++++++++++++++++...                  ",
"                ...++++++++++++++++++++++++...                  ",
"                ...++++++++++++++++++++++++...                  ",
"             ...++++++......++++++++++++++++++...               ",
"             ...++++++......++++++++++++++++++...               ",
"             ...++++++......++++++++++++++++++...               ",
"          ......++++++......++++++++++++++++++...               ",
"          ......++++++......++++++++++++++++++...               ",
"          ......++++++......++++++++++++++++++...               ",
"    ......@@@@@@++++++++++++++++++++++++++++++...               ",
"    ......@@@@@@++++++++++++++++++++++++++++++...               ",
"    ......@@@@@@++++++++++++++++++++++++++++++...               ",
" ...@@@@@@@@@@@@++++++++++++++++++++++++++++++...               ",
" ...@@@@@@@@@@@@++++++++++++++++++++++++++++++...               ",
" ...@@@@@@@@@@@@++++++++++++++++++++++++++++++...               ",
"    ......@@@@@@@@@+++++++++++++++++++++++++++...               ",
"    ......@@@@@@@@@+++++++++++++++++++++++++++...               ",
"    ......@@@@@@@@@+++++++++++++++++++++++++++...               ",
"          .........++++++++++++++++++++++++.........      ...   ",
"          .........++++++++++++++++++++++++.........      ...   ",
"          .........++++++++++++++++++++++++.........      ...   ",
"                ...+++++++++++++++++++++...+++++++++......+++..."};
