/* XPM */
static char * Duck_Left_Bottom_Half_Turning_Right_xpm[] = {
"64 64 3 1",
" 	c #000000",
".	c #FFE300",
"+	c #FFFFFF",
"   ...      .........   .....................   ++++++++++++++++",
"   ...      .........   .....................   ++++++++++++++++",
"   .............................................   +++++++++++++",
"   .............................................   +++++++++++++",
"   .............................................   +++++++++++++",
"   ......   .......................................   ++++++++++",
"   ......   .......................................   ++++++++++",
"   ......   .......................................   ++++++++++",
"   .........   ..................   ...............   ++++++++++",
"   .........   ..................   ...............   ++++++++++",
"   .........   ..................   ...............   ++++++++++",
"   ............   ............   ..................   ++++++++++",
"   ............   ............   ..................   ++++++++++",
"   ............   ............   ..................   ++++++++++",
"   ...............               ..................   ++++++++++",
"   ...............               ..................   ++++++++++",
"   ...............               ..................   ++++++++++",
"+++   .............................................   ++++++++++",
"+++   .............................................   ++++++++++",
"+++   .............................................   ++++++++++",
"++++++   .......................................   +++++++++++++",
"++++++   .......................................   +++++++++++++",
"++++++   .......................................   +++++++++++++",
"+++++++++   .................................   ++++++++++++++++",
"+++++++++   .................................   ++++++++++++++++",
"+++++++++   .................................   ++++++++++++++++",
"++++++++++++   ...........................   +++++++++++++++++++",
"++++++++++++   ...........................   +++++++++++++++++++",
"++++++++++++   ...........................   +++++++++++++++++++",
"+++++++++++++++                           ++++++++++++++++++++++",
"+++++++++++++++                           ++++++++++++++++++++++",
"+++++++++++++++                           ++++++++++++++++++++++",
"++++++++++++++++++++++++++++++++++++++++++++++++++++++++++++++++",
"++++++++++++++++++++++++++++++++++++++++++++++++++++++++++++++++",
"++++++++++++++++++++++++++++++++++++++++++++++++++++++++++++++++",
"++++++++++++++++++++++++++++++++++++++++++++++++++++++++++++++++",
"++++++++++++++++++++++++++++++++++++++++++++++++++++++++++++++++",
"++++++++++++++++++++++++++++++++++++++++++++++++++++++++++++++++",
"++++++++++++++++++++++++++++++++++++++++++++++++++++++++++++++++",
"++++++++++++++++++++++++++++++++++++++++++++++++++++++++++++++++",
"++++++++++++++++++++++++++++++++++++++++++++++++++++++++++++++++",
"++++++++++++++++++++++++++++++++++++++++++++++++++++++++++++++++",
"++++++++++++++++++++++++++++++++++++++++++++++++++++++++++++++++",
"++++++++++++++++++++++++++++++++++++++++++++++++++++++++++++++++",
"++++++++++++++++++++++++++++++++++++++++++++++++++++++++++++++++",
"++++++++++++++++++++++++++++++++++++++++++++++++++++++++++++++++",
"++++++++++++++++++++++++++++++++++++++++++++++++++++++++++++++++",
"++++++++++++++++++++++++++++++++++++++++++++++++++++++++++++++++",
"++++++++++++++++++++++++++++++++++++++++++++++++++++++++++++++++",
"++++++++++++++++++++++++++++++++++++++++++++++++++++++++++++++++",
"++++++++++++++++++++++++++++++++++++++++++++++++++++++++++++++++",
"++++++++++++++++++++++++++++++++++++++++++++++++++++++++++++++++",
"++++++++++++++++++++++++++++++++++++++++++++++++++++++++++++++++",
"++++++++++++++++++++++++++++++++++++++++++++++++++++++++++++++++",
"++++++++++++++++++++++++++++++++++++++++++++++++++++++++++++++++",
"++++++++++++++++++++++++++++++++++++++++++++++++++++++++++++++++",
"++++++++++++++++++++++++++++++++++++++++++++++++++++++++++++++++",
"++++++++++++++++++++++++++++++++++++++++++++++++++++++++++++++++",
"++++++++++++++++++++++++++++++++++++++++++++++++++++++++++++++++",
"++++++++++++++++++++++++++++++++++++++++++++++++++++++++++++++++",
"++++++++++++++++++++++++++++++++++++++++++++++++++++++++++++++++",
"++++++++++++++++++++++++++++++++++++++++++++++++++++++++++++++++",
"++++++++++++++++++++++++++++++++++++++++++++++++++++++++++++++++",
"++++++++++++++++++++++++++++++++++++++++++++++++++++++++++++++++"};
