/* XPM */
static char * Duck_Right_32_xpm[] = {
"32 32 258 2",
"  	c #FFFFFF",
". 	c #E2ECEC",
"+ 	c #BBC6C6",
"@ 	c #BBC5C5",
"# 	c #D3E5E5",
"$ 	c #FEFFFF",
"% 	c #EAFBFB",
"& 	c #A9C5C4",
"* 	c #32351D",
"= 	c #323011",
"- 	c #323012",
"; 	c #83BAB7",
"> 	c #E5FAFA",
", 	c #F8FBFB",
"' 	c #6B9898",
") 	c #6E6A2E",
"! 	c #EAD001",
"~ 	c #EDD300",
"{ 	c #ECD200",
"] 	c #A99A2A",
"^ 	c #496666",
"/ 	c #F0F9F9",
"( 	c #E9FBFB",
"_ 	c #72A1A0",
": 	c #949755",
"< 	c #CCB600",
"[ 	c #FDE200",
"} 	c #FFE300",
"| 	c #DFC600",
"1 	c #A1972F",
"2 	c #6C9C9B",
"3 	c #D3E6E6",
"4 	c #E1ECEC",
"5 	c #A7C9C8",
"6 	c #67632D",
"7 	c #E1C800",
"8 	c #6A6218",
"9 	c #95AFAA",
"0 	c #EEFBFB",
"a 	c #A5C0BF",
"b 	c #45441E",
"c 	c #F1D701",
"d 	c #FBDF00",
"e 	c #FADF00",
"f 	c #F7DC01",
"g 	c #5E5713",
"h 	c #79AFAC",
"i 	c #EAFAFA",
"j 	c #FBFCFC",
"k 	c #638E8E",
"l 	c #787433",
"m 	c #E1C801",
"n 	c #FDE100",
"o 	c #665B00",
"p 	c #453D00",
"q 	c #6D6100",
"r 	c #E7CE00",
"s 	c #A89A2D",
"t 	c #486464",
"u 	c #E9FAFA",
"v 	c #527E7D",
"w 	c #817200",
"x 	c #FCE000",
"y 	c #494000",
"z 	c #000000",
"A 	c #524800",
"B 	c #BCA700",
"C 	c #162D2D",
"D 	c #73ABAB",
"E 	c #CFE5E5",
"F 	c #FBE000",
"G 	c #736600",
"H 	c #564C00",
"I 	c #796B00",
"J 	c #C4AA00",
"K 	c #572D00",
"L 	c #563313",
"M 	c #95ADAA",
"N 	c #C2D4D4",
"O 	c #C5D8D8",
"P 	c #F6FDFD",
"Q 	c #FDBE00",
"R 	c #FB8900",
"S 	c #F78701",
"T 	c #6A3E17",
"U 	c #272520",
"V 	c #3A4845",
"W 	c #D9F6F5",
"X 	c #FAFDFD",
"Y 	c #FFBF00",
"Z 	c #FF8B00",
"` 	c #FE8A00",
" .	c #E17A00",
"..	c #D87500",
"+.	c #C86F0E",
"@.	c #425552",
"#.	c #C0CECE",
"$.	c #FFE200",
"%.	c #FFC500",
"&.	c #FFA800",
"*.	c #FD8A00",
"=.	c #C66B00",
"-.	c #BC6500",
";.	c #AF6529",
">.	c #7BB3B2",
",.	c #D1E3E3",
"'.	c #F1FAFA",
").	c #C9DFDF",
"!.	c #E9F4F4",
"~.	c #F4FCFC",
"{.	c #C6DCDC",
"].	c #406C6C",
"^.	c #706300",
"/.	c #DDC400",
"(.	c #FEE100",
"_.	c #E49100",
":.	c #DE7800",
"<.	c #DA7702",
"[.	c #604E39",
"}.	c #354949",
"|.	c #466160",
"1.	c #E4FAFA",
"2.	c #FCFDFD",
"3.	c #CBE4E4",
"4.	c #2F4741",
"5.	c #BBC8C7",
"6.	c #FAFBFB",
"7.	c #D2EFEF",
"8.	c #324741",
"9.	c #1D1E0E",
"0.	c #221D00",
"a.	c #F1D700",
"b.	c #5E4F00",
"c.	c #281A0F",
"d.	c #2A231B",
"e.	c #2B2D28",
"f.	c #B3CACA",
"g.	c #EDFAFA",
"h.	c #EEFAFA",
"i.	c #FDFFFF",
"j.	c #A6C7C7",
"k.	c #4A6555",
"l.	c #C9B40D",
"m.	c #657049",
"n.	c #3F5E5E",
"o.	c #476459",
"p.	c #CCB60D",
"q.	c #CFB900",
"r.	c #685C00",
"s.	c #CBB500",
"t.	c #554B00",
"u.	c #5D8E8D",
"v.	c #BBCFCE",
"w.	c #C0D0D0",
"x.	c #E6F1F1",
"y.	c #98BCBC",
"z.	c #413902",
"A.	c #F8DD00",
"B.	c #B8A400",
"C.	c #A39100",
"D.	c #A99600",
"E.	c #A99700",
"F.	c #DBC300",
"G.	c #FCE100",
"H.	c #B19D00",
"I.	c #8BA280",
"J.	c #A0C2C2",
"K.	c #FEE200",
"L.	c #F4D900",
"M.	c #E8CF00",
"N.	c #FEE300",
"O.	c #C0AA01",
"P.	c #47543F",
"Q.	c #BFE4E3",
"R.	c #EDF8F8",
"S.	c #C2AD00",
"T.	c #4F4600",
"U.	c #F7DC00",
"V.	c #DDC506",
"W.	c #334135",
"X.	c #E9D000",
"Y.	c #C1AC00",
"Z.	c #756800",
"`.	c #D2BB00",
" +	c #B8A300",
".+	c #928100",
"++	c #2C2E19",
"@+	c #BFCDCD",
"#+	c #968500",
"$+	c #A29000",
"%+	c #C3AE00",
"&+	c #9E8C00",
"*+	c #A89500",
"=+	c #887900",
"-+	c #847500",
";+	c #F1D600",
">+	c #EFD500",
",+	c #3F3700",
"'+	c #99BCBC",
")+	c #413C0D",
"!+	c #F8DC00",
"~+	c #3B3300",
"{+	c #393100",
"]+	c #383100",
"^+	c #141100",
"/+	c #BDA800",
"(+	c #D5E5E5",
"_+	c #93B4B0",
":+	c #817620",
"<+	c #DAC200",
"[+	c #E9CF00",
"}+	c #C4AE00",
"|+	c #C3AD00",
"1+	c #E5CC00",
"2+	c #D8EEEE",
"3+	c #5A8583",
"4+	c #9C9433",
"5+	c #E4CB00",
"6+	c #AD9E1F",
"7+	c #55827F",
"8+	c #C9DCDC",
"9+	c #F7F9F9",
"0+	c #507775",
"a+	c #928625",
"b+	c #B9A721",
"c+	c #3D5856",
"d+	c #E8F7F7",
"e+	c #FDFEFE",
"f+	c #DCF6F6",
"g+	c #8EB8B6",
"h+	c #524A0C",
"i+	c #F9DE00",
"j+	c #665B04",
"k+	c #6FABA7",
"l+	c #D0F4F3",
"m+	c #FCFEFE",
"n+	c #D2E4E4",
"o+	c #8FB8B5",
"p+	c #918425",
"q+	c #DAC100",
"r+	c #E6CD00",
"s+	c #928415",
"t+	c #86A59E",
"u+	c #C3DEDE",
"v+	c #DCF5F5",
"w+	c #517876",
"x+	c #9C9533",
"y+	c #C8B200",
"z+	c #AA9D1F",
"A+	c #4D7471",
"B+	c #CAE0E0",
"C+	c #598482",
"D+	c #24332E",
"E+	c #435E5C",
"F+	c #EFF7F7",
"G+	c #D8EFEF",
"H+	c #CEE8E7",
"I+	c #D3ECEB",
"                                                                ",
"                          . + @ @ @ @ @ # $                     ",
"                      $ % & * = = = = - ; > $                   ",
"                    $ , ' ) ! ~ ~ ~ ~ { ] ^ / $                 ",
"                    ( _ : < [ } } } } } | 1 2 3                 ",
"                  4 5 6 < } } } } } } } } 7 8 9 # $             ",
"              $ 0 a b c [ } } } } } } d e e f g h i $           ",
"              j k l m n } } } } } } d o p q e r s t u $         ",
"              j v w x } } } } } } } d y z A d } B C D E         ",
"              j v w x } } } } } } } F G H I F } J K L M N O P   ",
"              j v w x } } } } } } } } F d F } } Q R S T U V W X ",
"              j v w x } } } } } } } } } } } } } Y Z `  ...+.@.#.",
"              j v w x } } } } } } } } } } } $.%.&.Z *.=.-.;.>.,.",
"    '.).!.  ~.{.].^./.n } } } } } } } } } } (._.:.:.<.[.}.|.1.$ ",
"  2.3.4.5.6.7.8.9.0.y a.n } } } } } } } } } d b.c.d.e.f.g.h.i.  ",
"i.j.k.l.m.n.o.p.q.q.< r.s.} } } } } } } } } d t.u.v.w.x.        ",
"i.y.z.A.B.C.D.x } } x E.F.} } } } } } } } } G.H.I.J.~.          ",
"i.y.z.e K.L.M.K.} } } K.N.} } } } } } } } } } K.O.P.Q.R.        ",
"i.y.z.e } S.T.U.K.} } } } } } } n G.} } } } } } n V.W.#.        ",
"i.y.z.e } X.Y.Z.`.} } } } } } K. +.+x } } } } } } 7 ++@+        ",
"i.y.z.e } } U.#+$+`.K.} } } n %+&+*+G.} } } } } } 7 ++@+        ",
"i.y.z.e } } } e =+-+;+L.L.L.>+,+B n } } } } } } } 7 ++@+        ",
"i.'+)+!+K.} } } F Y.~+{+{+{+]+^+/+} } } } } } } } 7 ++@+        ",
"$ (+_+:+<+} } } } [+}+|+|+|+|+%+1+} } } } } } } } 7 ++@+        ",
"    2+3+4+<+K.} } } } } } } } } } } } } } } } } 5+6+7+8+        ",
"    $ 9+0+a+A.} } } } } } } } } } } } } } } } d b+c+d+e+        ",
"      $ f+g+h+A.K.} } } } } } } } } } } } } i+j+k+l+m+          ",
"        $ n+o+p+q+} } } } } } } } } } } } r+s+t+u+$             ",
"          $ v+w+x+y+y+y+y+y+y+y+y+y+y+y+y+z+A+B+$               ",
"            $ 9+C+D+D+D+D+D+D+D+D+D+D+D+D+E+F+e+                ",
"              $ G+H+H+H+H+H+H+H+H+H+H+H+H+I+m+                  ",
"                                                                "};
