/* XPM */
static char * Duck_Right_Half_Turning Right_xpm[] = {
"64 64 4 1",
" 	c #FFFFFF",
".	c #000000",
"+	c #FFE300",
"@	c #FF8B00",
"                                                                ",
".......                                                         ",
".......                                                         ",
".......                                                         ",
"+++++++...                                                      ",
"+++++++...                                                      ",
"+++++++...                                                      ",
"++++++++++...                                                   ",
"++++++++++...                                                   ",
"++++++++++...                                                   ",
"+++++++++++++...                                                ",
"+++++++++++++...                                                ",
"+++++++++++++...                                                ",
"++++......++++++...                                             ",
"++++......++++++...                                             ",
"++++......++++++...                                             ",
"++++......++++++......                                          ",
"++++......++++++......                                          ",
"++++......++++++......                                          ",
"++++++++++++++++@@@@@@......                                    ",
"++++++++++++++++@@@@@@......                                    ",
"++++++++++++++++@@@@@@......                                    ",
"++++++++++++++++@@@@@@@@@@@@...                                 ",
"++++++++++++++++@@@@@@@@@@@@...                                 ",
"++++++++++++++++@@@@@@@@@@@@...                                 ",
"+++++++++++++@@@@@@@@@......                                    ",
"+++++++++++++@@@@@@@@@......                                    ",
"+++++++++++++@@@@@@@@@......                                    ",
"+++++++++++++.........                                          ",
"+++++++++++++.........                                          ",
"+++++++++++++.........                                          ",
"+++++++++++++...                                                ",
"+++++++++++++...                                                ",
"+++++++++++++...                                                ",
"++++++++++++++++...                                             ",
"++++++++++++++++...                                             ",
"++++++++++++++++...                                             ",
"+++++++++++++++++++...                                          ",
"+++++++++++++++++++...                                          ",
"+++++++++++++++++++...                                          ",
"+...+++++++++++++++...                                          ",
"+...+++++++++++++++...                                          ",
"+...+++++++++++++++...                                          ",
".++++++++++++++++++...                                          ",
".++++++++++++++++++...                                          ",
".++++++++++++++++++...                                          ",
".++++++++++++++++++...                                          ",
".++++++++++++++++++...                                          ",
".++++++++++++++++++...                                          ",
"+++++++++++++++++++...                                          ",
"+++++++++++++++++++...                                          ",
"+++++++++++++++++++...                                          ",
"++++++++++++++++...                                             ",
"++++++++++++++++...                                             ",
"++++++++++++++++...                                             ",
"+++++++++++++...                                                ",
"+++++++++++++...                                                ",
"+++++++++++++...                                                ",
"++++++++++...                                                   ",
"++++++++++...                                                   ",
"++++++++++...                                                   ",
"..........                                                      ",
"..........                                                      ",
"..........                                                      "};
