/* XPM */
static char * Duck1_xpm[] = {
"64 64 185 2",
"  	c #FFFFFF",
". 	c #D5D5D5",
"+ 	c #ABABAB",
"@ 	c #AEAEAE",
"# 	c #B1B1B1",
"$ 	c #000000",
"% 	c #2C2C2C",
"& 	c #E5E5E5",
"* 	c #616161",
"= 	c #C3B041",
"- 	c #F1D600",
"; 	c #EFD40A",
"> 	c #606061",
", 	c #E2E2E2",
"' 	c #C6B000",
") 	c #FFE300",
"! 	c #FCE000",
"~ 	c #9F9F9F",
"{ 	c #E9E9E9",
"] 	c #D4D3CE",
"^ 	c #786A00",
"/ 	c #D2BB00",
"( 	c #FDE100",
"_ 	c #776900",
": 	c #ABA591",
"< 	c #F7F7F7",
"[ 	c #303030",
"} 	c #877800",
"| 	c #D3BC00",
"1 	c #CFCFCF",
"2 	c #D9D9D9",
"3 	c #C0C0C0",
"4 	c #B7A422",
"5 	c #B7A300",
"6 	c #CCB500",
"7 	c #E9D000",
"8 	c #BDB69B",
"9 	c #FCFCFC",
"0 	c #A0A0A0",
"a 	c #A59200",
"b 	c #F9F9F9",
"c 	c #DBDBDB",
"d 	c #808080",
"e 	c #C9B64E",
"f 	c #E5CC00",
"g 	c #FEE200",
"h 	c #AB9800",
"i 	c #807100",
"j 	c #B9A500",
"k 	c #EFD500",
"l 	c #88867D",
"m 	c #A8A8A8",
"n 	c #D0D0D0",
"o 	c #887900",
"p 	c #9F8D00",
"q 	c #423A00",
"r 	c #828282",
"s 	c #7E7E7E",
"t 	c #C1C1C1",
"u 	c #C2C2C2",
"v 	c #C1AC00",
"w 	c #A69300",
"x 	c #CBB400",
"y 	c #AD6700",
"z 	c #A65800",
"A 	c #BDA59C",
"B 	c #CECECE",
"C 	c #FF9200",
"D 	c #FF8B00",
"E 	c #B56100",
"F 	c #656565",
"G 	c #EA7F00",
"H 	c #D57300",
"I 	c #CE7A3B",
"J 	c #9D9D9D",
"K 	c #CDCDCD",
"L 	c #F08200",
"M 	c #ADADAD",
"N 	c #ACACAC",
"O 	c #FFB400",
"P 	c #FF8D00",
"Q 	c #B76200",
"R 	c #250F00",
"S 	c #6A6665",
"T 	c #FDFDFD",
"U 	c #FEFEFE",
"V 	c #FFB300",
"W 	c #FAFAFA",
"X 	c #E0E0E0",
"Y 	c #EFEFEF",
"Z 	c #DFDFDF",
"` 	c #B6B6B6",
" .	c #B8A400",
"..	c #E0C700",
"+.	c #DFC700",
"@.	c #ECAB00",
"#.	c #E07900",
"$.	c #B88368",
"%.	c #8B8B8B",
"&.	c #A1A1A1",
"*.	c #EAEAEA",
"=.	c #B4B4B4",
"-.	c #BCBCBC",
";.	c #B3AFA0",
">.	c #C7B100",
",.	c #BDB07A",
"'.	c #B0AFAB",
").	c #C8B100",
"!.	c #AF9C00",
"~.	c #AE9B00",
"{.	c #C3C3C3",
"].	c #C7C7C7",
"^.	c #E7E7E7",
"/.	c #676767",
"(.	c #756700",
"_.	c #C2AD00",
":.	c #3F3700",
"<.	c #302A00",
"[.	c #F7DC00",
"}.	c #EED400",
"|.	c #EFD400",
"1.	c #F2D700",
"2.	c #F4D900",
"3.	c #777468",
"4.	c #6B6B6B",
"5.	c #F0D500",
"6.	c #EBD100",
"7.	c #ECD200",
"8.	c #736500",
"9.	c #999277",
"0.	c #EBEBEB",
"a.	c #F6F6F6",
"b.	c #837400",
"c.	c #E4CB00",
"d.	c #B29E00",
"e.	c #B39F00",
"f.	c #C4AE00",
"g.	c #DCC400",
"h.	c #F9DE00",
"i.	c #A49100",
"j.	c #EDD200",
"k.	c #B09C00",
"l.	c #E3CA00",
"m.	c #857600",
"n.	c #DEC500",
"o.	c #A18F00",
"p.	c #998700",
"q.	c #D0B900",
"r.	c #706300",
"s.	c #6E6100",
"t.	c #383000",
"u.	c #D1BA00",
"v.	c #FBDF00",
"w.	c #A08E00",
"x.	c #B3B3B3",
"y.	c #A2A2A2",
"z.	c #ACA794",
"A.	c #E8CE00",
"B.	c #C9B300",
"C.	c #A29000",
"D.	c #B5A100",
"E.	c #B4A000",
"F.	c #F8F8F8",
"G.	c #D1D1D1",
"H.	c #BDB79F",
"I.	c #A99600",
"J.	c #AEA169",
"K.	c #FFE400",
"L.	c #403700",
"M.	c #818181",
"N.	c #FBFBFB",
"O.	c #888680",
"P.	c #534900",
"Q.	c #362E00",
"R.	c #F5F5F4",
"S.	c #838383",
"T.	c #858585",
"U.	c #8C8982",
"V.	c #F6DB00",
"W.	c #B0A36B",
"X.	c #848484",
"Y.	c #C4C4C4",
"Z.	c #BEB79F",
"`.	c #B9AD79",
" +	c #F2F2F2",
"                                                                                                                                ",
"                                                                                                                                ",
"                                                                                                                                ",
"                                                      . + + + + + + + + + + + + @                                               ",
"                                                      # $ $ $ $ $ $ $ $ $ $ $ $ %                                               ",
"                                                      # $ $ $ $ $ $ $ $ $ $ $ $ %                                               ",
"                                                & * * = - - - - - - - - - - - - ; > * @                                         ",
"                                                , $ $ ' ) ) ) ) ) ) ) ) ) ) ) ) ! $ $ ~                                         ",
"                                            { { ] ^ ^ / ) ) ) ) ) ) ) ) ) ) ) ) ( _ ^ : { { <                                   ",
"                                            [ $ } ) ) ) ) ) ) ) ) ) ) ) ) ) ) ) ) ) ) | $ $ 1                                   ",
"                                            [ $ } ) ) ) ) ) ) ) ) ) ) ) ) ) ) ) ) ) ) | $ $ 1                                   ",
"                                      2 3 3 4 5 6 ) ) ) ) ) ) ) ) ) ) ) ) ) ) ) ) ) ) 7 5 5 8 3 3 9                             ",
"                                      0 $ $ ! ) ) ) ) ) ) ) ) ) ) ) ) ) ) ) ) ) ) ) ) ) ) ) a $ $ b                             ",
"                                      0 $ $ ! ) ) ) ) ) ) ) ) ) ) ) ) ) ) ) ) ) ) ) ) ) ) ) a $ $ b                             ",
"                                c d d e f f g ) ) ) ) ) ) ) ) ) ) ) ) ) ) ) h i i i i j ) ) k f f l d m                         ",
"                                n $ $ / ) ) ) ) ) ) ) ) ) ) ) ) ) ) ) ) ) ) o $ $ $ $ p ) ) ) ) ) q $ r                         ",
"                                n $ $ / ) ) ) ) ) ) ) ) ) ) ) ) ) ) ) ) ) ) o $ $ $ $ p ) ) ) ) ) q $ s < < 9                   ",
"                                n $ $ / ) ) ) ) ) ) ) ) ) ) ) ) ) ) ) ) ) ) o $ $ $ $ p ) ) ) ) ) q $ $ $ $ t                   ",
"                                n $ $ / ) ) ) ) ) ) ) ) ) ) ) ) ) ) ) ) ) ) o $ $ $ $ p ) ) ) ) ) q $ $ $ $ u                   ",
"                                n $ $ / ) ) ) ) ) ) ) ) ) ) ) ) ) ) ) ) ) ) v w w w w x ) ) ) ) ) y z z z z A B B B B .         ",
"                                n $ $ / ) ) ) ) ) ) ) ) ) ) ) ) ) ) ) ) ) ) ) ) ) ) ) ) ) ) ) ) ) C D D D D E $ $ $ $ F         ",
"                                n $ $ / ) ) ) ) ) ) ) ) ) ) ) ) ) ) ) ) ) ) ) ) ) ) ) ) ) ) ) ) ) C D D D D E $ $ $ $ F         ",
"                                n $ $ / ) ) ) ) ) ) ) ) ) ) ) ) ) ) ) ) ) ) ) ) ) ) ) ) ) ) ) ) ) C D D D D G H H H H I J J K   ",
"                                n $ $ / ) ) ) ) ) ) ) ) ) ) ) ) ) ) ) ) ) ) ) ) ) ) ) ) ) ) ) ) ) C D D D D D D D D D L $ $ M   ",
"                                n $ $ / ) ) ) ) ) ) ) ) ) ) ) ) ) ) ) ) ) ) ) ) ) ) ) ) ) ) ) ) ) C D D D D D D D D D L $ $ N   ",
"                                n $ $ / ) ) ) ) ) ) ) ) ) ) ) ) ) ) ) ) ) ) ) ) ) ) ) ) ) ) O P P D D D D D Q R R R R S T T U   ",
"                                n $ $ / ) ) ) ) ) ) ) ) ) ) ) ) ) ) ) ) ) ) ) ) ) ) ) ) ) ) V D D D D D D D E $ $ $ $ F         ",
"          W X X Y         U Z X ` $ $  ...+.g ) ) ) ) ) ) ) ) ) ) ) ) ) ) ) ) ) ) ) ) ) ) ) @.#.#.#.#.#.#.#.$.%.%.%.%.&.        ",
"          *.$ $ =.        b $ $ $ $ $ $ $ $ ! ) ) ) ) ) ) ) ) ) ) ) ) ) ) ) ) ) ) ) ) ) ) ) a $ $ $ $ $ $ $ u                   ",
"          *.$ $ =.        b $ $ $ $ $ $ $ $ ! ) ) ) ) ) ) ) ) ) ) ) ) ) ) ) ) ) ) ) ) ) ) ) a $ $ $ $ $ $ $ u                   ",
"      -.@ ;.>.>.,.@ @ @ @ '.).>.>.>.>.>.>.).!.~.' ) ) ) ) ) ) ) ) ) ) ) ) ) ) ) ) ) ) ) ) ) a $ $ {.].].].].^.                  ",
"      /.$ (.) ) _.$ $ $ $ :.) ) ) ) ) ) ) ) <.$ } ) ) ) ) ) ) ) ) ) ) ) ) ) ) ) ) ) ) ) ) ) a $ $ b                             ",
"      /.$ (.) ) _.$ $ $ $ :.) ) ) ) ) ) ) ) <.$ } ) ) ) ) ) ) ) ) ) ) ) ) ) ) ) ) ) ) ) ) ) a $ $ b                             ",
"      /.$ (.) ) [.}.}.}.}.|.) ) ) ) ) ) ) ) }.}.1.) ) ) ) ) ) ) ) ) ) ) ) ) ) ) ) ) ) ) ) ) 2.}.}.3.4.J                         ",
"      /.$ (.) ) ) ) ) ) ) ) ) ) ) ) ) ) ) ) ) ) ) ) ) ) ) ) ) ) ) ) ) ) ) ) ) ) ) ) ) ) ) ) ) ) ) q $ r                         ",
"      /.$ (.) ) ) ) ) 5.6.7.) ) ) ) ) ) ) ) ) ) ) ) ) ) ) ) ) ) ) ) ) ) ) ) ) ) ) ) ) ) ) ) ) ) ) i 8.9.0.0.a.                  ",
"      /.$ (.) ) ) ) ) b.$ :.) ) ) ) ) ) ) ) ) ) ) ) ) ) ) ) ) ) ) ) ) ) ) ) ) ) ) ) ) ) ) ) ) ) ) ) ) c.$ $ u                   ",
"      /.$ (.) ) ) ) ) b.$ :.) ) ) ) ) ) ) ) ) ) ) ) ) ) ) ) ) ) ) ) ) ) ) ) ) ) ) ) ) ) ) ) ) ) ) ) ) c.$ $ u                   ",
"      /.$ (.) ) ) ) ) >.d.e.f.f.g.) ) ) ) ) ) ) ) ) ) ) ) ) ) ) [.f.f...) ) ) ) ) ) ) ) ) ) ) ) ) ) ) c.$ $ u                   ",
"      /.$ (.) ) ) ) ) ) ) h.$ $ i.) ) ) ) ) ) ) ) ) ) ) ) ) ) ) j.$ $ k.) ) ) ) ) ) ) ) ) ) ) ) ) ) ) c.$ $ u                   ",
"      /.$ (.) ) ) ) ) ) ) h.$ $ i.) ) ) ) ) ) ) ) ) ) ) ) ) ) ) j.$ $ k.) ) ) ) ) ) ) ) ) ) ) ) ) ) ) c.$ $ u                   ",
"      /.$ (.) ) ) ) ) ) ) g l.l.>.m.m.n.) ) ) ) ) ) ) ) ) ) o.m.p.l.l.5.) ) ) ) ) ) ) ) ) ) ) ) ) ) ) c.$ $ u                   ",
"      /.$ (.) ) ) ) ) ) ) ) ) ) q.$ $ / ) ) ) ) ) ) ) ) ) ) r.$ s.) ) ) ) ) ) ) ) ) ) ) ) ) ) ) ) ) ) c.$ $ u                   ",
"      /.$ (.) ) ) ) ) ) ) ) ) ) / t.t.u.v.v.v.v.v.v.v.v.v.v.s.$ s.) ) ) ) ) ) ) ) ) ) ) ) ) ) ) ) ) ) c.$ $ u                   ",
"      /.$ (.) ) ) ) ) ) ) ) ) ) ) ) ) w.$ $ $ $ $ $ $ $ $ $ $ $ s.) ) ) ) ) ) ) ) ) ) ) ) ) ) ) ) ) ) c.$ $ u                   ",
"      /.$ (.) ) ) ) ) ) ) ) ) ) ) ) ) w.$ $ $ $ $ $ $ $ $ $ $ $ s.) ) ) ) ) ) ) ) ) ) ) ) ) ) ) ) ) ) c.$ $ u                   ",
"      x.y.z.u.u.A.) ) ) ) ) ) ) ) ) ) B.C.C.C.C.C.C.C.C.C.C.C.C.D.) ) ) ) ) ) ) ) ) ) ) ) ) ) ) ) ) ) c.$ $ u                   ",
"          *.$ $ E.) ) ) ) ) ) ) ) ) ) ) ) ) ) ) ) ) ) ) ) ) ) ) ) ) ) ) ) ) ) ) ) ) ) ) ) ) ) ) ) ) ) c.$ $ u                   ",
"          *.$ $ E.) ) ) ) ) ) ) ) ) ) ) ) ) ) ) ) ) ) ) ) ) ) ) ) ) ) ) ) ) ) ) ) ) ) ) ) ) ) ) ) ) ) c.$ $ u                   ",
"          F.G.G.H.C.C.}.) ) ) ) ) ) ) ) ) ) ) ) ) ) ) ) ) ) ) ) ) ) ) ) ) ) ) ) ) ) ) ) ) ) ) ) ) I.C.J.G.G.0.                  ",
"                u $ $ c.) ) ) ) ) ) ) ) ) ) ) ) ) ) ) ) ) ) ) ) ) ) ) ) ) ) ) ) ) ) ) ) ) ) ) ) ) q $ r                         ",
"                u $ $ c.) ) ) ) ) ) ) ) ) ) ) ) ) ) ) ) ) ) ) ) ) ) ) ) ) ) ) ) ) ) ) ) ) ) ) ) K.L.$ M.                        ",
"                T N.N.O.t.P.) ) ) ) ) ) ) ) ) ) ) ) ) ) ) ) ) ) ) ) ) ) ) ) ) ) ) ) ) ) ) ) I.t.Q.R.N.9                         ",
"                      S.$ :.) ) ) ) ) ) ) ) ) ) ) ) ) ) ) ) ) ) ) ) ) ) ) ) ) ) ) ) ) ) ) ) a $ $ b                             ",
"                      + T.U.l.l.}.) ) ) ) ) ) ) ) ) ) ) ) ) ) ) ) ) ) ) ) ) ) ) ) ) ) V.l.l.W.T.X.W                             ",
"                          b $ $ i.) ) ) ) ) ) ) ) ) ) ) ) ) ) ) ) ) ) ) ) ) ) ) ) ) ) | $ $ 1                                   ",
"                          b $ $ i.) ) ) ) ) ) ) ) ) ) ) ) ) ) ) ) ) ) ) ) ) ) ) ) ) ) | $ $ 1                                   ",
"                          T Y.Y.Z.d.d.d.d.d.d.d.d.d.d.d.d.d.d.d.d.d.d.d.d.d.d.d.d.d.d.`.Y.Y.0.                                  ",
"                                n $ $ $ $ $ $ $ $ $ $ $ $ $ $ $ $ $ $ $ $ $ $ $ $ $ $ ~                                         ",
"                                n $ $ $ $ $ $ $ $ $ $ $ $ $ $ $ $ $ $ $ $ $ $ $ $ $ $ ~                                         ",
"                                F.0.0.0.0.0.0.0.0.0.0.0.0.0.0.0.0.0.0.0.0.0.0.0.0.0.0. +                                        ",
"                                                                                                                                ",
"                                                                                                                                ",
"                                                                                                                                "};
