/* XPM */
static char * Duck1_2_64_xpm[] = {
"64 64 114 2",
"  	c #FFFFFF",
". 	c #000000",
"+ 	c #0A0A0A",
"@ 	c #897B0D",
"# 	c #E1C800",
"$ 	c #D9C101",
"% 	c #8C7D00",
"& 	c #FFE300",
"* 	c #F4D900",
"= 	c #2E2900",
"- 	c #A18F00",
"; 	c #F6DB00",
"> 	c #0B0B0B",
", 	c #403900",
"' 	c #A89600",
") 	c #7A6D05",
"! 	c #7A6C00",
"~ 	c #9B8A00",
"{ 	c #D2BB00",
"] 	c #807B54",
"^ 	c #F3D800",
"/ 	c #5C5200",
"( 	c #958713",
"_ 	c #C6B000",
": 	c #FCE000",
"< 	c #6B5F00",
"[ 	c #383200",
"} 	c #7B6E00",
"| 	c #DAC200",
"1 	c #A79500",
"2 	c #413A00",
"3 	c #564C00",
"4 	c #100F00",
"5 	c #887900",
"6 	c #5F5400",
"7 	c #958400",
"8 	c #693F00",
"9 	c #5F3300",
"0 	c #FF9000",
"a 	c #FF8B00",
"b 	c #784100",
"c 	c #D27200",
"d 	c #AB5D00",
"e 	c #A05C0A",
"f 	c #DF7900",
"g 	c #FFAC00",
"h 	c #FF8D00",
"i 	c #7C4300",
"j 	c #070400",
"k 	c #F7F7F7",
"l 	c #FAFAFA",
"m 	c #FFAB00",
"n 	c #7B6D00",
"o 	c #BBA600",
"p 	c #FBE000",
"q 	c #D39300",
"r 	c #BB6500",
"s 	c #7C5323",
"t 	c #8F8000",
"u 	c #807833",
"v 	c #706400",
"w 	c #6F6200",
"x 	c #938300",
"y 	c #0F0E00",
"z 	c #0B0A00",
"A 	c #EED400",
"B 	c #DBC300",
"C 	c #DEC500",
"D 	c #DDC500",
"E 	c #E4CB00",
"F 	c #E8CF00",
"G 	c #DFC700",
"H 	c #D6BE00",
"I 	c #D8C000",
"J 	c #3C3500",
"K 	c #C4AE00",
"L 	c #746700",
"M 	c #766900",
"N 	c #8A7B00",
"O 	c #B4A000",
"P 	c #EDD300",
"Q 	c #BEA900",
"R 	c #EFD400",
"S 	c #5B5100",
"T 	c #D9C100",
"U 	c #716400",
"V 	c #FBDF00",
"W 	c #C0AB00",
"X 	c #918100",
"Y 	c #3E3700",
"Z 	c #BDA800",
"` 	c #514800",
" .	c #DCC400",
"..	c #A39100",
"+.	c #262200",
"@.	c #252100",
"#.	c #A89500",
"$.	c #0D0C00",
"%.	c #F1D600",
"&.	c #242000",
"*.	c #574D00",
"=.	c #A59300",
"-.	c #CFB800",
";.	c #928200",
">.	c #594F00",
",.	c #716500",
"'.	c #827D58",
").	c #645900",
"!.	c #6B6326",
"~.	c #C2AD00",
"{.	c #655A00",
"].	c #D7BF00",
"^.	c #E9D000",
"/.	c #7C732E",
"                                                                                                                                ",
"                                                                                                                                ",
"                                                                                                                                ",
"                                                      . . . . . . . . . . . . . .                                               ",
"                                                      . . . . . . . . . . . . . +                                               ",
"                                                      . . . . . . . . . . . . . +                                               ",
"                                                . . . @ # # # # # # # # # # # # $ . . .                                         ",
"                                                . . . % & & & & & & & & & & & & * . . .                                         ",
"                                            . . . = = - & & & & & & & & & & & & ; = = . . . .                                   ",
"                                            > . , & & & & & & & & & & & & & & & & & & ' . . .                                   ",
"                                            > . , & & & & & & & & & & & & & & & & & & ' . . .                                   ",
"                                      . . . ) ! ~ & & & & & & & & & & & & & & & & & & { ! ! ] . . .                             ",
"                                      . . . ^ & & & & & & & & & & & & & & & & & & & & & & & / . . .                             ",
"                                      . . . ^ & & & & & & & & & & & & & & & & & & & & & & & / . . .                             ",
"                                . . . ( _ _ : & & & & & & & & & & & & & & & < [ [ [ [ } & & | _ _ . . .                         ",
"                                . . . 1 & & & & & & & & & & & & & & & & & & 2 . . . . 3 & & & & & 4 . .                         ",
"                                . . . 1 & & & & & & & & & & & & & & & & & & 2 . . . . 3 & & & & & 4 . . . . .                   ",
"                                . . . 1 & & & & & & & & & & & & & & & & & & 2 . . . . 3 & & & & & 4 . . . . .                   ",
"                                . . . 1 & & & & & & & & & & & & & & & & & & 2 . . . . 3 & & & & & 4 . . . . .                   ",
"                                . . . 1 & & & & & & & & & & & & & & & & & & 5 6 6 6 6 7 & & & & & 8 9 9 9 9 . . . . . .         ",
"                                . . . 1 & & & & & & & & & & & & & & & & & & & & & & & & & & & & & 0 a a a a b . . . . .         ",
"                                . . . 1 & & & & & & & & & & & & & & & & & & & & & & & & & & & & & 0 a a a a b . . . . .         ",
"                                . . . 1 & & & & & & & & & & & & & & & & & & & & & & & & & & & & & 0 a a a a c d d d d e . . .   ",
"                                . . . 1 & & & & & & & & & & & & & & & & & & & & & & & & & & & & & 0 a a a a a a a a a f . . .   ",
"                                . . . 1 & & & & & & & & & & & & & & & & & & & & & & & & & & & & & 0 a a a a a a a a a f . . .   ",
"                                . . . 1 & & & & & & & & & & & & & & & & & & & & & & & & & & g h h a a a a a i j j j j . . . .   ",
"                                . . . 1 & & & & & & & & & & & & & & & & & & & & & & & & & & m a a a a a a a b . . . . .         ",
"          . . . .         . . . . . . n o o p & & & & & & & & & & & & & & & & & & & & & & & q r r r r r r r s . . . . .         ",
"          . . . .         . . . . . . . . . ^ & & & & & & & & & & & & & & & & & & & & & & & / . . . . . . . .                   ",
"          . . . .         . . . . . . . . . ^ & & & & & & & & & & & & & & & & & & & & & & & / . . . . . . . .                   ",
"      . . . t t u . . . . . t t t t t t t t v w x & & & & & & & & & & & & & & & & & & & & & / . . . . . . . .                   ",
"      . . . & & 5 . . . . y & & & & & & & & z . , & & & & & & & & & & & & & & & & & & & & & / . . .                             ",
"      . . . & & 5 . . . . y & & & & & & & & z . , & & & & & & & & & & & & & & & & & & & & & / . . .                             ",
"      . . . & & A B B B B C & & & & & & & & D B E & & & & & & & & & & & & & & & & & & & & & F B B . . .                         ",
"      . . . & & & & & & & & & & & & & & & & & & & & & & & & & & & & & & & & & & & & & & & & & & & 4 . .                         ",
"      . . . & & & & & G H I & & & & & & & & & & & & & & & & & & & & & & & & & & & & & & & & & & & . . . . . .                   ",
"      . . . & & & & & J . y & & & & & & & & & & & & & & & & & & & & & & & & & & & & & & & & & & & & & K . . .                   ",
"      . . . & & & & & J . y & & & & & & & & & & & & & & & & & & & & & & & & & & & & & & & & & & & & & K . . .                   ",
"      . . . & & & & & 7 L M N N O & & & & & & & & & & & & & & & P N N Q & & & & & & & & & & & & & & & K . . .                   ",
"      . . . & & & & & & & R . . S & & & & & & & & & & & & & & & T . . U & & & & & & & & & & & & & & & K . . .                   ",
"      . . . & & & & & & & R . . S & & & & & & & & & & & & & & & T . . U & & & & & & & & & & & & & & & K . . .                   ",
"      . . . & & & & & & & V W W X Y Y Z & & & & & & & & & & S Y ` W W  .& & & & & & & & & & & & & & & K . . .                   ",
"      . . . & & & & & & & & & & ... . 1 & & & & & & & & & & +.. @.& & & & & & & & & & & & & & & & & & K . . .                   ",
"      . . . & & & & & & & & & & #.$.$...%.%.%.%.%.%.%.%.%.%.&.. @.& & & & & & & & & & & & & & & & & & K . . .                   ",
"      . . . & & & & & & & & & & & & & *.. . . . . . . . . . . . @.& & & & & & & & & & & & & & & & & & K . . .                   ",
"      . . . & & & & & & & & & & & & & *.. . . . . . . . . . . . @.& & & & & & & & & & & & & & & & & & K . . .                   ",
"      . . . =.=.-.& & & & & & & & & & ;.>.>.>.>.>.>.>.>.>.>.>.>.,.& & & & & & & & & & & & & & & & & & K . . .                   ",
"          . . . M & & & & & & & & & & & & & & & & & & & & & & & & & & & & & & & & & & & & & & & & & & K . . .                   ",
"          . . . M & & & & & & & & & & & & & & & & & & & & & & & & & & & & & & & & & & & & & & & & & & K . . .                   ",
"          . . . '.>.>.I & & & & & & & & & & & & & & & & & & & & & & & & & & & & & & & & & & & & & ).>.!.. . .                   ",
"                . . . ~.& & & & & & & & & & & & & & & & & & & & & & & & & & & & & & & & & & & & & . . .                         ",
"                . . . ~.& & & & & & & & & & & & & & & & & & & & & & & & & & & & & & & & & & & & & . . .                         ",
"                . . . . . . & & & & & & & & & & & & & & & & & & & & & & & & & & & & & & & & {.$.$.. . .                         ",
"                      . . y & & & & & & & & & & & & & & & & & & & & & & & & & & & & & & & & / . . .                             ",
"                      . . . W W ].& & & & & & & & & & & & & & & & & & & & & & & & & & ^.W W . . . .                             ",
"                          . . . S & & & & & & & & & & & & & & & & & & & & & & & & & & ' . . .                                   ",
"                          . . . S & & & & & & & & & & & & & & & & & & & & & & & & & & ' . . .                                   ",
"                          . . . '.L L L L L L L L L L L L L L L L L L L L L L L L L L /.. . .                                   ",
"                                . . . . . . . . . . . . . . . . . . . . . . . . . . . .                                         ",
"                                . . . . . . . . . . . . . . . . . . . . . . . . . . . .                                         ",
"                                . . . . . . . . . . . . . . . . . . . . . . . . . . . .                                         ",
"                                                                                                                                ",
"                                                                                                                                ",
"                                                                                                                                "};
