/* XPM */
static char * Flame_Center_Left_Half_xpm[] = {
"64 64 8 1",
" 	c #FFFFFF",
".	c #000000",
"+	c #FA6A29",
"@	c #1B0B04",
"#	c #FFAE47",
"$	c #FA712C",
"%	c #FCEE58",
"&	c #FEB548",
"                                                                ",
"                                                                ",
"                                                                ",
"                                                                ",
"                                                                ",
"                                                                ",
"                                                          ....  ",
"                                                          ....  ",
"                                                        ..++++@.",
"                                                        ..++++@.",
"                                                        ..++++++",
"                                                        ..++++++",
"                                                      ..++++++++",
"                                                      ..++++++++",
"                                                      ..++##$+++",
"                                                      ..++##$+++",
"                                                    ..++++##$+++",
"                                                    ..++++##$+++",
"                                                  ..++++######$+",
"                                                  ..++++######$+",
"                                                  ..++++########",
"                                                  ..++++########",
"                                                ..++++##########",
"                                                ..++++##########",
"                                                ..++++##########",
"                                                ..++++##########",
"                                      ..      ..++++########%%##",
"                                      ..      ..++++########%%##",
"                                    ..++@.    ..++++########%%%%",
"                                    ..++@.    ..++++########%%%%",
"                                    ..++@.  ..++++++########%%%%",
"                                    ..++@.  ..++++++########%%%%",
"                                    ..++++@.++++++########%%%%%%",
"                                    ..++++@.++++++########%%%%%%",
"                                  ..++++++++++++++########%%%%%%",
"                                  ..++++++++++++++########%%%%%%",
"                                  ..++++##$+++++++########%%%%%%",
"                                  ..++++##$+++++++########%%%%%%",
"                                  ..++++########$+########%%%%%%",
"                                  ..++++########$+########%%%%%%",
"                                  ..++++++##############%%%%%%%%",
"                                  ..++++++##############%%%%%%%%",
"                                  ..++++++############%%%%%%%%%%",
"                                  ..++++++############%%%%%%%%%%",
"                                    ..++++++####%%%%&#%%%%%%%%%%",
"                                    ..++++++####%%%%&#%%%%%%%%%%",
"                                    ..++++++####%%%%%%%%%%%%%%%%",
"                                    ..++++++####%%%%%%%%%%%%%%%%",
"                                    ..++++++######%%%%%%%%%%%%%%",
"                                    ..++++++######%%%%%%%%%%%%%%",
"                                      ..++++++######%%%%%%%%%%%%",
"                                      ..++++++######%%%%%%%%%%%%",
"                                        ..++++######%%%%%%%%%%%%",
"                                        ..++++######%%%%%%%%%%%%",
"                                        ....++++######%%%%%%%%%%",
"                                        ....++++######%%%%%%%%%%",
"                                          ..++++++########%%%%%%",
"                                          ..++++++########%%%%%%",
"                                            ..++++++++####%%%%%%",
"                                            ..++++++++####%%%%%%",
"                                              ........######%%%%",
"                                              ........######%%%%",
"                                                      ..........",
"                                                      .........."};
