/* XPM */
static char * Flame_Center_Right_Half_xpm[] = {
"64 64 9 1",
" 	c #FFFFFF",
".	c #FEFEFE",
"+	c #1B0B04",
"@	c #000000",
"#	c #FA6A29",
"$	c #FA712C",
"%	c #FFAE47",
"&	c #FCEE58",
"*	c #1C1307",
"                                                                ",
"                                                                ",
"                                                                ",
"                                                                ",
"                                                                ",
"                                                                ",
"                                                                ",
"                                                                ",
"                                                                ",
"                                                                ",
"+@                                                              ",
"+@                                                              ",
"+@                                                              ",
"+@                                                              ",
"##+@                                                            ",
"##+@                                                            ",
"####+@                                                          ",
"####+@                                                          ",
"######+@                                                        ",
"######+@                                                        ",
"$#######+@                                                      ",
"$#######+@                                                      ",
"%%$#######+@        @@@@                                        ",
"%%$#######+@        @@@@                                        ",
"%%%%$#####+@        @@##+@                                      ",
"%%%%$#####+@        @@##+@                                      ",
"%%%%$#######+@        @@##+@                                    ",
"%%%%$#######+@        @@##+@                                    ",
"%%%%%%$#####+@        @@####+@                                  ",
"%%%%%%$#####+@        @@####+@                                  ",
"%%%%%%%%$#####+@      @@####+@                                  ",
"%%%%%%%%$#####+@      @@####+@                                  ",
"&&%%%%%%$#####+@    @@######+@                                  ",
"&&%%%%%%$#####+@    @@######+@                                  ",
"&&%%%%%%%%$#####+@  @@######+@                                  ",
"&&%%%%%%%%$#####+@  @@######+@                                  ",
"&&&&%%%%%%$#######@@########+@                                  ",
"&&&&%%%%%%$#######@@########+@                                  ",
"&&&&%%%%%%%%$###############+@                                  ",
"&&&&%%%%%%%%$###############+@                                  ",
"&&&&&&%%%%%%%%%%$#%%%%######+@                                  ",
"&&&&&&%%%%%%%%%%$#%%%%######+@                                  ",
"&&&&&&%%%%%%%%%%%%%%%%######+@                                  ",
"&&&&&&%%%%%%%%%%%%%%%%######+@                                  ",
"&&&&&&&&%%%%&&&&%%%%%%####+@                                    ",
"&&&&&&&&%%%%&&&&%%%%%%####+@                                    ",
"&&&&&&&&%%&&&&&&%%%%%%####+@                                    ",
"&&&&&&&&%%&&&&&&%%%%%%####+@                                    ",
"&&&&&&&&&&&&&&%%%%%%$#####+@                                    ",
"&&&&&&&&&&&&&&%%%%%%$#####+@                                    ",
"&&&&&&&&&&&&&&%%%%%%$###+@                                      ",
"&&&&&&&&&&&&&&%%%%%%$###+@                                      ",
"&&&&&&&&&&&&%%%%%%%%$###+@                                      ",
"&&&&&&&&&&&&%%%%%%%%$###+@                                      ",
"&&&&&&&&&&%%%%%%%%$###+@                                        ",
"&&&&&&&&&&%%%%%%%%$###+@                                        ",
"&&&&&&&&&&%%%%%%$###+@                                          ",
"&&&&&&&&&&%%%%%%$###+@                                          ",
"&&&&&&&&%%%%%%####+@                                            ",
"&&&&&&&&%%%%%%####+@                                            ",
"&&&&&&%%%%%%*@@@@@                                              ",
"&&&&&&%%%%%%*@@@@@                                              ",
"@@@@@@@@@@@@                                                    ",
"@@@@@@@@@@@@                                                    "};
