/* XPM */
static char * Flame_Center_Upper_Half_xpm[] = {
"64 64 8 1",
" 	c #FFFFFF",
".	c #FEFEFE",
"+	c #000000",
"@	c #FA6A29",
"#	c #1B0B04",
"$	c #FFAE47",
"%	c #FA712C",
"&	c #FCEE58",
"                                                        .       ",
"                                                                ",
"                                                                ",
"                                                                ",
"                                                                ",
"                                                                ",
"                                                                ",
"                                                                ",
"                                                                ",
"                                                                ",
"                                                                ",
"                                                                ",
"                                                                ",
"                                                                ",
"                                                                ",
"                                                                ",
"                                                                ",
"                                                                ",
"                                                                ",
"                                                                ",
"                                                                ",
"                                                                ",
"                                                                ",
"                                                                ",
"                                                                ",
"                                                                ",
"                                                                ",
"                                                                ",
"                                                                ",
"                                                                ",
"                                                                ",
"                                                                ",
"                                                                ",
"                                                                ",
"                                                                ",
"                                                                ",
"                                                                ",
"                                                                ",
"                          ++++                                  ",
"                          ++++                                  ",
"                        ++@@@@#+                                ",
"                        ++@@@@#+                                ",
"                        ++@@@@@@#+                              ",
"                        ++@@@@@@#+                              ",
"                      ++@@@@@@@@#+                              ",
"                      ++@@@@@@@@#+                              ",
"                      ++@@$$%@@@@@#+                            ",
"                      ++@@$$%@@@@@#+                            ",
"                    ++@@@@$$%@@@@@@@#+                          ",
"                    ++@@@@$$%@@@@@@@#+                          ",
"                  ++@@@@$$$$$$%@@@@@@@#+                        ",
"                  ++@@@@$$$$$$%@@@@@@@#+                        ",
"                  ++@@@@$$$$$$$$%@@@@@@@#+                      ",
"                  ++@@@@$$$$$$$$%@@@@@@@#+                      ",
"                ++@@@@$$$$$$$$$$$$%@@@@@@@#+        ++++        ",
"                ++@@@@$$$$$$$$$$$$%@@@@@@@#+        ++++        ",
"                ++@@@@$$$$$$$$$$$$$$%@@@@@#+        ++@@#+      ",
"                ++@@@@$$$$$$$$$$$$$$%@@@@@#+        ++@@#+      ",
"      ++      ++@@@@$$$$$$$$&&$$$$$$%@@@@@@@#+        ++@@#+    ",
"      ++      ++@@@@$$$$$$$$&&$$$$$$%@@@@@@@#+        ++@@#+    ",
"    ++@@#+    ++@@@@$$$$$$$$&&&&$$$$$$%@@@@@#+        ++@@@@#+  ",
"    ++@@#+    ++@@@@$$$$$$$$&&&&$$$$$$%@@@@@#+        ++@@@@#+  ",
"    ++@@#+  ++@@@@@@$$$$$$$$&&&&$$$$$$$$%@@@@@#+      ++@@@@#+  ",
"    ++@@#+  ++@@@@@@$$$$$$$$&&&&$$$$$$$$%@@@@@#+      ++@@@@#+  "};
