/* XPM */
static char * Flame_Right_Upper_Half_xpm[] = {
"64 64 6 1",
" 	c #FFFFFF",
".	c #000000",
"+	c #1B0B04",
"@	c #FA6A29",
"#	c #FFAE47",
"$	c #FCEE58",
"                                                                ",
"                                                                ",
"                                                                ",
"                                                                ",
"                                                                ",
"                                                                ",
"                                                                ",
"                                                                ",
"                                                                ",
"                                                                ",
"                                                                ",
"                                                                ",
"                                                                ",
"                                                                ",
"                                                                ",
"                                                                ",
"                                                                ",
"                                                                ",
"                                                                ",
"                                                                ",
"                                                                ",
"                                                                ",
"                                                                ",
"                                                                ",
"                                                                ",
"                                                                ",
"                                                                ",
"                                                                ",
"                                                                ",
"                                                                ",
"                                                                ",
"                                                                ",
"                                                                ",
"                                                                ",
"                                                                ",
"                                                                ",
"                                                                ",
"                              ......                            ",
"                              ......                            ",
"                              .+@@@@....                        ",
"                              .+@@@@....                        ",
"                                ..@@@@@@..                      ",
"                                ..@@@@@@..                      ",
"                              ..@@@@@@@@@@..                    ",
"                              ..@@@@@@@@@@..                    ",
"                              ..@@@@@@@@@@@@..                  ",
"                              ..@@@@@@@@@@@@..                  ",
"                            .+@@@@@@##@@@@@@@@..                ",
"                            .+@@@@@@##@@@@@@@@..                ",
"                          .+@@@@@@@@##@@@@@@@@..                ",
"                          .+@@@@@@@@##@@@@@@@@..                ",
"                        .+@@@@@@@@######@@@@@@..                ",
"                        .+@@@@@@@@######@@@@@@..                ",
"                      .+@@@@@@@@########@@@@@@@@..              ",
"                      .+@@@@@@@@########@@@@@@@@..              ",
"        ....        ..@@@@@@@@############@@@@@@..              ",
"        ....        ..@@@@@@@@############@@@@@@..              ",
"      .+@@..        ..@@@@@@##############@@@@@@..              ",
"      .+@@..        ..@@@@@@##############@@@@@@..              ",
"    .+@@..        .+@@@@@@@@######$$########@@@@..      ..      ",
"    .+@@..        .+@@@@@@@@######$$########@@@@..      ..      ",
"  .+@@@@..        .+@@@@@@######$$$$########@@@@@@..  ..@@..    ",
"  .+@@@@..        .+@@@@@@######$$$$########@@@@@@..  ..@@..    ",
"  .+@@@@..      .+@@@@@@########$$$$########@@@@@@..  ..@@..    "};
