/* XPM */
static char * Flame_Left_Bottom_Half_xpm[] = {
"64 64 9 1",
" 	c #FFFFFF",
".	c #000000",
"+	c #FA6A29",
"@	c #FFAE47",
"#	c #FCEE58",
"$	c #1B0B04",
"%	c #FA712C",
"&	c #1C1C1C",
"*	c #1C1307",
"    ..++++..++++++@@@@@@@@########@@@@@@++++++$.    ..++++++$.  ",
"  ..++++++++++++++@@@@@@@@########@@@@@@@@++++++..  ..++++++$.  ",
"  ..++++++++++++++@@@@@@@@########@@@@@@@@++++++..  ..++++++$.  ",
"  ..++++@@%+++++++@@@@@@@@##########@@@@@@++++++++..++++++++$.  ",
"  ..++++@@%+++++++@@@@@@@@##########@@@@@@++++++++..++++++++$.  ",
"  ..++++@@@@@@@@%+@@@@@@@@##########@@@@@@@@%+++++++++++++++$.  ",
"  ..++++@@@@@@@@%+@@@@@@@@##########@@@@@@@@%+++++++++++++++$.  ",
"  ..++++++@@@@@@@@@@@@@@##############@@@@@@@@@@%+@@@@++++++$.  ",
"  ..++++++@@@@@@@@@@@@@@##############@@@@@@@@@@%+@@@@++++++$.  ",
"  ..++++++@@@@@@@@@@@@################@@@@@@@@@@@@@@@@++++++$.  ",
"  ..++++++@@@@@@@@@@@@################@@@@@@@@@@@@@@@@++++++$.  ",
"    ..++++++@@@@####@@##################@@@@####@@@@@@++++$.    ",
"    ..++++++@@@@####@@##################@@@@####@@@@@@++++$.    ",
"    ..++++++@@@@########################@@######@@@@@@++++$.    ",
"    ..++++++@@@@########################@@######@@@@@@++++$.    ",
"    ..++++++@@@@@@############################@@@@@@++++++$.    ",
"    ..++++++@@@@@@############################@@@@@@++++++$.    ",
"      ..++++++@@@@@@##########################@@@@@@++++$.      ",
"      ..++++++@@@@@@##########################@@@@@@++++$.      ",
"        &.++++@@@@@@########################@@@@@@@@++++$.      ",
"        &.++++@@@@@@########################@@@@@@@@++++$.      ",
"          ..++++@@@@@@####################@@@@@@@@++++$.        ",
"          ..++++@@@@@@####################@@@@@@@@++++$.        ",
"          &.++++++@@@@@@@@################@@@@@@++++$.          ",
"          &.++++++@@@@@@@@################@@@@@@++++$.          ",
"            &.++++++++@@@@##############@@@@@@++++$.            ",
"            &.++++++++@@@@##############@@@@@@++++$.            ",
"              &.......@@@@@@##########@@@@@@*.....              ",
"              &.......@@@@@@##########@@@@@@*.....              ",
"                      &.....................                    ",
"                      &.....................                    ",
"                                                                ",
"                                                                ",
"                                                                ",
"                                                                ",
"                                                                ",
"                                                                ",
"                                                                ",
"                                                                ",
"                                                                ",
"                                                                ",
"                                                                ",
"                                                                ",
"                                                                ",
"                                                                ",
"                                                                ",
"                                                                ",
"                                                                ",
"                                                                ",
"                                                                ",
"                                                                ",
"                                                                ",
"                                                                ",
"                                                                ",
"                                                                ",
"                                                                ",
"                                                                ",
"                                                                ",
"                                                                ",
"                                                                ",
"                                                                ",
"                                                                ",
"                                                                ",
"                                                                "};
