/* XPM */
static char * Flame_Left_Upper_Half_xpm[] = {
"64 64 6 1",
" 	c #FFFFFF",
".	c #000000",
"+	c #FA6A29",
"@	c #1B0B04",
"#	c #FFAE47",
"$	c #FCEE58",
"                                                                ",
"                                                                ",
"                                                                ",
"                                                                ",
"                                                                ",
"                                                                ",
"                                                                ",
"                                                                ",
"                                                                ",
"                                                                ",
"                                                                ",
"                                                                ",
"                                                                ",
"                                                                ",
"                                                                ",
"                                                                ",
"                                                                ",
"                                                                ",
"                                                                ",
"                                                                ",
"                                                                ",
"                                                                ",
"                                                                ",
"                                                                ",
"                                                                ",
"                                                                ",
"                                                                ",
"                                                                ",
"                                                                ",
"                                                                ",
"                                                                ",
"                                                                ",
"                                                                ",
"                                                                ",
"                                                                ",
"                                                                ",
"                            ......                              ",
"                            ......                              ",
"                        ....++++@.                              ",
"                        ....++++@.                              ",
"                      ..++++++..                                ",
"                      ..++++++..                                ",
"                    ..++++++++++..                              ",
"                    ..++++++++++..                              ",
"                  ..++++++++++++..                              ",
"                  ..++++++++++++..                              ",
"                ..++++++++##++++++@.                            ",
"                ..++++++++##++++++@.                            ",
"                ..++++++++##++++++++@.                          ",
"                ..++++++++##++++++++@.                          ",
"                ..++++++######++++++++@.                        ",
"                ..++++++######++++++++@.                        ",
"              ..++++++++########++++++++@.                      ",
"              ..++++++++########++++++++@.                      ",
"              ..++++++############++++++++..        ....        ",
"              ..++++++############++++++++..        ....        ",
"              ..++++++##############++++++..        ..++@.      ",
"              ..++++++##############++++++..        ..++@.      ",
"      ..      ..++++########$$######++++++++@.        ..++@.    ",
"      ..      ..++++########$$######++++++++@.        ..++@.    ",
"    ..++..  ..++++++########$$$$######++++++@.        ..++++@.  ",
"    ..++..  ..++++++########$$$$######++++++@.        ..++++@.  ",
"    ..++..  ..++++++########$$$$########++++++@.      ..++++@.  ",
"    ..++..  ..++++++########$$$$########++++++@.      ..++++@.  "};
