/* XPM */
static char * Flame_Center_xpm[] = {
"64 64 9 1",
" 	c #FFFFFF",
".	c #000000",
"+	c #FA6A29",
"@	c #1B0B04",
"#	c #FFAE47",
"$	c #FA712C",
"%	c #FCEE58",
"&	c #FEB548",
"*	c #1C1307",
"                                                                ",
"                                                                ",
"                                                                ",
"                                                                ",
"                                                                ",
"                                                                ",
"                          ....                                  ",
"                          ....                                  ",
"                        ..++++@.                                ",
"                        ..++++@.                                ",
"                        ..++++++@.                              ",
"                        ..++++++@.                              ",
"                      ..++++++++@.                              ",
"                      ..++++++++@.                              ",
"                      ..++##$+++++@.                            ",
"                      ..++##$+++++@.                            ",
"                    ..++++##$+++++++@.                          ",
"                    ..++++##$+++++++@.                          ",
"                  ..++++######$+++++++@.                        ",
"                  ..++++######$+++++++@.                        ",
"                  ..++++########$+++++++@.                      ",
"                  ..++++########$+++++++@.                      ",
"                ..++++############$+++++++@.        ....        ",
"                ..++++############$+++++++@.        ....        ",
"                ..++++##############$+++++@.        ..++@.      ",
"                ..++++##############$+++++@.        ..++@.      ",
"      ..      ..++++########%%######$+++++++@.        ..++@.    ",
"      ..      ..++++########%%######$+++++++@.        ..++@.    ",
"    ..++@.    ..++++########%%%%######$+++++@.        ..++++@.  ",
"    ..++@.    ..++++########%%%%######$+++++@.        ..++++@.  ",
"    ..++@.  ..++++++########%%%%########$+++++@.      ..++++@.  ",
"    ..++@.  ..++++++########%%%%########$+++++@.      ..++++@.  ",
"    ..++++@.++++++########%%%%%%%%######$+++++@.    ..++++++@.  ",
"    ..++++@.++++++########%%%%%%%%######$+++++@.    ..++++++@.  ",
"  ..++++++++++++++########%%%%%%%%########$+++++@.  ..++++++@.  ",
"  ..++++++++++++++########%%%%%%%%########$+++++@.  ..++++++@.  ",
"  ..++++##$+++++++########%%%%%%%%%%######$+++++++..++++++++@.  ",
"  ..++++##$+++++++########%%%%%%%%%%######$+++++++..++++++++@.  ",
"  ..++++########$+########%%%%%%%%%%########$+++++++++++++++@.  ",
"  ..++++########$+########%%%%%%%%%%########$+++++++++++++++@.  ",
"  ..++++++##############%%%%%%%%%%%%%%##########$+####++++++@.  ",
"  ..++++++##############%%%%%%%%%%%%%%##########$+####++++++@.  ",
"  ..++++++############%%%%%%%%%%%%%%%%################++++++@.  ",
"  ..++++++############%%%%%%%%%%%%%%%%################++++++@.  ",
"    ..++++++####%%%%&#%%%%%%%%%%%%%%%%%%####%%%%######++++@.    ",
"    ..++++++####%%%%&#%%%%%%%%%%%%%%%%%%####%%%%######++++@.    ",
"    ..++++++####%%%%%%%%%%%%%%%%%%%%%%%%##%%%%%%######++++@.    ",
"    ..++++++####%%%%%%%%%%%%%%%%%%%%%%%%##%%%%%%######++++@.    ",
"    ..++++++######%%%%%%%%%%%%%%%%%%%%%%%%%%%%######$+++++@.    ",
"    ..++++++######%%%%%%%%%%%%%%%%%%%%%%%%%%%%######$+++++@.    ",
"      ..++++++######%%%%%%%%%%%%%%%%%%%%%%%%%%######$+++@.      ",
"      ..++++++######%%%%%%%%%%%%%%%%%%%%%%%%%%######$+++@.      ",
"        ..++++######%%%%%%%%%%%%%%%%%%%%%%%%########$+++@.      ",
"        ..++++######%%%%%%%%%%%%%%%%%%%%%%%%########$+++@.      ",
"        ....++++######%%%%%%%%%%%%%%%%%%%%########$+++@.        ",
"        ....++++######%%%%%%%%%%%%%%%%%%%%########$+++@.        ",
"          ..++++++########%%%%%%%%%%%%%%%%######$+++@.          ",
"          ..++++++########%%%%%%%%%%%%%%%%######$+++@.          ",
"            ..++++++++####%%%%%%%%%%%%%%######++++@.            ",
"            ..++++++++####%%%%%%%%%%%%%%######++++@.            ",
"              ........######%%%%%%%%%%######*.....              ",
"              ........######%%%%%%%%%%######*.....              ",
"                      ......................                    ",
"                      ......................                    "};
