/* XPM */
static char * Floor__50Brightness_xpm[] = {
"64 64 3 1",
" 	c #850A0A",
".	c #8C0A0A",
"+	c #920A0A",
"       .. ...+.        . . ..+.        . . ..+.        . . ..+. ",
"      .....+.+.       .....+.+.        ......+.      ........+. ",
"      ....+++.        . ..++++        . ..++++        ....++++  ",
"    .....+.+        .....+.+        ... .+...       ... .+...   ",
"  .......+++      .......+++      .......+++      .......+++    ",
"  .......+.       ........+        .......+        .......+     ",
" . ....+..         ....+..       . ....+.+       . ....+.+      ",
". ....+++       . .....++       . ....+++.      . ....+++.      ",
"  ....+++         ....+++        .....+++       . ....+++       ",
" ....++.         . ..++.        .. ..++.        .. ..++.        ",
".+....          .+...+         .......         ..+...+         .",
"...+.         .....+.         ....++.         ....+..         ..",
"+.+         .  .+.+         .  .+.+.        .. .+.+.       ... .",
"++         ....+++         ....+++         ....+++         ....+",
"+.      .  .....++         .....++      .  ... +++      .  ... +",
".       . .....+.       .......+.       .......+.       .......+",
"       .. ...+.        . ....+.        ... ..+.        ... ..+. ",
"      .....+.+.       .....+.+.       .....+.+.       .....+.+. ",
"      . ..++++        . ..++++    .   . ..++++        . ..++++  ",
"    .........       .........       ... ...+.       ... ...+.   ",
"   ....+.+++      .......+++      .......+++      .......+++    ",
"  .......++       ........+        .......+        .......+     ",
"   ....+.+       . ....+.+       . ....+.+       . ....+.+      ",
". ......+       . ......+.      . ......+.      . .....++.      ",
". ....+++         ....+++       . ....+++       . ....+++       ",
"   ..++.        .  ..++.        .  ..++.        .. ..++.        ",
".+...+         ..+...+         . ....+         . ....+         .",
"...+.         .....+.         .....+.         ....++.         ..",
"+.+         .  .+.+         .. .+.+.        .  .+.+.        .. .",
".+         ....+.+         ....+.+         . ..+.+         . ..+",
"++      .  . ...++      .  . ...++      .  ....+++         ....+",
".       .........        ........        ......+.        ......+",
"       .. ...+.        ..  ..+.        ..  ..+.        ... ..+. ",
"      .. ..+.+.        . ..+.+.       .. ..+.+.       .. ..+.+. ",
"      ....++++    .     ..++++          ..++++    .  .  ..++++  ",
"    .......+.       .......+.       ... ...+.       ... ...+.   ",
"  .....+.+++      .......+++      .......+++      .......+++    ",
"  .. ...+++       ........+       ........+       ........+     ",
" . ....+..       . ....+.+       . ....+.+       . ....+.+      ",
". ......+.      . ......+.      . ......+.      . .. ...+.      ",
". ....+++         ....+++       . ....+++       . ....+++       ",
"   ..+++           ..+++        .  ..++.        .  ..+++        ",
" +...+         . +...+         . ....+         . ....+         .",
"...+.         .....+.         .....++         ....+.+         ..",
"+.+         .. .+.+.        .. .+.+.        .. .+.+.        .. .",
".+          ...+.+          ...+.+           ..+.+           ..+",
"++      .  . ..+++      .  ....+++      .  ....+++      .  ....+",
".        ........        ........        ........        .......",
"        . ...+.         .  ..+.         .. ..+.         .. ..+. ",
"      .. ..+.+.        . ..+.+.       .. ..+.+.       .. ..+.+. ",
"      . ..++++        . ..++++    .   . ..++++    .  .. ..++++  ",
"    .........     . .......+.     . ... ...+.       ... ...+.   ",
"  .....+.+++      .......+++      .......+++      .......+++    ",
"  .. ..++.+       .. ...+.+       .. ...+.+       ..  ..+.+     ",
" . ....+.+       . ....+.+       . ....+.+       . ....+.+      ",
". . ....+.      . . ....+.      . .  ...+.      ...  ...++      ",
". ....+++         ....+++       . ....+++       . ....+++       ",
".  ..+++        .  ..+++           ..+++        .  ..+++        ",
" +...+         ..+...+         . ....+         . ....+         .",
"...+.         .....+.         .....++         ......+         ..",
"+.+         .. .+.+.        .. .+.+.        .. .+.++        .. .",
".+           ..+.+           ..+.+        .  ..+.+       .   ..+",
"++      .  . ...++      .  . ..+++      .  ....+++         ....+",
".        ........    .   ........        .......+        ......."};
