/* XPM */
static char * Jumping_Bunny_Right_Bottom_Half_xpm[] = {
"64 64 115 2",
"  	c #FFFFFF",
". 	c #8C8C8C",
"+ 	c #0C0C0C",
"@ 	c #DFDFDF",
"# 	c #F2F2F1",
"$ 	c #F7F7F6",
"% 	c #FFFFFE",
"& 	c #A3A3A3",
"* 	c #030303",
"= 	c #000000",
"- 	c #282828",
"; 	c #868686",
"> 	c #696969",
", 	c #141414",
"' 	c #5C5C5C",
") 	c #494949",
"! 	c #E9E9E9",
"~ 	c #E7E7E7",
"{ 	c #9B9B9B",
"] 	c #171717",
"^ 	c #525252",
"/ 	c #C1C1C0",
"( 	c #ABABAB",
"_ 	c #EBEBEB",
": 	c #A2A2A2",
"< 	c #414140",
"[ 	c #BBBBBA",
"} 	c #B5B5B5",
"| 	c #9E9E9D",
"1 	c #C3C3C2",
"2 	c #A0A0A0",
"3 	c #3B3B3B",
"4 	c #585857",
"5 	c #5F5F5F",
"6 	c #C3C3C3",
"7 	c #EDEDED",
"8 	c #CECECD",
"9 	c #BDBDBD",
"0 	c #252525",
"a 	c #111111",
"b 	c #434343",
"c 	c #6F6F6F",
"d 	c #9F9F9F",
"e 	c #959595",
"f 	c #9A9A9A",
"g 	c #9F9F9E",
"h 	c #636363",
"i 	c #828282",
"j 	c #B8B8B8",
"k 	c #B2B2B2",
"l 	c #D9D9D9",
"m 	c #EDEDEC",
"n 	c #D1D1D1",
"o 	c #7B7B7B",
"p 	c #3F3F3F",
"q 	c #838383",
"r 	c #D0D0D0",
"s 	c #CBCBCB",
"t 	c #949494",
"u 	c #333332",
"v 	c #D8D8D7",
"w 	c #FEFEFE",
"x 	c #EFEFEF",
"y 	c #0F0F0E",
"z 	c #EEEEED",
"A 	c #F5F5F5",
"B 	c #7B7B7A",
"C 	c #909090",
"D 	c #EAEAE9",
"E 	c #F1F1F0",
"F 	c #747474",
"G 	c #1C1C1C",
"H 	c #F4F4F3",
"I 	c #676767",
"J 	c #090909",
"K 	c #F9F9F9",
"L 	c #383838",
"M 	c #C6C6C5",
"N 	c #FAFAF9",
"O 	c #F8F8F8",
"P 	c #787878",
"Q 	c #5E5E5E",
"R 	c #A2A2A1",
"S 	c #CDCDCD",
"T 	c #6E6E6E",
"U 	c #E3E3E3",
"V 	c #858585",
"W 	c #A5A5A4",
"X 	c #6A6A6A",
"Y 	c #060606",
"Z 	c #303030",
"` 	c #414141",
" .	c #979796",
"..	c #595959",
"+.	c #5B5B5B",
"@.	c #CFCFCE",
"#.	c #DEDEDD",
"$.	c #686868",
"%.	c #848484",
"&.	c #E6E6E6",
"*.	c #A8A8A7",
"=.	c #ABABAA",
"-.	c #888888",
";.	c #E1E1E1",
">.	c #CECECE",
",.	c #353535",
"'.	c #C9C9C8",
").	c #939393",
"!.	c #D8D8D8",
"~.	c #878787",
"{.	c #404040",
"].	c #818181",
"^.	c #8E8E8E",
"/.	c #F6F6F6",
"(.	c #EEEEEE",
"            . + + @ # $ % % % % % % % % % % % % % % % % % % % % % % & + + + + + + + * = -               ; + + + + >             ",
"                  , = ' % % % % % % % % % % % % % % % % % % % % % % % % % % % % % % ) = -                                       ",
"                  , = ' % % % % % % % % % % % % % % % % % % % % % % % % % % % % % % ) = -                                       ",
"                  ! ~ { ] ] ] ] ^ % % % % % % % % % % % % % % % % % % % % % % / ] ] ( ~ _                                       ",
"                      : = = = = < % % % % % % % % % % % % % % % % % % % % % % [ = = }                                           ",
"                      : = = | 1 2 3 3 3 3 4 % % % % % % % % % % ) 3 3 3 3 3 3 5 6 6 7                                           ",
"                      : = = 8 % 9 = = = = 0 % % % % % % % % % % a = = = = = = b                                                 ",
"                      : = = 8 % 9 = = c d e 5 5 5 5 5 5 5 5 5 5 f g h = = i d j                                                 ",
"                      : = = 8 % 9 = = k   l = = = = = = = = = = m % g = = n                                                     ",
"                      : = = 8 % 9 = = k   _ o o o o o o o p = = m % g = = n                                                     ",
"                      : = = 8 % 9 = = k                   q = = m % g = = n                                                     ",
"                      : = = 8 % 9 = = k                   q = = m % g = = n                                                     ",
"                      : = = 8 % 9 = = k                   q = = m % g = = n                                                     ",
"                  r s t u u v % 9 = = k                   q = = m % g = = n                                                     ",
"                  , = ' % % % % 9 = = k                   q = = m % g = = n                                                     ",
"                  , = ' % % % % 9 = = k             w x x q y y z % g = = n                                                     ",
"                  , = ' % % % % 9 = = k             A = = B % % % % g = = n                                                     ",
"                  , = ' % % % % 9 = = k             A = = B % % % % g = = n                                                     ",
"            C , , v D E % % % % 9 = = k         F , G D D H % % % % g = = n                                                     ",
"            ; = = D % % % % % % 9 = = k         I = J % % % % % % % g = = n                                                     ",
"      K L L o M M N % % % % % % 9 = = k         I = J % % % % % % % g = = n                                                     ",
"      O = = P % % % % % % % % % 9 = = k         I = J % % % % % % % g = = n                                                     ",
"  2 ' Q R R S % % % % % % % o ' T : : U   ~ ' ' V R W % % % % % % % g = = n                                                     ",
"  X = Y % % % % % % % % % % Z = `         l = =  .% % % % % % % % % g = = n                                                     ",
"  X = Y % % % % % % % % % % Z = `         l = =  .% % % % % % % % % g = = n                                                     ",
"  X = Y % % % % % % % % % % Z = `         l = =  .% % % % % % % % % g = = n                                                     ",
"  d ..+.W W @.% % % % #.W W $...%.        &.....; W *.% % % % % =.W -.....;.                                                    ",
"      O = = P % % % % R = = >.                  I = J % % % % % a = 5                                                           ",
"      K ,.,.o '.'.'.'.).,.,.!.                  ~.,.3 '.'.'.'.'.{.,.].                                                          ",
"            ; = = = = '                             A = = = = = 7                                                               ",
"            ^.a a a a $.                            /.a a a a a (.                                                              ",
"                                                                                                                                ",
"                                                                                                                                ",
"                                                                                                                                ",
"                                                                                                                                ",
"                                                                                                                                ",
"                                                                                                                                ",
"                                                                                                                                ",
"                                                                                                                                ",
"                                                                                                                                ",
"                                                                                                                                ",
"                                                                                                                                ",
"                                                                                                                                ",
"                                                                                                                                ",
"                                                                                                                                ",
"                                                                                                                                ",
"                                                                                                                                ",
"                                                                                                                                ",
"                                                                                                                                ",
"                                                                                                                                ",
"                                                                                                                                ",
"                                                                                                                                ",
"                                                                                                                                ",
"                                                                                                                                ",
"                                                                                                                                ",
"                                                                                                                                ",
"                                                                                                                                ",
"                                                                                                                                ",
"                                                                                                                                ",
"                                                                                                                                ",
"                                                                                                                                ",
"                                                                                                                                ",
"                                                                                                                                ",
"                                                                                                                                "};
