/* XPM */
static char * Jumping_Bunny_Left_Bottom_Half_xpm[] = {
"64 64 115 2",
"  	c #FFFFFF",
". 	c #696969",
"+ 	c #0C0C0C",
"@ 	c #868686",
"# 	c #282828",
"$ 	c #000000",
"% 	c #030303",
"& 	c #A3A3A3",
"* 	c #FFFFFE",
"= 	c #F7F7F6",
"- 	c #F2F2F1",
"; 	c #DFDFDF",
"> 	c #8C8C8C",
", 	c #494949",
"' 	c #5C5C5C",
") 	c #141414",
"! 	c #EBEBEB",
"~ 	c #E7E7E7",
"{ 	c #ABABAB",
"] 	c #171717",
"^ 	c #C1C1C0",
"/ 	c #525252",
"( 	c #9B9B9B",
"_ 	c #E9E9E9",
": 	c #B5B5B5",
"< 	c #BBBBBA",
"[ 	c #414140",
"} 	c #A2A2A2",
"| 	c #EDEDED",
"1 	c #C3C3C3",
"2 	c #5F5F5F",
"3 	c #3B3B3B",
"4 	c #585857",
"5 	c #A0A0A0",
"6 	c #C3C3C2",
"7 	c #9E9E9D",
"8 	c #434343",
"9 	c #111111",
"0 	c #252525",
"a 	c #BDBDBD",
"b 	c #CECECD",
"c 	c #B8B8B8",
"d 	c #9F9F9F",
"e 	c #828282",
"f 	c #636363",
"g 	c #9F9F9E",
"h 	c #9A9A9A",
"i 	c #959595",
"j 	c #6F6F6F",
"k 	c #D1D1D1",
"l 	c #EDEDEC",
"m 	c #D9D9D9",
"n 	c #B2B2B2",
"o 	c #3F3F3F",
"p 	c #7B7B7B",
"q 	c #838383",
"r 	c #D8D8D7",
"s 	c #333332",
"t 	c #949494",
"u 	c #CBCBCB",
"v 	c #D0D0D0",
"w 	c #EEEEED",
"x 	c #0F0F0E",
"y 	c #EFEFEF",
"z 	c #FEFEFE",
"A 	c #7B7B7A",
"B 	c #F5F5F5",
"C 	c #F4F4F3",
"D 	c #EAEAE9",
"E 	c #1C1C1C",
"F 	c #747474",
"G 	c #F1F1F0",
"H 	c #909090",
"I 	c #090909",
"J 	c #676767",
"K 	c #FAFAF9",
"L 	c #C6C6C5",
"M 	c #383838",
"N 	c #F9F9F9",
"O 	c #787878",
"P 	c #F8F8F8",
"Q 	c #A5A5A4",
"R 	c #A2A2A1",
"S 	c #858585",
"T 	c #E3E3E3",
"U 	c #6E6E6E",
"V 	c #CDCDCD",
"W 	c #5E5E5E",
"X 	c #979796",
"Y 	c #414141",
"Z 	c #303030",
"` 	c #060606",
" .	c #6A6A6A",
"..	c #E1E1E1",
"+.	c #595959",
"@.	c #888888",
"#.	c #ABABAA",
"$.	c #A8A8A7",
"%.	c #E6E6E6",
"&.	c #848484",
"*.	c #686868",
"=.	c #DEDEDD",
"-.	c #CFCFCE",
";.	c #5B5B5B",
">.	c #CECECE",
",.	c #818181",
"'.	c #353535",
").	c #404040",
"!.	c #C9C9C8",
"~.	c #878787",
"{.	c #D8D8D8",
"].	c #939393",
"^.	c #EEEEEE",
"/.	c #F6F6F6",
"(.	c #8E8E8E",
"            . + + + + @               # $ % + + + + + + + & * * * * * * * * * * * * * * * * * * * * * * = - ; + + >             ",
"                                      # $ , * * * * * * * * * * * * * * * * * * * * * * * * * * * * * * ' $ )                   ",
"                                      # $ , * * * * * * * * * * * * * * * * * * * * * * * * * * * * * * ' $ )                   ",
"                                      ! ~ { ] ] ^ * * * * * * * * * * * * * * * * * * * * * * / ] ] ] ] ( ~ _                   ",
"                                          : $ $ < * * * * * * * * * * * * * * * * * * * * * * [ $ $ $ $ }                       ",
"                                          | 1 1 2 3 3 3 3 3 3 , * * * * * * * * * * 4 3 3 3 3 5 6 7 $ $ }                       ",
"                                                8 $ $ $ $ $ $ 9 * * * * * * * * * * 0 $ $ $ $ a * b $ $ }                       ",
"                                                c d e $ $ f g h 2 2 2 2 2 2 2 2 2 2 i d j $ $ a * b $ $ }                       ",
"                                                    k $ $ g * l $ $ $ $ $ $ $ $ $ $ m   n $ $ a * b $ $ }                       ",
"                                                    k $ $ g * l $ $ o p p p p p p p !   n $ $ a * b $ $ }                       ",
"                                                    k $ $ g * l $ $ q                   n $ $ a * b $ $ }                       ",
"                                                    k $ $ g * l $ $ q                   n $ $ a * b $ $ }                       ",
"                                                    k $ $ g * l $ $ q                   n $ $ a * b $ $ }                       ",
"                                                    k $ $ g * l $ $ q                   n $ $ a * r s s t u v                   ",
"                                                    k $ $ g * l $ $ q                   n $ $ a * * * * ' $ )                   ",
"                                                    k $ $ g * w x x q y y z             n $ $ a * * * * ' $ )                   ",
"                                                    k $ $ g * * * * A $ $ B             n $ $ a * * * * ' $ )                   ",
"                                                    k $ $ g * * * * A $ $ B             n $ $ a * * * * ' $ )                   ",
"                                                    k $ $ g * * * * C D D E ) F         n $ $ a * * * * G D r ) ) H             ",
"                                                    k $ $ g * * * * * * * I $ J         n $ $ a * * * * * * D $ $ @             ",
"                                                    k $ $ g * * * * * * * I $ J         n $ $ a * * * * * * K L L p M M N       ",
"                                                    k $ $ g * * * * * * * I $ J         n $ $ a * * * * * * * * * O $ $ P       ",
"                                                    k $ $ g * * * * * * * Q R S ' ' ~   T } } U ' p * * * * * * * V R R W ' 5   ",
"                                                    k $ $ g * * * * * * * * * X $ $ m         Y $ Z * * * * * * * * * * ` $  .  ",
"                                                    k $ $ g * * * * * * * * * X $ $ m         Y $ Z * * * * * * * * * * ` $  .  ",
"                                                    k $ $ g * * * * * * * * * X $ $ m         Y $ Z * * * * * * * * * * ` $  .  ",
"                                                    ..+.+.@.Q #.* * * * * $.Q @ +.+.%.        &.+.*.Q Q =.* * * * -.Q Q ;.+.d   ",
"                                                          2 $ 9 * * * * * I $ J                   >.$ $ R * * * * O $ $ P       ",
"                                                          ,.'.).!.!.!.!.!.3 '.~.                  {.'.'.].!.!.!.!.p '.'.N       ",
"                                                              | $ $ $ $ $ B                             ' $ $ $ $ @             ",
"                                                              ^.9 9 9 9 9 /.                            *.9 9 9 9 (.            ",
"                                                                                                                                ",
"                                                                                                                                ",
"                                                                                                                                ",
"                                                                                                                                ",
"                                                                                                                                ",
"                                                                                                                                ",
"                                                                                                                                ",
"                                                                                                                                ",
"                                                                                                                                ",
"                                                                                                                                ",
"                                                                                                                                ",
"                                                                                                                                ",
"                                                                                                                                ",
"                                                                                                                                ",
"                                                                                                                                ",
"                                                                                                                                ",
"                                                                                                                                ",
"                                                                                                                                ",
"                                                                                                                                ",
"                                                                                                                                ",
"                                                                                                                                ",
"                                                                                                                                ",
"                                                                                                                                ",
"                                                                                                                                ",
"                                                                                                                                ",
"                                                                                                                                ",
"                                                                                                                                ",
"                                                                                                                                ",
"                                                                                                                                ",
"                                                                                                                                ",
"                                                                                                                                ",
"                                                                                                                                ",
"                                                                                                                                "};
