/* XPM */
static char * Jumping_Bunny_Right_Left_Half_xpm[] = {
"64 64 140 2",
"  	c #FFFFFF",
". 	c #FBFBFB",
"+ 	c #F8F8F8",
"@ 	c #676767",
"# 	c #000000",
"$ 	c #484848",
"% 	c #1D1D1D",
"& 	c #919191",
"* 	c #E1E1E0",
"= 	c #303030",
"- 	c #979796",
"; 	c #FFFFFE",
"> 	c #A5A5A5",
", 	c #414141",
"' 	c #BDBDBC",
") 	c #E4E4E3",
"! 	c #868686",
"~ 	c #CECECD",
"{ 	c #FAFAFA",
"] 	c #656565",
"^ 	c #7E7E7D",
"/ 	c #999998",
"( 	c #0C0C0C",
"_ 	c #373737",
": 	c #EBEBEA",
"< 	c #F9F9F8",
"[ 	c #787878",
"} 	c #141414",
"| 	c #5C5C5C",
"1 	c #F5F5F4",
"2 	c #BABABA",
"3 	c #898989",
"4 	c #888888",
"5 	c #757575",
"6 	c #7E7E7E",
"7 	c #898988",
"8 	c #777776",
"9 	c #A7A7A6",
"0 	c #B9B9B8",
"a 	c #6A6A6A",
"b 	c #060606",
"c 	c #868685",
"d 	c #EAEAE9",
"e 	c #090909",
"f 	c #F3F3F2",
"g 	c #ADADAC",
"h 	c #515151",
"i 	c #575757",
"j 	c #D9D9D8",
"k 	c #858585",
"l 	c #2D2D2D",
"m 	c #313131",
"n 	c #D1D1D0",
"o 	c #6E6E6E",
"p 	c #DFDFDE",
"q 	c #A9A9A8",
"r 	c #4C4C4B",
"s 	c #252525",
"t 	c #040404",
"u 	c #FCFCFB",
"v 	c #50504F",
"w 	c #BDBDBD",
"x 	c #B2B2B2",
"y 	c #1A1A1A",
"z 	c #797979",
"A 	c #2B2B2A",
"B 	c #4E4E4D",
"C 	c #F7F7F6",
"D 	c #414140",
"E 	c #C5C5C4",
"F 	c #C0C0BF",
"G 	c #D0D0CF",
"H 	c #545454",
"I 	c #7D7D7C",
"J 	c #AAAAAA",
"K 	c #F8F8F7",
"L 	c #8C8C8C",
"M 	c #DFDFDF",
"N 	c #F2F2F1",
"O 	c #E9E9E9",
"P 	c #E7E7E7",
"Q 	c #9B9B9B",
"R 	c #171717",
"S 	c #525252",
"T 	c #A2A2A2",
"U 	c #9E9E9D",
"V 	c #C3C3C2",
"W 	c #A0A0A0",
"X 	c #3B3B3B",
"Y 	c #585857",
"Z 	c #6F6F6F",
"` 	c #9F9F9F",
" .	c #959595",
"..	c #5F5F5F",
"+.	c #D9D9D9",
"@.	c #EBEBEB",
"#.	c #7B7B7B",
"$.	c #3F3F3F",
"%.	c #838383",
"&.	c #D0D0D0",
"*.	c #CBCBCB",
"=.	c #949494",
"-.	c #333332",
";.	c #D8D8D7",
">.	c #FEFEFE",
",.	c #EFEFEF",
"'.	c #0F0F0E",
").	c #F5F5F5",
"!.	c #7B7B7A",
"~.	c #909090",
"{.	c #F1F1F0",
"].	c #747474",
"^.	c #1C1C1C",
"/.	c #F4F4F3",
"(.	c #F9F9F9",
"_.	c #383838",
":.	c #C6C6C5",
"<.	c #FAFAF9",
"[.	c #5E5E5E",
"}.	c #A2A2A1",
"|.	c #CDCDCD",
"1.	c #E3E3E3",
"2.	c #A5A5A4",
"3.	c #595959",
"4.	c #5B5B5B",
"5.	c #CFCFCE",
"6.	c #DEDEDD",
"7.	c #686868",
"8.	c #848484",
"9.	c #E6E6E6",
"0.	c #A8A8A7",
"a.	c #CECECE",
"b.	c #353535",
"c.	c #C9C9C8",
"d.	c #939393",
"e.	c #D8D8D8",
"f.	c #878787",
"g.	c #8E8E8E",
"h.	c #111111",
"i.	c #F6F6F6",
"                                                                                                                                ",
"                                                                                                                                ",
"                                                . + + + + + + +                                                                 ",
"                                                                                                              @ # # # # # # #   ",
"                                                                                                              @ # # # # # # #   ",
"                                                                                          $ % % % % % % % % % & * * * * * * *   ",
"                                                                                          = # # # # # # # # # - ; ; ; ; ; ; ;   ",
"                                                                          > , , , , , , , > ' ' ' ' ' ' ' ' ' ) ; ; ; ; ; ; ;   ",
"                                                                          ! # # # # # # # ~ ; ; ; ; ; ; ; ; ; ; ; ; ; ; ; ; ;   ",
"                                                                    { ] ] ^ / / ( # _ / / : ; ; ; ; ; ; ; ; ; ; ; < ] ] ] ] ]   ",
"                                                                    + # # [ ; ; } # | ; ; ; ; ; ; ; ; ; ; ; ; ; ; 1 # # # # #   ",
"                                                                2 3 4 5 5 6 7 7 8 5 9 ; ; ; ; ; ; ; ; ; ; ; ; 0 7 4 5 5 5 5 5   ",
"                                                                a # b ; ; c # # d ; ; ; ; ; ; ; ; ; ; ; ; ; ; @ # e ; ; ; ; ;   ",
"                                                                a # b ; ; c # # d ; ; ; ; ; ; ; ; ; ; ; f g g 8 h i ; ; ; ; ;   ",
"                                                                a # b ; ; c # # d ; ; ; ; ; ; ; ; ; ; ; j # # - ; ; ; ; ; ; ;   ",
"                                                                k l m n n o # # d ; ; ; ; ; ; ; ; ; p n 0 l l q ; ; ; ; ; ; ;   ",
"                                                                    + # # # # # d ; ; ; ; ; ; ; ; ; r # s ; ; ; ; ; ; ; ; ; ;   ",
"                                                                    + e e t # # d ; ; ; ; ; ; u 1 1 v e l ; ; ; ; ; ; ; ; ; ;   ",
"                                                                          ! # # d ; ; ; ; ; ; w # # x ; ; ; ; ; ; ; ; ; ; ; ;   ",
"                                                                          ! # # d ; ; ; ; ; ; w # # x ; ; ; ; ; ; ; ; ; ; ; ;   ",
"                                                                    + y y z ) ) A y y y y y y B ) ) C ; ; ; ; ; ; ; ; ; ; ; ;   ",
"                                                                    + # # [ ; ; } # # # # # # D ; ; ; ; ; ; ; ; ; ; ; ; ; ; ;   ",
"                                                                    + # # [ ; ; E F F F F F F G ; ; ; ; ; ; ; ; ; ; ; ; ; ; ;   ",
"                                                                    + # # [ ; ; ; ; ; ; ; ; ; ; ; ; ; ; ; ; ; ; ; ; ; ; ; ; ;   ",
"                                                                    + # # [ ; ; ; ; ; ; ; ; ; ; ; ; ; ; ; ; ; ; ; ; ; ; ; ; ;   ",
"                                                                    + # # [ ; ; ; ; ; ; ; ; ; ; ; ; ; ; ; ; ; ; ; ; ; ; ; ; ;   ",
"                                                                    + # # [ ; ; ; ; ; ; ; ; ; ; ; ; ; ; ; ; ; ; ; ; ; ; ; ; ;   ",
"                                                                    + # # [ ; ; ; ; ; ; ; ; ; ; ; ; ; ; ; ; ; ; ; ; ; ; ; ; ;   ",
"                                                                    { H H I J J K ; ; ; ; ; ; ; ; ; ; ; ; ; ; ; ; ; ; ; ; ; ;   ",
"                                                                          ! # # d ; ; ; ; ; ; ; ; ; ; ; ; ; ; ; ; ; ; ; ; ; ;   ",
"                                                                          ! # # d ; ; ; ; ; ; ; ; ; ; ; ; ; ; ; ; ; ; ; ; ; ;   ",
"                                                                          ! # # d ; ; ; ; ; ; ; ; ; ; ; ; ; ; ; ; ; ; ; ; ; ;   ",
"                                                                          L ( ( M N C ; ; ; ; ; ; ; ; ; ; ; ; ; ; ; ; ; ; ; ;   ",
"                                                                                } # | ; ; ; ; ; ; ; ; ; ; ; ; ; ; ; ; ; ; ; ;   ",
"                                                                                } # | ; ; ; ; ; ; ; ; ; ; ; ; ; ; ; ; ; ; ; ;   ",
"                                                                                O P Q R R R R S ; ; ; ; ; ; ; ; ; ; ; ; ; ; ;   ",
"                                                                                    T # # # # D ; ; ; ; ; ; ; ; ; ; ; ; ; ; ;   ",
"                                                                                    T # # U V W X X X X Y ; ; ; ; ; ; ; ; ; ;   ",
"                                                                                    T # # ~ ; w # # # # s ; ; ; ; ; ; ; ; ; ;   ",
"                                                                                    T # # ~ ; w # # Z `  .....................  ",
"                                                                                    T # # ~ ; w # # x   +.# # # # # # # # # #   ",
"                                                                                    T # # ~ ; w # # x   @.#.#.#.#.#.#.#.$.# #   ",
"                                                                                    T # # ~ ; w # # x                   %.# #   ",
"                                                                                    T # # ~ ; w # # x                   %.# #   ",
"                                                                                    T # # ~ ; w # # x                   %.# #   ",
"                                                                                &.*.=.-.-.;.; w # # x                   %.# #   ",
"                                                                                } # | ; ; ; ; w # # x                   %.# #   ",
"                                                                                } # | ; ; ; ; w # # x             >.,.,.%.'.'.  ",
"                                                                                } # | ; ; ; ; w # # x             ).# # !.; ;   ",
"                                                                                } # | ; ; ; ; w # # x             ).# # !.; ;   ",
"                                                                          ~.} } ;.d {.; ; ; ; w # # x         ].} ^.d d /.; ;   ",
"                                                                          ! # # d ; ; ; ; ; ; w # # x         @ # e ; ; ; ; ;   ",
"                                                                    (._._.#.:.:.<.; ; ; ; ; ; w # # x         @ # e ; ; ; ; ;   ",
"                                                                    + # # [ ; ; ; ; ; ; ; ; ; w # # x         @ # e ; ; ; ; ;   ",
"                                                                W | [.}.}.|.; ; ; ; ; ; ; #.| o T T 1.  P | | k }.2.; ; ; ; ;   ",
"                                                                a # b ; ; ; ; ; ; ; ; ; ; = # ,         +.# # - ; ; ; ; ; ; ;   ",
"                                                                a # b ; ; ; ; ; ; ; ; ; ; = # ,         +.# # - ; ; ; ; ; ; ;   ",
"                                                                a # b ; ; ; ; ; ; ; ; ; ; = # ,         +.# # - ; ; ; ; ; ; ;   ",
"                                                                ` 3.4.2.2.5.; ; ; ; 6.2.2.7.3.8.        9.3.3.! 2.0.; ; ; ; ;   ",
"                                                                    + # # [ ; ; ; ; }.# # a.                  @ # e ; ; ; ; ;   ",
"                                                                    (.b.b.#.c.c.c.c.d.b.b.e.                  f.b.X c.c.c.c.c.  ",
"                                                                          ! # # # # |                             ).# # # # #   ",
"                                                                          g.h.h.h.h.7.                            i.h.h.h.h.h.  ",
"                                                                                                                                "};
