/* XPM */
static char * Jumping_bunny_Left_xpm[] = {
"64 64 221 2",
"  	c #FFFFFF",
". 	c #E9E9E9",
"+ 	c #D4D4D4",
"@ 	c #F8F8F8",
"# 	c #DFDFDF",
"$ 	c #D7D7D7",
"% 	c #7E7E7E",
"& 	c #000000",
"* 	c #D6D6D6",
"= 	c #434343",
"- 	c #111111",
"; 	c #FEFEFE",
"> 	c #060606",
", 	c #D2D2D2",
"' 	c #464646",
") 	c #171717",
"! 	c #FBFBFB",
"~ 	c #EFEFEF",
"{ 	c #808080",
"] 	c #FFFFFE",
"^ 	c #282827",
"/ 	c #BBBBBA",
"( 	c #EDEDEC",
"_ 	c #676767",
": 	c #747474",
"< 	c #1D1D1D",
"[ 	c #292929",
"} 	c #E1E1E0",
"| 	c #F0F0EF",
"1 	c #404040",
"2 	c #F7F7F6",
"3 	c #FCFCFB",
"4 	c #919191",
"5 	c #484848",
"6 	c #626262",
"7 	c #0F0F0F",
"8 	c #494949",
"9 	c #979796",
"0 	c #303030",
"a 	c #BDBDBD",
"b 	c #B6B6B6",
"c 	c #414141",
"d 	c #A1A1A0",
"e 	c #4A4A4A",
"f 	c #0A0A0A",
"g 	c #737373",
"h 	c #4E4E4E",
"i 	c #E4E4E3",
"j 	c #BDBDBC",
"k 	c #A5A5A5",
"l 	c #0C0C0C",
"m 	c #CECECD",
"n 	c #868686",
"o 	c #A0A0A0",
"p 	c #656565",
"q 	c #686868",
"r 	c #999998",
"s 	c #CCCCCC",
"t 	c #9E9E9D",
"u 	c #B4B4B3",
"v 	c #959595",
"w 	c #F9F9F8",
"x 	c #EBEBEA",
"y 	c #373737",
"z 	c #7E7E7D",
"A 	c #FAFAFA",
"B 	c #F5F5F4",
"C 	c #5C5C5C",
"D 	c #141414",
"E 	c #787878",
"F 	c #EBEBEB",
"G 	c #898989",
"H 	c #7D7D7C",
"I 	c #757575",
"J 	c #7D7D7D",
"K 	c #888888",
"L 	c #898988",
"M 	c #B9B9B8",
"N 	c #A7A7A6",
"O 	c #777776",
"P 	c #BABABA",
"Q 	c #9C9C9B",
"R 	c #090909",
"S 	c #EAEAE9",
"T 	c #868685",
"U 	c #6A6A6A",
"V 	c #ADADAC",
"W 	c #B2B2B1",
"X 	c #BABAB9",
"Y 	c #E0E0DF",
"Z 	c #575757",
"` 	c #515151",
" .	c #F3F3F2",
"..	c #9F9F9E",
"+.	c #D9D9D8",
"@.	c #DEDEDE",
"#.	c #D1D1D1",
"$.	c #B5B5AF",
"%.	c #2C2C09",
"&.	c #363614",
"*.	c #D1D1D0",
"=.	c #E8E8E7",
"-.	c #ECECEC",
";.	c #464628",
">.	c #939385",
",.	c #D4D4D3",
"'.	c #A9A9A8",
").	c #2D2D2D",
"!.	c #DFDFDE",
"~.	c #6E6E6E",
"{.	c #313131",
"].	c #858585",
"^.	c #2A2A08",
"/.	c #FAFA33",
"(.	c #EBEB2F",
"_.	c #999999",
":.	c #D2D22A",
"<.	c #5D5D13",
"[.	c #252525",
"}.	c #4C4C4B",
"|.	c #50504F",
"1.	c #040404",
"2.	c #B2B2B2",
"3.	c #4E4E4D",
"4.	c #1A1A1A",
"5.	c #2B2B2A",
"6.	c #797979",
"7.	c #414140",
"8.	c #C0C0C0",
"9.	c #AAAAA2",
"0.	c #3D3D0C",
"a.	c #454517",
"b.	c #C0C0BF",
"c.	c #E6E6E5",
"d.	c #515128",
"e.	c #8F8F7C",
"f.	c #C4C4C4",
"g.	c #D0D0CF",
"h.	c #C5C5C4",
"i.	c #8D8D8D",
"j.	c #6C6C6C",
"k.	c #A2A2A1",
"l.	c #ABABAB",
"m.	c #DADAD9",
"n.	c #2A2A2A",
"o.	c #838383",
"p.	c #545454",
"q.	c #AAAAAA",
"r.	c #DEDEDD",
"s.	c #F1F1F0",
"t.	c #CACAC9",
"u.	c #B0B0AF",
"v.	c #F8F8F7",
"w.	c #5F5F5F",
"x.	c #DCDCDC",
"y.	c #B5B5B5",
"z.	c #6B6B6B",
"A.	c #3E3E3E",
"B.	c #282828",
"C.	c #696969",
"D.	c #030303",
"E.	c #A3A3A3",
"F.	c #F2F2F1",
"G.	c #8C8C8C",
"H.	c #E7E7E7",
"I.	c #C1C1C0",
"J.	c #525252",
"K.	c #9B9B9B",
"L.	c #A2A2A2",
"M.	c #EDEDED",
"N.	c #C3C3C3",
"O.	c #3B3B3B",
"P.	c #585857",
"Q.	c #C3C3C2",
"R.	c #B8B8B8",
"S.	c #9F9F9F",
"T.	c #828282",
"U.	c #636363",
"V.	c #9A9A9A",
"W.	c #6F6F6F",
"X.	c #D9D9D9",
"Y.	c #3F3F3F",
"Z.	c #7B7B7B",
"`.	c #D8D8D7",
" +	c #333332",
".+	c #949494",
"++	c #CBCBCB",
"@+	c #D0D0D0",
"#+	c #EEEEED",
"$+	c #0F0F0E",
"%+	c #7B7B7A",
"&+	c #F5F5F5",
"*+	c #F4F4F3",
"=+	c #1C1C1C",
"-+	c #909090",
";+	c #FAFAF9",
">+	c #C6C6C5",
",+	c #383838",
"'+	c #F9F9F9",
")+	c #A5A5A4",
"!+	c #E3E3E3",
"~+	c #CDCDCD",
"{+	c #5E5E5E",
"]+	c #E1E1E1",
"^+	c #595959",
"/+	c #ABABAA",
"(+	c #A8A8A7",
"_+	c #E6E6E6",
":+	c #848484",
"<+	c #CFCFCE",
"[+	c #5B5B5B",
"}+	c #CECECE",
"|+	c #818181",
"1+	c #353535",
"2+	c #C9C9C8",
"3+	c #878787",
"4+	c #D8D8D8",
"5+	c #939393",
"6+	c #EEEEEE",
"7+	c #F6F6F6",
"8+	c #8E8E8E",
"                      . + + + + + + + @         # + + + + + + $                                                                 ",
"                      % & & & & & & & *         = & & & & & & -                                                                 ",
"                ; @ @ % > > > > > > > , @ @ @ @ ' > > > > > > ) @ @ @ @ @ @ @ !                                                 ",
"                ~ & & { ] ] ] ] ] ] ] ^ & & & & / ] ] ] ] ] ] ( & & & & & & & _                                                 ",
"                ~ & & { ] ] ] ] ] ] ] ^ & & & & / ] ] ] ] ] ] ( & & & & & & & _                                                 ",
"            : < [ } } | ] ] ] ] ] ] ] ^ & 1 } } 2 ] ] ] ] ] ] 3 } } } } } } } 4 < < < < < < < < < 5                             ",
"            6 & 7 ] ] ] ] ] ] ] ] ] ] ^ & 8 ] ] ] ] ] ] ] ] ] ] ] ] ] ] ] ] ] 9 & & & & & & & & & 0                             ",
"            * a b c c d ] ] e c c c c f & 8 ] ] g c c c c c c h ] ] ] ] ] ] ] i j j j j j j j j j k c c c c c c c k             ",
"                ~ & & { ] ] l & & & & & & 8 ] ] = & & & & & & - ] ] ] ] ] ] ] ] ] ] ] ] ] ] ] ] ] m & & & & & & & n             ",
"            o p q r r s ] ] t r r r r r r b ] ] u r r r r r r v p p p p p w ] ] ] ] ] ] ] ] ] ] ] x r r y & l r r z p p A       ",
"            6 & 7 ] ] ] ] ] ] ] ] ] ] ] ] ] ] ] ] ] ] ] ] ] ] ( & & & & & B ] ] ] ] ] ] ] ] ] ] ] ] ] ] C & D ] ] E & & @       ",
"      F G G H I J ] ] ] ] ] ] ] ] ] ] ] ] ] ] ] ] ] ] ] ] ] ] B I I I I I K L M ] ] ] ] ] ] ] ] ] ] ] ] N I O L L % I I K G P   ",
"      + & & Q ] ] ] ] ] ] ] ] ] ] ] ] ] ] ] ] ] ] ] ] ] ] ] ] ] ] ] ] ] ] R & _ ] ] ] ] ] ] ] ] ] ] ] ] ] ] S & & T ] ] > & U   ",
"      + & & U V W ] ] ] ] ] ] ] ] ] ] X V V V V V V V V V Y ] ] ] ] ] ] ] Z ` O V V  .] ] ] ] ] ] ] ] ] ] ] S & & T ] ] > & U   ",
"      + & & & & 7 ] ] ] ] ] ] ] ] ] ] ^ & & & & & & & & & ..] ] ] ] ] ] ] ] ] 9 & & +.] ] ] ] ] ] ] ] ] ] ] S & & T ] ] > & U   ",
"  @.#.$.%.%.%.%.&.*.*.=.] ] ] ] -.*.*.;.%.%.%.%.%.%.%.%.%.>.*.,.] ] ] ] ] ] ] '.).).M *.!.] ] ] ] ] ] ] ] ] S & & ~.*.*.{.).].  ",
"  ' & ^././././.(.& & { ] ] ] ] _.& & :./././././././././.<.& - ] ] ] ] ] ] ] ] ] ] [.& }.] ] ] ] ] ] ] ] ] S & & & & & @       ",
"  ' & ^././././.(.& & { ] ] ] ] _.& & :./././././././././.<.& - ] ] ] ] ] ] ] ] ] ] ).R |.B B 3 ] ] ] ] ] ] S & & 1.R R @       ",
"  ' & ^././././.(.& & { ] ] ] ] _.& & :./././././././././.<.& - ] ] ] ] ] ] ] ] ] ] ] ] 2.& & a ] ] ] ] ] ] S & & n             ",
"  ' & ^././././.(.& & { ] ] ] ] _.& & :./././././././././.<.& - ] ] ] ] ] ] ] ] ] ] ] ] 2.& & a ] ] ] ] ] ] S & & n             ",
"  ' & ^././././.(.& & { ] ] ] ] _.& & :./././././././././.<.& - ] ] ] ] ] ] ] ] ] ] ] ] 2 i i 3.4.4.4.4.4.4.5.i i 6.4.4.@       ",
"  ' & ^././././.(.& & { ] ] ] ] _.& & :./././././././././.<.& - ] ] ] ] ] ] ] ] ] ] ] ] ] ] ] 7.& & & & & & D ] ] E & & @       ",
"  #.8.9.0.0.0.0.a.b.b.Y ] ] ] ] c.b.b.d.0.0.0.0.0.0.0.0.0.e.b.f.] ] ] ] ] ] ] ] ] ] ] ] ] ] ] g.b.b.b.b.b.b.h.] ] E & & @       ",
"      + & & & & 7 ] ] ] ] ] ] ] ] ] ] ^ & & & & & & & & & ..] ] ] ] ] ] ] ] ] ] ] ] ] ] ] ] ] ] ] ] ] ] ] ] ] ] ] E & & @       ",
"  i.6 j.Q Q Q Q k.] ] ] ] ] ] ] ] ] ] l.Q Q Q Q Q Q Q Q Q m.] ] ] ] ] ] ] ] ] ] ] ] ] ] ] ] ] ] ] ] ] ] ] ] ] ] ] E & & @       ",
"  ' & n.] ] ] ] ] ] ] ] ] ] ] ] ] ] ] ] ] ] ] ] ] ] ] ] ] ] ] ] ] ] ] ] ] ] ] ] ] ] ] ] ] ] ] ] ] ] ] ] ] ] ] ] ] E & & @       ",
"  ' & n.] ] ] ] ] ] ] ] ] ] ] ] ] ] ] ] ] ] ] ] ] ] ] ] ] ] ] ] ] ] ] ] ] ] ] ] ] ] ] ] ] ] ] ] ] ] ] ] ] ] ] ] ] E & & @       ",
"  ' & n.] ] ] ] ] ] ] ] ] ] ] ] ] ] ] ] ] ] ] ] ] ] ] ] ] ] ] ] ] ] ] ] ] ] ] ] ] ] ] ] ] ] ] ] ] ] ] ] ] ] ] ] ] E & & @       ",
"  o.p.6 q.q.r.] ] ] ] ,.q.q.q.q.q.q.q.s.] ] ] ] ] ] ] ] ] t.q.u.] ] ] ] ] ] ] ] ] ] ] ] ] ] ] ] ] ] ] ] ] ] v.q.q.H p.p.A       ",
"      + & & Q ] ] ] ] z & & & & & & & * ] ] ] ] ] ] ] ] ] w.& - ] ] ] ] ] ] ] ] ] ] ] ] ] ] ] ] ] ] ] ] ] ] S & & n             ",
"      x.0 0 4 m m m m % 0 0 0 0 0 0 0 y.m m m m m m m m m z.0 A.] ] ] ] ] ] ] ] ] ] ] ] ] ] ] ] ] ] ] ] ] ] S & & n             ",
"            6 & & & & {               B.& & & & & & & & & ..] ] ] ] ] ] ] ] ] ] ] ] ] ] ] ] ] ] ] ] ] ] ] ] S & & n             ",
"            C.l l l l n               B.& D.l l l l l l l E.] ] ] ] ] ] ] ] ] ] ] ] ] ] ] ] ] ] ] ] ] ] 2 F.# l l G.            ",
"                                      B.& 8 ] ] ] ] ] ] ] ] ] ] ] ] ] ] ] ] ] ] ] ] ] ] ] ] ] ] ] ] ] ] C & D                   ",
"                                      B.& 8 ] ] ] ] ] ] ] ] ] ] ] ] ] ] ] ] ] ] ] ] ] ] ] ] ] ] ] ] ] ] C & D                   ",
"                                      F H.l.) ) I.] ] ] ] ] ] ] ] ] ] ] ] ] ] ] ] ] ] ] ] ] ] J.) ) ) ) K.H..                   ",
"                                          y.& & / ] ] ] ] ] ] ] ] ] ] ] ] ] ] ] ] ] ] ] ] ] ] 7.& & & & L.                      ",
"                                          M.N.N.w.O.O.O.O.O.O.8 ] ] ] ] ] ] ] ] ] ] P.O.O.O.O.o Q.t & & L.                      ",
"                                                = & & & & & & - ] ] ] ] ] ] ] ] ] ] [.& & & & a ] m & & L.                      ",
"                                                R.S.T.& & U...V.w.w.w.w.w.w.w.w.w.w.v S.W.& & a ] m & & L.                      ",
"                                                    #.& & ..] ( & & & & & & & & & & X.  2.& & a ] m & & L.                      ",
"                                                    #.& & ..] ( & & Y.Z.Z.Z.Z.Z.Z.Z.F   2.& & a ] m & & L.                      ",
"                                                    #.& & ..] ( & & o.                  2.& & a ] m & & L.                      ",
"                                                    #.& & ..] ( & & o.                  2.& & a ] m & & L.                      ",
"                                                    #.& & ..] ( & & o.                  2.& & a ] m & & L.                      ",
"                                                    #.& & ..] ( & & o.                  2.& & a ] `. + +.+++@+                  ",
"                                                    #.& & ..] ( & & o.                  2.& & a ] ] ] ] C & D                   ",
"                                                    #.& & ..] #+$+$+o.~ ~ ;             2.& & a ] ] ] ] C & D                   ",
"                                                    #.& & ..] ] ] ] %+& & &+            2.& & a ] ] ] ] C & D                   ",
"                                                    #.& & ..] ] ] ] %+& & &+            2.& & a ] ] ] ] C & D                   ",
"                                                    #.& & ..] ] ] ] *+S S =+D :         2.& & a ] ] ] ] s.S `.D D -+            ",
"                                                    #.& & ..] ] ] ] ] ] ] R & _         2.& & a ] ] ] ] ] ] S & & n             ",
"                                                    #.& & ..] ] ] ] ] ] ] R & _         2.& & a ] ] ] ] ] ] ;+>+>+Z.,+,+'+      ",
"                                                    #.& & ..] ] ] ] ] ] ] R & _         2.& & a ] ] ] ] ] ] ] ] ] E & & @       ",
"                                                    #.& & ..] ] ] ] ] ] ] )+k.].C C H.  !+L.L.~.C Z.] ] ] ] ] ] ] ~+k.k.{+C o   ",
"                                                    #.& & ..] ] ] ] ] ] ] ] ] 9 & & X.        c & 0 ] ] ] ] ] ] ] ] ] ] > & U   ",
"                                                    #.& & ..] ] ] ] ] ] ] ] ] 9 & & X.        c & 0 ] ] ] ] ] ] ] ] ] ] > & U   ",
"                                                    #.& & ..] ] ] ] ] ] ] ] ] 9 & & X.        c & 0 ] ] ] ] ] ] ] ] ] ] > & U   ",
"                                                    ]+^+^+K )+/+] ] ] ] ] (+)+n ^+^+_+        :+^+q )+)+r.] ] ] ] <+)+)+[+^+S.  ",
"                                                          w.& - ] ] ] ] ] R & _                   }+& & k.] ] ] ] E & & @       ",
"                                                          |+1+1 2+2+2+2+2+O.1+3+                  4+1+1+5+2+2+2+2+Z.1+1+'+      ",
"                                                              M.& & & & & &+                            C & & & & n             ",
"                                                              6+- - - - - 7+                            q - - - - 8+            ",
"                                                                                                                                "};
