/* XPM */
static char * Jumping_Bunny_Right_Right_Half_xpm[] = {
"64 64 135 2",
"  	c #F8F8F8",
". 	c #D7D7D7",
"+ 	c #D4D4D4",
"@ 	c #DFDFDF",
"# 	c #FFFFFF",
"$ 	c #E9E9E9",
"% 	c #111111",
"& 	c #000000",
"* 	c #434343",
"= 	c #D6D6D6",
"- 	c #7E7E7E",
"; 	c #171717",
"> 	c #060606",
", 	c #464646",
"' 	c #D2D2D2",
") 	c #FEFEFE",
"! 	c #EDEDEC",
"~ 	c #FFFFFE",
"{ 	c #BBBBBA",
"] 	c #282827",
"^ 	c #808080",
"/ 	c #EFEFEF",
"( 	c #FCFCFB",
"_ 	c #F7F7F6",
": 	c #E1E1E0",
"< 	c #404040",
"[ 	c #F0F0EF",
"} 	c #292929",
"| 	c #1D1D1D",
"1 	c #747474",
"2 	c #494949",
"3 	c #0F0F0F",
"4 	c #626262",
"5 	c #4E4E4E",
"6 	c #414141",
"7 	c #737373",
"8 	c #0A0A0A",
"9 	c #4A4A4A",
"0 	c #A1A1A0",
"a 	c #B6B6B6",
"b 	c #BDBDBD",
"c 	c #0C0C0C",
"d 	c #959595",
"e 	c #999998",
"f 	c #B4B4B3",
"g 	c #9E9E9D",
"h 	c #CCCCCC",
"i 	c #686868",
"j 	c #656565",
"k 	c #A0A0A0",
"l 	c #F5F5F4",
"m 	c #7D7D7D",
"n 	c #757575",
"o 	c #7D7D7C",
"p 	c #898989",
"q 	c #EBEBEB",
"r 	c #9C9C9B",
"s 	c #E0E0DF",
"t 	c #ADADAC",
"u 	c #BABAB9",
"v 	c #B2B2B1",
"w 	c #6A6A6A",
"x 	c #9F9F9E",
"y 	c #D4D4D3",
"z 	c #D1D1D0",
"A 	c #939385",
"B 	c #2C2C09",
"C 	c #464628",
"D 	c #ECECEC",
"E 	c #E8E8E7",
"F 	c #363614",
"G 	c #B5B5AF",
"H 	c #D1D1D1",
"I 	c #DEDEDE",
"J 	c #5D5D13",
"K 	c #FAFA33",
"L 	c #D2D22A",
"M 	c #999999",
"N 	c #EBEB2F",
"O 	c #2A2A08",
"P 	c #C4C4C4",
"Q 	c #C0C0BF",
"R 	c #8F8F7C",
"S 	c #3D3D0C",
"T 	c #515128",
"U 	c #E6E6E5",
"V 	c #454517",
"W 	c #AAAAA2",
"X 	c #C0C0C0",
"Y 	c #DADAD9",
"Z 	c #ABABAB",
"` 	c #A2A2A1",
" .	c #6C6C6C",
"..	c #8D8D8D",
"+.	c #2A2A2A",
"@.	c #B0B0AF",
"#.	c #AAAAAA",
"$.	c #CACAC9",
"%.	c #F1F1F0",
"&.	c #DEDEDD",
"*.	c #545454",
"=.	c #838383",
"-.	c #5F5F5F",
";.	c #7E7E7D",
">.	c #3E3E3E",
",.	c #303030",
"'.	c #6B6B6B",
").	c #CECECD",
"!.	c #B5B5B5",
"~.	c #919191",
"{.	c #DCDCDC",
"].	c #282828",
"^.	c #A3A3A3",
"/.	c #030303",
"(.	c #868686",
"_.	c #696969",
":.	c #C1C1C0",
"<.	c #E7E7E7",
"[.	c #3B3B3B",
"}.	c #C3C3C3",
"|.	c #EDEDED",
"1.	c #9A9A9A",
"2.	c #636363",
"3.	c #828282",
"4.	c #9F9F9F",
"5.	c #B8B8B8",
"6.	c #EEEEED",
"7.	c #ABABAA",
"8.	c #A5A5A4",
"9.	c #888888",
"0.	c #595959",
"a.	c #E1E1E1",
"b.	c #353535",
"c.	c #818181",
"d.	c #EEEEEE",
"  . + + + + + + @ # # # #   + + + + + + + $ # # # # # # # # # #                                                               # ",
"  % & & & & & & * # # # # = & & & & & & & - # # # # # # # # # #                                                               # ",
"  ; > > > > > > ,         ' > > > > > > > -     ) # # # # # # #                                                               # ",
"  ! ~ ~ ~ ~ ~ ~ { & & & & ] ~ ~ ~ ~ ~ ~ ~ ^ & & / # # # # # # #                                                               # ",
"  ! ~ ~ ~ ~ ~ ~ { & & & & ] ~ ~ ~ ~ ~ ~ ~ ^ & & / # # # # # # #                                                               # ",
"  ( ~ ~ ~ ~ ~ ~ _ : : < & ] ~ ~ ~ ~ ~ ~ ~ [ : : } | 1 # # # # #                                                               # ",
"  ~ ~ ~ ~ ~ ~ ~ ~ ~ ~ 2 & ] ~ ~ ~ ~ ~ ~ ~ ~ ~ ~ 3 & 4 # # # # #                                                               # ",
"  5 6 6 6 6 6 6 7 ~ ~ 2 & 8 6 6 6 6 9 ~ ~ 0 6 6 a b = # # # # #                                                               # ",
"  % & & & & & & * ~ ~ 2 & & & & & & c ~ ~ ^ & & / # # # # # # #                                                               # ",
"  d e e e e e e f ~ ~ a e e e e e e g ~ ~ h e e i j k # # # # #                                                               # ",
"  ! ~ ~ ~ ~ ~ ~ ~ ~ ~ ~ ~ ~ ~ ~ ~ ~ ~ ~ ~ ~ ~ ~ 3 & 4 # # # # #                                                               # ",
"  l ~ ~ ~ ~ ~ ~ ~ ~ ~ ~ ~ ~ ~ ~ ~ ~ ~ ~ ~ ~ ~ ~ m n o p p q # #                                                               # ",
"  ~ ~ ~ ~ ~ ~ ~ ~ ~ ~ ~ ~ ~ ~ ~ ~ ~ ~ ~ ~ ~ ~ ~ ~ ~ r & & + # #                                                               # ",
"  ~ ~ s t t t t t t t t t u ~ ~ ~ ~ ~ ~ ~ ~ ~ ~ v t w & & + # #                                                               # ",
"  ~ ~ x & & & & & & & & & ] ~ ~ ~ ~ ~ ~ ~ ~ ~ ~ 3 & & & & + # #                                                               # ",
"  y z A B B B B B B B B B C z z D ~ ~ ~ ~ E z z F B B B B G H I                                                               # ",
"  % & J K K K K K K K K K L & & M ~ ~ ~ ~ ^ & & N K K K K O & ,                                                               # ",
"  % & J K K K K K K K K K L & & M ~ ~ ~ ~ ^ & & N K K K K O & ,                                                               # ",
"  % & J K K K K K K K K K L & & M ~ ~ ~ ~ ^ & & N K K K K O & ,                                                               # ",
"  % & J K K K K K K K K K L & & M ~ ~ ~ ~ ^ & & N K K K K O & ,                                                               # ",
"  % & J K K K K K K K K K L & & M ~ ~ ~ ~ ^ & & N K K K K O & ,                                                               # ",
"  % & J K K K K K K K K K L & & M ~ ~ ~ ~ ^ & & N K K K K O & ,                                                               # ",
"  P Q R S S S S S S S S S T Q Q U ~ ~ ~ ~ s Q Q V S S S S W X H                                                               # ",
"  ~ ~ x & & & & & & & & & ] ~ ~ ~ ~ ~ ~ ~ ~ ~ ~ 3 & & & & + # #                                                               # ",
"  ~ ~ Y r r r r r r r r r Z ~ ~ ~ ~ ~ ~ ~ ~ ~ ~ ` r r r r  .4 ..                                                              # ",
"  ~ ~ ~ ~ ~ ~ ~ ~ ~ ~ ~ ~ ~ ~ ~ ~ ~ ~ ~ ~ ~ ~ ~ ~ ~ ~ ~ ~ +.& ,                                                               # ",
"  ~ ~ ~ ~ ~ ~ ~ ~ ~ ~ ~ ~ ~ ~ ~ ~ ~ ~ ~ ~ ~ ~ ~ ~ ~ ~ ~ ~ +.& ,                                                               # ",
"  ~ ~ ~ ~ ~ ~ ~ ~ ~ ~ ~ ~ ~ ~ ~ ~ ~ ~ ~ ~ ~ ~ ~ ~ ~ ~ ~ ~ +.& ,                                                               # ",
"  @.#.$.~ ~ ~ ~ ~ ~ ~ ~ ~ %.#.#.#.#.#.#.#.y ~ ~ ~ ~ &.#.#.4 *.=.                                                              # ",
"  % & -.~ ~ ~ ~ ~ ~ ~ ~ ~ = & & & & & & & ;.~ ~ ~ ~ r & & +                                                                   # ",
"  >.,.'.).).).).).).).).).!.,.,.,.,.,.,.,.- ).).).).~.,.,.{.                                                                  # ",
"  ~ ~ x & & & & & & & & & ].              ^ & & & & 4                                                                         # ",
"  ~ ~ ^.c c c c c c c /.& ].              (.c c c c _.                                                                        # ",
"  ~ ~ ~ ~ ~ ~ ~ ~ ~ ~ 2 & ].                                                                                                  # ",
"  ~ ~ ~ ~ ~ ~ ~ ~ ~ ~ 2 & ].                                                                                                  # ",
"  ~ ~ ~ ~ ~ ~ ~ :.; ; Z <.q                                                                                                   # ",
"  ~ ~ ~ ~ ~ ~ ~ { & & !.                                                                                                      # ",
"  2 [.[.[.[.[.[.-.}.}.|.                                                                                                      # ",
"  % & & & & & & *                                                                                                             # ",
"  1.x 2.& & 3.4.5.                                                                                                            # ",
"  ! ~ x & & H                                                                                                                 # ",
"  ! ~ x & & H                                                                                                                 # ",
"  ! ~ x & & H                                                                                                                 # ",
"  ! ~ x & & H                                                                                                                 # ",
"  ! ~ x & & H                                                                                                                 # ",
"  ! ~ x & & H                                                                                                                 # ",
"  ! ~ x & & H                                                                                                                 # ",
"  6.~ x & & H                                                                                                                 # ",
"  ~ ~ x & & H                                                                                                                 # ",
"  ~ ~ x & & H                                                                                                                 # ",
"  ~ ~ x & & H                                                                                                                 # ",
"  ~ ~ x & & H                                                                                                                 # ",
"  ~ ~ x & & H                                                                                                                 # ",
"  ~ ~ x & & H                                                                                                                 # ",
"  ~ ~ x & & H                                                                                                                 # ",
"  ~ ~ x & & H                                                                                                                 # ",
"  ~ ~ x & & H                                                                                                                 # ",
"  ~ ~ x & & H                                                                                                                 # ",
"  7.8.9.0.0.a.                                                                                                                # ",
"  % & -.                                                                                                                      # ",
"  < b.c.                                                                                                                      # ",
"                                                                |.# # # # # # # # # # # # # # # # # # # # # # # # # # # # # # # ",
"                                                                d.# # # # # # # # # # # # # # # # # # # # # # # # # # # # # # # ",
"                                                                # # # # # # # # # # # # # # # # # # # # # # # # # # # # # # # # "};
