/* XPM */
static char * Jumping_Bunny_Left_Right_Half_xpm[] = {
"64 64 140 2",
"  	c #FFFFFF",
". 	c #F8F8F8",
"+ 	c #FBFBFB",
"@ 	c #000000",
"# 	c #676767",
"$ 	c #E1E1E0",
"% 	c #919191",
"& 	c #1D1D1D",
"* 	c #484848",
"= 	c #FFFFFE",
"- 	c #979796",
"; 	c #303030",
"> 	c #E4E4E3",
", 	c #BDBDBC",
"' 	c #A5A5A5",
") 	c #414141",
"! 	c #CECECD",
"~ 	c #868686",
"{ 	c #656565",
"] 	c #F9F9F8",
"^ 	c #EBEBEA",
"/ 	c #999998",
"( 	c #373737",
"_ 	c #0C0C0C",
": 	c #7E7E7D",
"< 	c #FAFAFA",
"[ 	c #F5F5F4",
"} 	c #5C5C5C",
"| 	c #141414",
"1 	c #787878",
"2 	c #757575",
"3 	c #888888",
"4 	c #898988",
"5 	c #B9B9B8",
"6 	c #A7A7A6",
"7 	c #777776",
"8 	c #7E7E7E",
"9 	c #898989",
"0 	c #BABABA",
"a 	c #090909",
"b 	c #EAEAE9",
"c 	c #868685",
"d 	c #060606",
"e 	c #6A6A6A",
"f 	c #575757",
"g 	c #515151",
"h 	c #ADADAC",
"i 	c #F3F3F2",
"j 	c #D9D9D8",
"k 	c #A9A9A8",
"l 	c #2D2D2D",
"m 	c #D1D1D0",
"n 	c #DFDFDE",
"o 	c #6E6E6E",
"p 	c #313131",
"q 	c #858585",
"r 	c #252525",
"s 	c #4C4C4B",
"t 	c #50504F",
"u 	c #FCFCFB",
"v 	c #040404",
"w 	c #B2B2B2",
"x 	c #BDBDBD",
"y 	c #F7F7F6",
"z 	c #4E4E4D",
"A 	c #1A1A1A",
"B 	c #2B2B2A",
"C 	c #797979",
"D 	c #414140",
"E 	c #D0D0CF",
"F 	c #C0C0BF",
"G 	c #C5C5C4",
"H 	c #F8F8F7",
"I 	c #AAAAAA",
"J 	c #7D7D7C",
"K 	c #545454",
"L 	c #F2F2F1",
"M 	c #DFDFDF",
"N 	c #8C8C8C",
"O 	c #525252",
"P 	c #171717",
"Q 	c #9B9B9B",
"R 	c #E7E7E7",
"S 	c #E9E9E9",
"T 	c #A2A2A2",
"U 	c #585857",
"V 	c #3B3B3B",
"W 	c #A0A0A0",
"X 	c #C3C3C2",
"Y 	c #9E9E9D",
"Z 	c #5F5F5F",
"` 	c #959595",
" .	c #9F9F9F",
"..	c #6F6F6F",
"+.	c #D9D9D9",
"@.	c #3F3F3F",
"#.	c #7B7B7B",
"$.	c #EBEBEB",
"%.	c #838383",
"&.	c #D8D8D7",
"*.	c #333332",
"=.	c #949494",
"-.	c #CBCBCB",
";.	c #D0D0D0",
">.	c #0F0F0E",
",.	c #EFEFEF",
"'.	c #FEFEFE",
").	c #7B7B7A",
"!.	c #F5F5F5",
"~.	c #F4F4F3",
"{.	c #1C1C1C",
"].	c #747474",
"^.	c #F1F1F0",
"/.	c #909090",
"(.	c #FAFAF9",
"_.	c #C6C6C5",
":.	c #383838",
"<.	c #F9F9F9",
"[.	c #A5A5A4",
"}.	c #A2A2A1",
"|.	c #E3E3E3",
"1.	c #CDCDCD",
"2.	c #5E5E5E",
"3.	c #A8A8A7",
"4.	c #595959",
"5.	c #E6E6E6",
"6.	c #848484",
"7.	c #686868",
"8.	c #DEDEDD",
"9.	c #CFCFCE",
"0.	c #5B5B5B",
"a.	c #CECECE",
"b.	c #C9C9C8",
"c.	c #353535",
"d.	c #878787",
"e.	c #D8D8D8",
"f.	c #939393",
"g.	c #111111",
"h.	c #F6F6F6",
"i.	c #8E8E8E",
"                                                                                                                                ",
"                                                                                                                                ",
"                                                                . . . . . . . +                                                 ",
"  @ @ @ @ @ @ @ #                                                                                                               ",
"  @ @ @ @ @ @ @ #                                                                                                               ",
"  $ $ $ $ $ $ $ % & & & & & & & & & *                                                                                           ",
"  = = = = = = = - @ @ @ @ @ @ @ @ @ ;                                                                                           ",
"  = = = = = = = > , , , , , , , , , ' ) ) ) ) ) ) ) '                                                                           ",
"  = = = = = = = = = = = = = = = = = ! @ @ @ @ @ @ @ ~                                                                           ",
"  { { { { { ] = = = = = = = = = = = ^ / / ( @ _ / / : { { <                                                                     ",
"  @ @ @ @ @ [ = = = = = = = = = = = = = = } @ | = = 1 @ @ .                                                                     ",
"  2 2 2 2 2 3 4 5 = = = = = = = = = = = = 6 2 7 4 4 8 2 2 3 9 0                                                                 ",
"  = = = = = a @ # = = = = = = = = = = = = = = b @ @ c = = d @ e                                                                 ",
"  = = = = = f g 7 h h i = = = = = = = = = = = b @ @ c = = d @ e                                                                 ",
"  = = = = = = = - @ @ j = = = = = = = = = = = b @ @ c = = d @ e                                                                 ",
"  = = = = = = = k l l 5 m n = = = = = = = = = b @ @ o m m p l q                                                                 ",
"  = = = = = = = = = = r @ s = = = = = = = = = b @ @ @ @ @ .                                                                     ",
"  = = = = = = = = = = l a t [ [ u = = = = = = b @ @ v a a .                                                                     ",
"  = = = = = = = = = = = = w @ @ x = = = = = = b @ @ ~                                                                           ",
"  = = = = = = = = = = = = w @ @ x = = = = = = b @ @ ~                                                                           ",
"  = = = = = = = = = = = = y > > z A A A A A A B > > C A A .                                                                     ",
"  = = = = = = = = = = = = = = = D @ @ @ @ @ @ | = = 1 @ @ .                                                                     ",
"  = = = = = = = = = = = = = = = E F F F F F F G = = 1 @ @ .                                                                     ",
"  = = = = = = = = = = = = = = = = = = = = = = = = = 1 @ @ .                                                                     ",
"  = = = = = = = = = = = = = = = = = = = = = = = = = 1 @ @ .                                                                     ",
"  = = = = = = = = = = = = = = = = = = = = = = = = = 1 @ @ .                                                                     ",
"  = = = = = = = = = = = = = = = = = = = = = = = = = 1 @ @ .                                                                     ",
"  = = = = = = = = = = = = = = = = = = = = = = = = = 1 @ @ .                                                                     ",
"  = = = = = = = = = = = = = = = = = = = = = = H I I J K K <                                                                     ",
"  = = = = = = = = = = = = = = = = = = = = = = b @ @ ~                                                                           ",
"  = = = = = = = = = = = = = = = = = = = = = = b @ @ ~                                                                           ",
"  = = = = = = = = = = = = = = = = = = = = = = b @ @ ~                                                                           ",
"  = = = = = = = = = = = = = = = = = = = = y L M _ _ N                                                                           ",
"  = = = = = = = = = = = = = = = = = = = = } @ |                                                                                 ",
"  = = = = = = = = = = = = = = = = = = = = } @ |                                                                                 ",
"  = = = = = = = = = = = = = = = O P P P P Q R S                                                                                 ",
"  = = = = = = = = = = = = = = = D @ @ @ @ T                                                                                     ",
"  = = = = = = = = = = U V V V V W X Y @ @ T                                                                                     ",
"  = = = = = = = = = = r @ @ @ @ x = ! @ @ T                                                                                     ",
"  Z Z Z Z Z Z Z Z Z Z `  ...@ @ x = ! @ @ T                                                                                     ",
"  @ @ @ @ @ @ @ @ @ @ +.  w @ @ x = ! @ @ T                                                                                     ",
"  @ @ @.#.#.#.#.#.#.#.$.  w @ @ x = ! @ @ T                                                                                     ",
"  @ @ %.                  w @ @ x = ! @ @ T                                                                                     ",
"  @ @ %.                  w @ @ x = ! @ @ T                                                                                     ",
"  @ @ %.                  w @ @ x = ! @ @ T                                                                                     ",
"  @ @ %.                  w @ @ x = &.*.*.=.-.;.                                                                                ",
"  @ @ %.                  w @ @ x = = = = } @ |                                                                                 ",
"  >.>.%.,.,.'.            w @ @ x = = = = } @ |                                                                                 ",
"  = = ).@ @ !.            w @ @ x = = = = } @ |                                                                                 ",
"  = = ).@ @ !.            w @ @ x = = = = } @ |                                                                                 ",
"  = = ~.b b {.| ].        w @ @ x = = = = ^.b &.| | /.                                                                          ",
"  = = = = = a @ #         w @ @ x = = = = = = b @ @ ~                                                                           ",
"  = = = = = a @ #         w @ @ x = = = = = = (._._.#.:.:.<.                                                                    ",
"  = = = = = a @ #         w @ @ x = = = = = = = = = 1 @ @ .                                                                     ",
"  = = = = = [.}.q } } R   |.T T o } #.= = = = = = = 1.}.}.2.} W                                                                 ",
"  = = = = = = = - @ @ +.        ) @ ; = = = = = = = = = = d @ e                                                                 ",
"  = = = = = = = - @ @ +.        ) @ ; = = = = = = = = = = d @ e                                                                 ",
"  = = = = = = = - @ @ +.        ) @ ; = = = = = = = = = = d @ e                                                                 ",
"  = = = = = 3.[.~ 4.4.5.        6.4.7.[.[.8.= = = = 9.[.[.0.4. .                                                                ",
"  = = = = = a @ #                   a.@ @ }.= = = = 1 @ @ .                                                                     ",
"  b.b.b.b.b.V c.d.                  e.c.c.f.b.b.b.b.#.c.c.<.                                                                    ",
"  @ @ @ @ @ !.                            } @ @ @ @ ~                                                                           ",
"  g.g.g.g.g.h.                            7.g.g.g.g.i.                                                                          ",
"                                                                                                                                "};
