/* XPM */
static char * Jumping_Bunny_Left_Left_Half_xpm[] = {
"64 64 134 2",
"  	c #FFFFFF",
". 	c #E9E9E9",
"+ 	c #D4D4D4",
"@ 	c #F8F8F8",
"# 	c #DFDFDF",
"$ 	c #7E7E7E",
"% 	c #000000",
"& 	c #D6D6D6",
"* 	c #434343",
"= 	c #111111",
"- 	c #FEFEFE",
"; 	c #060606",
"> 	c #D2D2D2",
", 	c #464646",
"' 	c #171717",
") 	c #EFEFEF",
"! 	c #808080",
"~ 	c #FFFFFE",
"{ 	c #282827",
"] 	c #BBBBBA",
"^ 	c #EDEDEC",
"/ 	c #747474",
"( 	c #1D1D1D",
"_ 	c #292929",
": 	c #E1E1E0",
"< 	c #F0F0EF",
"[ 	c #404040",
"} 	c #F7F7F6",
"| 	c #FCFCFB",
"1 	c #626262",
"2 	c #0F0F0F",
"3 	c #494949",
"4 	c #BDBDBD",
"5 	c #B6B6B6",
"6 	c #414141",
"7 	c #A1A1A0",
"8 	c #4A4A4A",
"9 	c #0A0A0A",
"0 	c #737373",
"a 	c #4E4E4E",
"b 	c #0C0C0C",
"c 	c #A0A0A0",
"d 	c #656565",
"e 	c #686868",
"f 	c #999998",
"g 	c #CCCCCC",
"h 	c #9E9E9D",
"i 	c #B4B4B3",
"j 	c #959595",
"k 	c #EBEBEB",
"l 	c #898989",
"m 	c #7D7D7C",
"n 	c #757575",
"o 	c #7D7D7D",
"p 	c #F5F5F4",
"q 	c #9C9C9B",
"r 	c #6A6A6A",
"s 	c #ADADAC",
"t 	c #B2B2B1",
"u 	c #BABAB9",
"v 	c #E0E0DF",
"w 	c #9F9F9E",
"x 	c #DEDEDE",
"y 	c #D1D1D1",
"z 	c #B5B5AF",
"A 	c #2C2C09",
"B 	c #363614",
"C 	c #D1D1D0",
"D 	c #E8E8E7",
"E 	c #ECECEC",
"F 	c #464628",
"G 	c #939385",
"H 	c #D4D4D3",
"I 	c #2A2A08",
"J 	c #FAFA33",
"K 	c #EBEB2F",
"L 	c #999999",
"M 	c #D2D22A",
"N 	c #5D5D13",
"O 	c #C0C0C0",
"P 	c #AAAAA2",
"Q 	c #3D3D0C",
"R 	c #454517",
"S 	c #C0C0BF",
"T 	c #E6E6E5",
"U 	c #515128",
"V 	c #8F8F7C",
"W 	c #C4C4C4",
"X 	c #8D8D8D",
"Y 	c #6C6C6C",
"Z 	c #A2A2A1",
"` 	c #ABABAB",
" .	c #DADAD9",
"..	c #2A2A2A",
"+.	c #838383",
"@.	c #545454",
"#.	c #AAAAAA",
"$.	c #DEDEDD",
"%.	c #F1F1F0",
"&.	c #CACAC9",
"*.	c #B0B0AF",
"=.	c #7E7E7D",
"-.	c #5F5F5F",
";.	c #DCDCDC",
">.	c #303030",
",.	c #919191",
"'.	c #CECECD",
").	c #B5B5B5",
"!.	c #6B6B6B",
"~.	c #3E3E3E",
"{.	c #282828",
"].	c #696969",
"^.	c #868686",
"/.	c #030303",
"(.	c #A3A3A3",
"_.	c #E7E7E7",
":.	c #C1C1C0",
"<.	c #EDEDED",
"[.	c #C3C3C3",
"}.	c #3B3B3B",
"|.	c #B8B8B8",
"1.	c #9F9F9F",
"2.	c #828282",
"3.	c #636363",
"4.	c #9A9A9A",
"5.	c #EEEEED",
"6.	c #E1E1E1",
"7.	c #595959",
"8.	c #888888",
"9.	c #A5A5A4",
"0.	c #ABABAA",
"a.	c #818181",
"b.	c #353535",
"c.	c #EEEEEE",
"                                                                                    . + + + + + + + @         # + + + + + +     ",
"                                                                                    $ % % % % % % % &         * % % % % % % =   ",
"                                                                              - @ @ $ ; ; ; ; ; ; ; > @ @ @ @ , ; ; ; ; ; ; '   ",
"                                                                              ) % % ! ~ ~ ~ ~ ~ ~ ~ { % % % % ] ~ ~ ~ ~ ~ ~ ^   ",
"                                                                              ) % % ! ~ ~ ~ ~ ~ ~ ~ { % % % % ] ~ ~ ~ ~ ~ ~ ^   ",
"                                                                          / ( _ : : < ~ ~ ~ ~ ~ ~ ~ { % [ : : } ~ ~ ~ ~ ~ ~ |   ",
"                                                                          1 % 2 ~ ~ ~ ~ ~ ~ ~ ~ ~ ~ { % 3 ~ ~ ~ ~ ~ ~ ~ ~ ~ ~   ",
"                                                                          & 4 5 6 6 7 ~ ~ 8 6 6 6 6 9 % 3 ~ ~ 0 6 6 6 6 6 6 a   ",
"                                                                              ) % % ! ~ ~ b % % % % % % 3 ~ ~ * % % % % % % =   ",
"                                                                          c d e f f g ~ ~ h f f f f f f 5 ~ ~ i f f f f f f j   ",
"                                                                          1 % 2 ~ ~ ~ ~ ~ ~ ~ ~ ~ ~ ~ ~ ~ ~ ~ ~ ~ ~ ~ ~ ~ ~ ^   ",
"                                                                    k l l m n o ~ ~ ~ ~ ~ ~ ~ ~ ~ ~ ~ ~ ~ ~ ~ ~ ~ ~ ~ ~ ~ ~ p   ",
"                                                                    + % % q ~ ~ ~ ~ ~ ~ ~ ~ ~ ~ ~ ~ ~ ~ ~ ~ ~ ~ ~ ~ ~ ~ ~ ~ ~   ",
"                                                                    + % % r s t ~ ~ ~ ~ ~ ~ ~ ~ ~ ~ u s s s s s s s s s v ~ ~   ",
"                                                                    + % % % % 2 ~ ~ ~ ~ ~ ~ ~ ~ ~ ~ { % % % % % % % % % w ~ ~   ",
"                                                                x y z A A A A B C C D ~ ~ ~ ~ E C C F A A A A A A A A A G C H   ",
"                                                                , % I J J J J K % % ! ~ ~ ~ ~ L % % M J J J J J J J J J N % =   ",
"                                                                , % I J J J J K % % ! ~ ~ ~ ~ L % % M J J J J J J J J J N % =   ",
"                                                                , % I J J J J K % % ! ~ ~ ~ ~ L % % M J J J J J J J J J N % =   ",
"                                                                , % I J J J J K % % ! ~ ~ ~ ~ L % % M J J J J J J J J J N % =   ",
"                                                                , % I J J J J K % % ! ~ ~ ~ ~ L % % M J J J J J J J J J N % =   ",
"                                                                , % I J J J J K % % ! ~ ~ ~ ~ L % % M J J J J J J J J J N % =   ",
"                                                                y O P Q Q Q Q R S S v ~ ~ ~ ~ T S S U Q Q Q Q Q Q Q Q Q V S W   ",
"                                                                    + % % % % 2 ~ ~ ~ ~ ~ ~ ~ ~ ~ ~ { % % % % % % % % % w ~ ~   ",
"                                                                X 1 Y q q q q Z ~ ~ ~ ~ ~ ~ ~ ~ ~ ~ ` q q q q q q q q q  .~ ~   ",
"                                                                , % ..~ ~ ~ ~ ~ ~ ~ ~ ~ ~ ~ ~ ~ ~ ~ ~ ~ ~ ~ ~ ~ ~ ~ ~ ~ ~ ~ ~   ",
"                                                                , % ..~ ~ ~ ~ ~ ~ ~ ~ ~ ~ ~ ~ ~ ~ ~ ~ ~ ~ ~ ~ ~ ~ ~ ~ ~ ~ ~ ~   ",
"                                                                , % ..~ ~ ~ ~ ~ ~ ~ ~ ~ ~ ~ ~ ~ ~ ~ ~ ~ ~ ~ ~ ~ ~ ~ ~ ~ ~ ~ ~   ",
"                                                                +.@.1 #.#.$.~ ~ ~ ~ H #.#.#.#.#.#.#.%.~ ~ ~ ~ ~ ~ ~ ~ ~ &.#.*.  ",
"                                                                    + % % q ~ ~ ~ ~ =.% % % % % % % & ~ ~ ~ ~ ~ ~ ~ ~ ~ -.% =   ",
"                                                                    ;.>.>.,.'.'.'.'.$ >.>.>.>.>.>.>.).'.'.'.'.'.'.'.'.'.!.>.~.  ",
"                                                                          1 % % % % !               {.% % % % % % % % % w ~ ~   ",
"                                                                          ].b b b b ^.              {.% /.b b b b b b b (.~ ~   ",
"                                                                                                    {.% 3 ~ ~ ~ ~ ~ ~ ~ ~ ~ ~   ",
"                                                                                                    {.% 3 ~ ~ ~ ~ ~ ~ ~ ~ ~ ~   ",
"                                                                                                    k _.` ' ' :.~ ~ ~ ~ ~ ~ ~   ",
"                                                                                                        ).% % ] ~ ~ ~ ~ ~ ~ ~   ",
"                                                                                                        <.[.[.-.}.}.}.}.}.}.3   ",
"                                                                                                              * % % % % % % =   ",
"                                                                                                              |.1.2.% % 3.w 4.  ",
"                                                                                                                  y % % w   ^   ",
"                                                                                                                  y % % w   ^   ",
"                                                                                                                  y % % w   ^   ",
"                                                                                                                  y % % w   ^   ",
"                                                                                                                  y % % w   ^   ",
"                                                                                                                  y % % w   ^   ",
"                                                                                                                  y % % w   ^   ",
"                                                                                                                  y % % w   5.  ",
"                                                                                                                  y % % w       ",
"                                                                                                                  y % % w       ",
"                                                                                                                  y % % w       ",
"                                                                                                                  y % % w       ",
"                                                                                                                  y % % w       ",
"                                                                                                                  y % % w       ",
"                                                                                                                  y % % w       ",
"                                                                                                                  y % % w       ",
"                                                                                                                  y % % w       ",
"                                                                                                                  y % % w       ",
"                                                                                                                  6.7.7.8.9.0.  ",
"                                                                                                                        -.% =   ",
"                                                                                                                        a.b.[   ",
"                                                              <.                                                                ",
"                                                              c.                                                                ",
"                                                                                                                                "};
