/* XPM */
static char * Jumping_bunny_Right_xpm[] = {
"64 64 221 2",
"  	c #FFFFFF",
". 	c #D7D7D7",
"+ 	c #D4D4D4",
"@ 	c #DFDFDF",
"# 	c #F8F8F8",
"$ 	c #E9E9E9",
"% 	c #111111",
"& 	c #000000",
"* 	c #434343",
"= 	c #D6D6D6",
"- 	c #7E7E7E",
"; 	c #FBFBFB",
"> 	c #171717",
", 	c #060606",
"' 	c #464646",
") 	c #D2D2D2",
"! 	c #FEFEFE",
"~ 	c #676767",
"{ 	c #EDEDEC",
"] 	c #FFFFFE",
"^ 	c #BBBBBA",
"/ 	c #282827",
"( 	c #808080",
"_ 	c #EFEFEF",
": 	c #484848",
"< 	c #1D1D1D",
"[ 	c #919191",
"} 	c #E1E1E0",
"| 	c #FCFCFB",
"1 	c #F7F7F6",
"2 	c #404040",
"3 	c #F0F0EF",
"4 	c #292929",
"5 	c #747474",
"6 	c #303030",
"7 	c #979796",
"8 	c #494949",
"9 	c #0F0F0F",
"0 	c #626262",
"a 	c #A5A5A5",
"b 	c #414141",
"c 	c #BDBDBC",
"d 	c #E4E4E3",
"e 	c #4E4E4E",
"f 	c #737373",
"g 	c #0A0A0A",
"h 	c #4A4A4A",
"i 	c #A1A1A0",
"j 	c #B6B6B6",
"k 	c #BDBDBD",
"l 	c #868686",
"m 	c #CECECD",
"n 	c #0C0C0C",
"o 	c #FAFAFA",
"p 	c #656565",
"q 	c #7E7E7D",
"r 	c #999998",
"s 	c #373737",
"t 	c #EBEBEA",
"u 	c #F9F9F8",
"v 	c #959595",
"w 	c #B4B4B3",
"x 	c #9E9E9D",
"y 	c #CCCCCC",
"z 	c #686868",
"A 	c #A0A0A0",
"B 	c #787878",
"C 	c #141414",
"D 	c #5C5C5C",
"E 	c #F5F5F4",
"F 	c #BABABA",
"G 	c #898989",
"H 	c #888888",
"I 	c #757575",
"J 	c #898988",
"K 	c #777776",
"L 	c #A7A7A6",
"M 	c #B9B9B8",
"N 	c #7D7D7D",
"O 	c #7D7D7C",
"P 	c #EBEBEB",
"Q 	c #6A6A6A",
"R 	c #868685",
"S 	c #EAEAE9",
"T 	c #090909",
"U 	c #9C9C9B",
"V 	c #F3F3F2",
"W 	c #ADADAC",
"X 	c #515151",
"Y 	c #575757",
"Z 	c #E0E0DF",
"` 	c #BABAB9",
" .	c #B2B2B1",
"..	c #D9D9D8",
"+.	c #9F9F9E",
"@.	c #858585",
"#.	c #2D2D2D",
"$.	c #313131",
"%.	c #D1D1D0",
"&.	c #6E6E6E",
"*.	c #DFDFDE",
"=.	c #A9A9A8",
"-.	c #D4D4D3",
";.	c #939385",
">.	c #2C2C09",
",.	c #464628",
"'.	c #ECECEC",
").	c #E8E8E7",
"!.	c #363614",
"~.	c #B5B5AF",
"{.	c #D1D1D1",
"].	c #DEDEDE",
"^.	c #4C4C4B",
"/.	c #252525",
"(.	c #5D5D13",
"_.	c #FAFA33",
":.	c #D2D22A",
"<.	c #999999",
"[.	c #EBEB2F",
"}.	c #2A2A08",
"|.	c #040404",
"1.	c #50504F",
"2.	c #B2B2B2",
"3.	c #1A1A1A",
"4.	c #797979",
"5.	c #2B2B2A",
"6.	c #4E4E4D",
"7.	c #414140",
"8.	c #C5C5C4",
"9.	c #C0C0BF",
"0.	c #D0D0CF",
"a.	c #C4C4C4",
"b.	c #8F8F7C",
"c.	c #3D3D0C",
"d.	c #515128",
"e.	c #E6E6E5",
"f.	c #454517",
"g.	c #AAAAA2",
"h.	c #C0C0C0",
"i.	c #DADAD9",
"j.	c #ABABAB",
"k.	c #A2A2A1",
"l.	c #6C6C6C",
"m.	c #8D8D8D",
"n.	c #2A2A2A",
"o.	c #545454",
"p.	c #AAAAAA",
"q.	c #F8F8F7",
"r.	c #B0B0AF",
"s.	c #CACAC9",
"t.	c #F1F1F0",
"u.	c #DEDEDD",
"v.	c #838383",
"w.	c #5F5F5F",
"x.	c #3E3E3E",
"y.	c #6B6B6B",
"z.	c #B5B5B5",
"A.	c #DCDCDC",
"B.	c #282828",
"C.	c #8C8C8C",
"D.	c #F2F2F1",
"E.	c #A3A3A3",
"F.	c #030303",
"G.	c #696969",
"H.	c #E7E7E7",
"I.	c #9B9B9B",
"J.	c #525252",
"K.	c #C1C1C0",
"L.	c #A2A2A2",
"M.	c #C3C3C2",
"N.	c #3B3B3B",
"O.	c #585857",
"P.	c #C3C3C3",
"Q.	c #EDEDED",
"R.	c #6F6F6F",
"S.	c #9F9F9F",
"T.	c #9A9A9A",
"U.	c #636363",
"V.	c #828282",
"W.	c #B8B8B8",
"X.	c #D9D9D9",
"Y.	c #7B7B7B",
"Z.	c #3F3F3F",
"`.	c #D0D0D0",
" +	c #CBCBCB",
".+	c #949494",
"++	c #333332",
"@+	c #D8D8D7",
"#+	c #0F0F0E",
"$+	c #EEEEED",
"%+	c #F5F5F5",
"&+	c #7B7B7A",
"*+	c #909090",
"=+	c #1C1C1C",
"-+	c #F4F4F3",
";+	c #F9F9F9",
">+	c #383838",
",+	c #C6C6C5",
"'+	c #FAFAF9",
")+	c #5E5E5E",
"!+	c #CDCDCD",
"~+	c #E3E3E3",
"{+	c #A5A5A4",
"]+	c #595959",
"^+	c #5B5B5B",
"/+	c #CFCFCE",
"(+	c #848484",
"_+	c #E6E6E6",
":+	c #A8A8A7",
"<+	c #ABABAA",
"[+	c #E1E1E1",
"}+	c #CECECE",
"|+	c #353535",
"1+	c #C9C9C8",
"2+	c #939393",
"3+	c #D8D8D8",
"4+	c #878787",
"5+	c #818181",
"6+	c #8E8E8E",
"7+	c #F6F6F6",
"8+	c #EEEEEE",
"                                                                . + + + + + + @         # + + + + + + + $                       ",
"                                                                % & & & & & & *         = & & & & & & & -                       ",
"                                                ; # # # # # # # > , , , , , , ' # # # # ) , , , , , , , - # # !                 ",
"                                                ~ & & & & & & & { ] ] ] ] ] ] ^ & & & & / ] ] ] ] ] ] ] ( & & _                 ",
"                                                ~ & & & & & & & { ] ] ] ] ] ] ^ & & & & / ] ] ] ] ] ] ] ( & & _                 ",
"                            : < < < < < < < < < [ } } } } } } } | ] ] ] ] ] ] 1 } } 2 & / ] ] ] ] ] ] ] 3 } } 4 < 5             ",
"                            6 & & & & & & & & & 7 ] ] ] ] ] ] ] ] ] ] ] ] ] ] ] ] ] 8 & / ] ] ] ] ] ] ] ] ] ] 9 & 0             ",
"            a b b b b b b b a c c c c c c c c c d ] ] ] ] ] ] ] e b b b b b b f ] ] 8 & g b b b b h ] ] i b b j k =             ",
"            l & & & & & & & m ] ] ] ] ] ] ] ] ] ] ] ] ] ] ] ] ] % & & & & & & * ] ] 8 & & & & & & n ] ] ( & & _                 ",
"      o p p q r r n & s r r t ] ] ] ] ] ] ] ] ] ] ] u p p p p p v r r r r r r w ] ] j r r r r r r x ] ] y r r z p A             ",
"      # & & B ] ] C & D ] ] ] ] ] ] ] ] ] ] ] ] ] ] E & & & & & { ] ] ] ] ] ] ] ] ] ] ] ] ] ] ] ] ] ] ] ] ] ] 9 & 0             ",
"  F G H I I - J J K I L ] ] ] ] ] ] ] ] ] ] ] ] M J H I I I I I E ] ] ] ] ] ] ] ] ] ] ] ] ] ] ] ] ] ] ] ] ] ] N I O G G P       ",
"  Q & , ] ] R & & S ] ] ] ] ] ] ] ] ] ] ] ] ] ] ~ & T ] ] ] ] ] ] ] ] ] ] ] ] ] ] ] ] ] ] ] ] ] ] ] ] ] ] ] ] ] ] U & & +       ",
"  Q & , ] ] R & & S ] ] ] ] ] ] ] ] ] ] ] V W W K X Y ] ] ] ] ] ] ] Z W W W W W W W W W ` ] ] ] ] ] ] ] ] ] ]  .W Q & & +       ",
"  Q & , ] ] R & & S ] ] ] ] ] ] ] ] ] ] ] ..& & 7 ] ] ] ] ] ] ] ] ] +.& & & & & & & & & / ] ] ] ] ] ] ] ] ] ] 9 & & & & +       ",
"  @.#.$.%.%.&.& & S ] ] ] ] ] ] ] ] ] *.%.M #.#.=.] ] ] ] ] ] ] -.%.;.>.>.>.>.>.>.>.>.>.,.%.%.'.] ] ] ] ).%.%.!.>.>.>.>.~.{.].  ",
"      # & & & & & S ] ] ] ] ] ] ] ] ] ^.& /.] ] ] ] ] ] ] ] ] ] % & (._._._._._._._._._.:.& & <.] ] ] ] ( & & [._._._._.}.& '   ",
"      # T T |.& & S ] ] ] ] ] ] | E E 1.T #.] ] ] ] ] ] ] ] ] ] % & (._._._._._._._._._.:.& & <.] ] ] ] ( & & [._._._._.}.& '   ",
"            l & & S ] ] ] ] ] ] k & & 2.] ] ] ] ] ] ] ] ] ] ] ] % & (._._._._._._._._._.:.& & <.] ] ] ] ( & & [._._._._.}.& '   ",
"            l & & S ] ] ] ] ] ] k & & 2.] ] ] ] ] ] ] ] ] ] ] ] % & (._._._._._._._._._.:.& & <.] ] ] ] ( & & [._._._._.}.& '   ",
"      # 3.3.4.d d 5.3.3.3.3.3.3.6.d d 1 ] ] ] ] ] ] ] ] ] ] ] ] % & (._._._._._._._._._.:.& & <.] ] ] ] ( & & [._._._._.}.& '   ",
"      # & & B ] ] C & & & & & & 7.] ] ] ] ] ] ] ] ] ] ] ] ] ] ] % & (._._._._._._._._._.:.& & <.] ] ] ] ( & & [._._._._.}.& '   ",
"      # & & B ] ] 8.9.9.9.9.9.9.0.] ] ] ] ] ] ] ] ] ] ] ] ] ] ] a.9.b.c.c.c.c.c.c.c.c.c.d.9.9.e.] ] ] ] Z 9.9.f.c.c.c.c.g.h.{.  ",
"      # & & B ] ] ] ] ] ] ] ] ] ] ] ] ] ] ] ] ] ] ] ] ] ] ] ] ] ] ] +.& & & & & & & & & / ] ] ] ] ] ] ] ] ] ] 9 & & & & +       ",
"      # & & B ] ] ] ] ] ] ] ] ] ] ] ] ] ] ] ] ] ] ] ] ] ] ] ] ] ] ] i.U U U U U U U U U j.] ] ] ] ] ] ] ] ] ] k.U U U U l.0 m.  ",
"      # & & B ] ] ] ] ] ] ] ] ] ] ] ] ] ] ] ] ] ] ] ] ] ] ] ] ] ] ] ] ] ] ] ] ] ] ] ] ] ] ] ] ] ] ] ] ] ] ] ] ] ] ] ] ] n.& '   ",
"      # & & B ] ] ] ] ] ] ] ] ] ] ] ] ] ] ] ] ] ] ] ] ] ] ] ] ] ] ] ] ] ] ] ] ] ] ] ] ] ] ] ] ] ] ] ] ] ] ] ] ] ] ] ] ] n.& '   ",
"      # & & B ] ] ] ] ] ] ] ] ] ] ] ] ] ] ] ] ] ] ] ] ] ] ] ] ] ] ] ] ] ] ] ] ] ] ] ] ] ] ] ] ] ] ] ] ] ] ] ] ] ] ] ] ] n.& '   ",
"      o o.o.O p.p.q.] ] ] ] ] ] ] ] ] ] ] ] ] ] ] ] ] ] ] ] ] ] r.p.s.] ] ] ] ] ] ] ] ] t.p.p.p.p.p.p.p.-.] ] ] ] u.p.p.0 o.v.  ",
"            l & & S ] ] ] ] ] ] ] ] ] ] ] ] ] ] ] ] ] ] ] ] ] ] % & w.] ] ] ] ] ] ] ] ] = & & & & & & & q ] ] ] ] U & & +       ",
"            l & & S ] ] ] ] ] ] ] ] ] ] ] ] ] ] ] ] ] ] ] ] ] ] x.6 y.m m m m m m m m m z.6 6 6 6 6 6 6 - m m m m [ 6 6 A.      ",
"            l & & S ] ] ] ] ] ] ] ] ] ] ] ] ] ] ] ] ] ] ] ] ] ] ] ] +.& & & & & & & & & B.              ( & & & & 0             ",
"            C.n n @ D.1 ] ] ] ] ] ] ] ] ] ] ] ] ] ] ] ] ] ] ] ] ] ] E.n n n n n n n F.& B.              l n n n n G.            ",
"                  C & D ] ] ] ] ] ] ] ] ] ] ] ] ] ] ] ] ] ] ] ] ] ] ] ] ] ] ] ] ] ] 8 & B.                                      ",
"                  C & D ] ] ] ] ] ] ] ] ] ] ] ] ] ] ] ] ] ] ] ] ] ] ] ] ] ] ] ] ] ] 8 & B.                                      ",
"                  $ H.I.> > > > J.] ] ] ] ] ] ] ] ] ] ] ] ] ] ] ] ] ] ] ] ] ] K.> > j.H.P                                       ",
"                      L.& & & & 7.] ] ] ] ] ] ] ] ] ] ] ] ] ] ] ] ] ] ] ] ] ] ^ & & z.                                          ",
"                      L.& & x M.A N.N.N.N.O.] ] ] ] ] ] ] ] ] ] 8 N.N.N.N.N.N.w.P.P.Q.                                          ",
"                      L.& & m ] k & & & & /.] ] ] ] ] ] ] ] ] ] % & & & & & & *                                                 ",
"                      L.& & m ] k & & R.S.v w.w.w.w.w.w.w.w.w.w.T.+.U.& & V.S.W.                                                ",
"                      L.& & m ] k & & 2.  X.& & & & & & & & & & { ] +.& & {.                                                    ",
"                      L.& & m ] k & & 2.  P Y.Y.Y.Y.Y.Y.Y.Z.& & { ] +.& & {.                                                    ",
"                      L.& & m ] k & & 2.                  v.& & { ] +.& & {.                                                    ",
"                      L.& & m ] k & & 2.                  v.& & { ] +.& & {.                                                    ",
"                      L.& & m ] k & & 2.                  v.& & { ] +.& & {.                                                    ",
"                  `. +.+++++@+] k & & 2.                  v.& & { ] +.& & {.                                                    ",
"                  C & D ] ] ] ] k & & 2.                  v.& & { ] +.& & {.                                                    ",
"                  C & D ] ] ] ] k & & 2.            ! _ _ v.#+#+$+] +.& & {.                                                    ",
"                  C & D ] ] ] ] k & & 2.            %+& & &+] ] ] ] +.& & {.                                                    ",
"                  C & D ] ] ] ] k & & 2.            %+& & &+] ] ] ] +.& & {.                                                    ",
"            *+C C @+S t.] ] ] ] k & & 2.        5 C =+S S -+] ] ] ] +.& & {.                                                    ",
"            l & & S ] ] ] ] ] ] k & & 2.        ~ & T ] ] ] ] ] ] ] +.& & {.                                                    ",
"      ;+>+>+Y.,+,+'+] ] ] ] ] ] k & & 2.        ~ & T ] ] ] ] ] ] ] +.& & {.                                                    ",
"      # & & B ] ] ] ] ] ] ] ] ] k & & 2.        ~ & T ] ] ] ] ] ] ] +.& & {.                                                    ",
"  A D )+k.k.!+] ] ] ] ] ] ] Y.D &.L.L.~+  H.D D @.k.{+] ] ] ] ] ] ] +.& & {.                                                    ",
"  Q & , ] ] ] ] ] ] ] ] ] ] 6 & b         X.& & 7 ] ] ] ] ] ] ] ] ] +.& & {.                                                    ",
"  Q & , ] ] ] ] ] ] ] ] ] ] 6 & b         X.& & 7 ] ] ] ] ] ] ] ] ] +.& & {.                                                    ",
"  Q & , ] ] ] ] ] ] ] ] ] ] 6 & b         X.& & 7 ] ] ] ] ] ] ] ] ] +.& & {.                                                    ",
"  S.]+^+{+{+/+] ] ] ] u.{+{+z ]+(+        _+]+]+l {+:+] ] ] ] ] <+{+H ]+]+[+                                                    ",
"      # & & B ] ] ] ] k.& & }+                  ~ & T ] ] ] ] ] % & w.                                                          ",
"      ;+|+|+Y.1+1+1+1+2+|+|+3+                  4+|+N.1+1+1+1+1+2 |+5+                                                          ",
"            l & & & & D                             %+& & & & & Q.                                                              ",
"            6+% % % % z                             7+% % % % % 8+                                                              ",
"                                                                                                                                "};
