/* XPM */
static char *Wall21706844329[] = {
/* columns rows colors chars-per-pixel */
"64 64 256 2 ",
"   c #3C0403",
".  c #340B02",
"X  c #3D0D03",
"o  c #3E0C0B",
"O  c #380203",
"+  c #391006",
"@  c #371108",
"#  c #3D0A13",
"$  c #2D0F05",
"%  c #440303",
"&  c #4C0403",
"*  c #440B03",
"=  c #4C0B04",
"-  c #43060A",
";  c #4C060A",
":  c #440B0C",
">  c #4C0B0B",
",  c #530302",
"<  c #5B0302",
"1  c #530A04",
"2  c #5B0B04",
"3  c #53060A",
"4  c #5B050A",
"5  c #540C0B",
"6  c #5B0C0B",
"7  c #451202",
"8  c #48120B",
"9  c #541205",
"0  c #5D1206",
"q  c #54120A",
"w  c #5C120C",
"e  c #5D1A0C",
"r  c #450C11",
"t  c #4C0D10",
"y  c #540E12",
"u  c #5C0C12",
"i  c #491210",
"p  c #531211",
"a  c #5B1212",
"s  c #571B18",
"d  c #630401",
"f  c #6C0301",
"g  c #630C03",
"h  c #6A0B04",
"j  c #620D0B",
"k  c #6B0D0B",
"l  c #66060A",
"z  c #730C03",
"x  c #7C0C02",
"c  c #710E0C",
"v  c #7A0505",
"b  c #641104",
"n  c #6B1206",
"m  c #65130B",
"M  c #6B130C",
"N  c #68190C",
"B  c #731205",
"V  c #75140D",
"C  c #7C140C",
"Z  c #751A0E",
"A  c #7C1A0C",
"S  c #771705",
"D  c #620D12",
"F  c #690C12",
"G  c #641313",
"H  c #6B1413",
"J  c #6A1A13",
"K  c #651918",
"L  c #751512",
"P  c #7D1513",
"I  c #751B13",
"U  c #7C1C14",
"Y  c #7D1C1B",
"T  c #73191B",
"R  c #7B0F11",
"E  c #68221B",
"W  c #7C221C",
"Q  c #792418",
"!  c #721C21",
"~  c #672628",
"^  c #782725",
"/  c #7D3532",
"(  c #830B03",
")  c #8B0D0A",
"_  c #870904",
"`  c #851506",
"'  c #8A1205",
"]  c #83140C",
"[  c #8B130B",
"{  c #871B0D",
"}  c #93160C",
"|  c #951B0C",
" . c #9B1C0D",
".. c #98150B",
"X. c #841513",
"o. c #831C13",
"O. c #8B1C14",
"+. c #841D1B",
"@. c #8B1D1B",
"#. c #8A1614",
"$. c #941311",
"%. c #931C14",
"&. c #9C1C14",
"*. c #941D1B",
"=. c #9C1B1C",
"-. c #9C1614",
";. c #970E09",
":. c #A41B0E",
">. c #A31D14",
",. c #AA1C15",
"<. c #A31D1B",
"1. c #AB1C1B",
"2. c #A61515",
"3. c #B21D1E",
"4. c #B01419",
"5. c #97210E",
"6. c #862115",
"7. c #84231B",
"8. c #8B231C",
"9. c #8B291D",
"0. c #882518",
"q. c #942314",
"w. c #9C2315",
"e. c #94231B",
"r. c #9C241C",
"t. c #9B2A1E",
"y. c #952B1A",
"u. c #8F2A15",
"i. c #A32315",
"p. c #AC2316",
"a. c #A42916",
"s. c #A4241C",
"d. c #AB231B",
"f. c #A4291B",
"g. c #AB2B1D",
"h. c #AD2A17",
"j. c #B2251C",
"k. c #B72A1F",
"l. c #AC321D",
"z. c #941E22",
"x. c #9B1E22",
"c. c #8A1D22",
"v. c #A71D22",
"b. c #B21D21",
"n. c #842423",
"m. c #8C2423",
"M. c #832A23",
"N. c #8B2B24",
"B. c #8B2A2B",
"V. c #87282B",
"C. c #932523",
"Z. c #9B2521",
"A. c #942B24",
"S. c #9B2B23",
"D. c #942B2B",
"F. c #9A2A2B",
"G. c #8D342B",
"H. c #883328",
"J. c #9B3426",
"K. c #9B352B",
"L. c #9C3A2C",
"P. c #93352C",
"I. c #8C2F31",
"U. c #972D34",
"Y. c #873533",
"T. c #943434",
"R. c #9B3A34",
"E. c #9C3B3A",
"W. c #95373A",
"Q. c #A32422",
"!. c #AB2322",
"~. c #A42A24",
"^. c #AB2B23",
"/. c #A32C2A",
"(. c #AB2829",
"). c #B22423",
"_. c #B22A24",
"`. c #B32C2B",
"'. c #B92928",
"]. c #A7352B",
"[. c #B2342B",
"{. c #B73729",
"}. c #B22D31",
"|. c #A43C34",
" X c #A93C34",
".X c #A23C3B",
"XX c #A83837",
"oX c #BC3C34",
"OX c #BE3C3B",
"+X c #B63836",
"@X c #AA2E31",
"#X c #C53A2D",
"$X c #C33C3B",
"%X c #C73C37",
"&X c #D13B3B",
"*X c #99422F",
"=X c #984238",
"-X c #8E4339",
";X c #A3432E",
":X c #A94339",
">X c #BC4235",
",X c #BC453B",
"<X c #BC493B",
"1X c #B24336",
"2X c #BD432F",
"3X c #C3433C",
"4X c #C44B3B",
"5X c #CA4C3E",
"6X c #C94538",
"7X c #D34B38",
"8X c #C8543A",
"9X c #D45239",
"0X c #D4462F",
"qX c #9C3841",
"wX c #BA3D42",
"eX c #C63D41",
"rX c #D03F45",
"tX c #9B4642",
"yX c #A84844",
"uX c #BD4543",
"iX c #BB4A43",
"pX c #B54947",
"aX c #B85549",
"sX c #BD4B52",
"dX c #B85853",
"fX c #AB524D",
"gX c #BA605A",
"hX c #C44343",
"jX c #CC4543",
"kX c #C44B45",
"lX c #CC4C42",
"zX c #C7494C",
"xX c #D54C46",
"cX c #C4534B",
"vX c #CC544B",
"bX c #C25B4B",
"nX c #CB5C4C",
"mX c #CA5545",
"MX c #D45648",
"NX c #C64C52",
"BX c #CB5652",
"VX c #CD5D52",
"CX c #C95856",
"ZX c #D45B5C",
"AX c #D45855",
"SX c #DA4952",
"DX c #CA6356",
"FX c #D6655B",
"GX c #D7645B",
"HX c #CC664E",
"JX c #D15E62",
"KX c #E65E63",
"LX c #D76364",
"PX c #C86463",
"IX c #E36163",
"UX c #E1594C",
/* pixels */
"2 2 d f f f 2 0 2 0 9 9 e 7 7 9 , c C z z z f d d g d g g g g g < g 2 d d d f f f f d < 3 , 6 < f f f f f f f f d f f f c d & & ",
"g n 6.y.XX|.*X*X*X*X*X*X-XE q e m.XXXX|.1X X|.J.A 6.y.L.;X;X;X*X*XR.;X*X|.|.|.|. X:X:XtX^ 3 2 b o.%.~.].1X>X>X1X;X:X1X1X:XE.E 5 ",
"B O./.+XMXBXbXaXaXbXaXdXyX^ 0 m wXNXAXNXZXAXvXkXt.].1X<XmXnXnXmXnXbXmXmXmXmXvXMX4XmXbXdXG.2 g Q t. XkXnXnXnXVXnXHXnXnXAXZXsXI.4 ",
"O.*.(.[.3XhXiX<X<X<XiXpXyXn.m L qXrXSXrXjXhX$X[.^.^.l.^.oX2XoX>X<X<X<X4X6X6X6X6X6X4XiXyXM.d n 7.].+X<XmX,X,X<X<X4X,X3X3XzXpXB., ",
"( %.!.b.!.!.Q.Z.f.~.S.S.+.L l X.wXSXeXb.!.b.d.!._.^.^.g.d.d.p.a.i.a.g.h.d.p.p.p.h.{.bXaXN.< B K.iX>X[.Q.s.s.s.r.r.t.~.~./.U.T 4 ",
"( $.!.v.<.v.r.r.e.=.e.C.+.L l c wXSXrXb.b.).!.!.d.d.d.i.>.i.:.w.|  .5. . .:.p.:.p.{.aXaXN.d L :XvX3X[.d.Q.d.d.s.y.e.=.=.D.c.T 4 ",
"x %.Q.!.v.Q.r.t.q.] ] 6.N.I d h Q.eX$X!.!.!.s.^.+X[.a.w. .&.w.&.5.5.| | ' i.p.:.g.~..XqXT , l 6.[.'.`.^.d.d.p.d.q.6.] R R T H y ",
"x @.Z.Q.r.Z.e.e.O.z z +.G.I < d x ~.~.$.Q.d.!.f.xX3X[.f.a.w.a.w.` ` ' _ ' i.a.i.=.Z.F.c.F < 6 l ] $.d._.d.d.p.a.%.{ v f d F u ; ",
"x O.t.*.Z.e.e.O.8.] A 7.G.Z < < 6.6.t.s.f.d.d.d.3X3X{.^.s.d.d.r.w.| ( v } r.w.=.=.x.z.m.T 4 4 j z ] $.d.p.p.a.a.&.[ _ f l 4 3 3 ",
"x o.e.8.C.8.O.#.S.|.|.A.G.Q g b Z A 0.q.w.w.=.d.^.^.^.s.r.r.r.s.>X[. .( $.r.w.%.$.*.z.c.T , 3 4 g V O.%.p.a.a.w.s.<.*.X.c.T D u ",
"V +.8.7.A.8.7.o./.pXpXF.N.I h n n Z U 6.@.%.%.%.%.r.Z.S.t.t.t.t.kX1Xe.[ O.r.*.#.#.@.c.n.K , = 5 6 k ] %.a.i.y.a.Z.Z.C.m.I.! K y ",
"H n.N.^ V.M.W Y D.|.|.D.U n 2 b b N Z U U +.o.O.e.S.K. XC.C.C.A.pX|.m.U o.C.8.P I U T ^ G % - : 5 j V o.t.y.u.u.6.6.n.^ ^ ~ u r ",
"< 6 u G G j D F D F G D w q 9 7 9 w N J M k f f d V T.dXyXM.H l < g M J k m M m 6 0 q q : : r i = y 6 h  XaX*XS b b m w u y t r ",
"& 3 y a y p y 5 6 u 6 5 > = * * * 8 8 w 6 2 < < H T Y.fXW.T < 2 , 5 w 6 6 5 q w 9 q 9 p o : o o 8 > 3 l =XyX=XQ 0 9 9 q y t r r ",
"% % > t > > t ; 4 4 4 3 3 = : * * * 8 = 1 = , 1 , & 6 ^ ^ w & 5 & 5 w 1 1 5 1 1 1 = = = * - o # o o & < H Q N = 7 7 7 7 : - - # ",
"% % & > ; & & & < 4 < , , & & = * * * & = , , 1 , & & a a & % ; % & & % & & & & & & & % % % % % o   & & , 2 , % * 7 * * * - O O ",
"g G M < k b k g h n h < g g g g g g b b b 0 2 g b Z n b w < < < j 4 6 6 g 4 6 j g m b m b N g , 6 m j j m m m g 0 0 0 0 w p : O ",
"P A.R.R.D.A.J.A.1X Xy.] o.q.J. XL.J.L.L.J.J.J.J.J.].7.Q H 2 , j E.E.E.qXE.E..XE.R.N.7.Z 9.K.:X|.R.R.R.R.R.|.|.R.L.P.T.P.W.Y.K X ",
"/.iXZXZXLXZXLXZXZXAXkX[.[.,XvXGXFXFXLXFXFXFXFXFXZXZXXXB.W 6 5 K PXJXJXLXLXLXLXLXVXcX+X~.,XvXGXGXGXGXGXGXGXGXFXFXFXFXFXFXDXdXY.9 ",
"x.}.OXOX$XwXOX$X}.+X+X(.d.(.+X3XiX<XkX<XhX3X3X3X$XrX+X@Xn.j q Q qXwX+XwXhXhXhXhXeX+X(.v._.+X$XoXjXlX5XlX5X5X5X5XmXMXMXmXVXaXN., ",
"( x.(.v.`.v.(.v.!.).).).2.v.).`.~.~.~.~.^.!.v.1.#Xb.eXNXyXF 1 K S.=.=.-.<.=.>.<.;.-.4.2.b.b.b.3.g.#XMXxX{.h.{.7XUXMXMXlXAXmXA., ",
"_ v.v.=.v.<.!.b.!.!.!.v.1.1.v.d.e.e.t.r.d.<.1.3.4.'.eXzXE.H , m Z.d.&. .%.&.=.>.2.4.4.b.3.b.b.3.,.{.7X%Xk.j._.6X9XxX9XxXAXvXy.< ",
"_ x.Q.$.$.$.x.!.s.s.d.<.>.&.-.} ] o.q.%.s.<.1.4.4.b.}.+XD.l 4 m y.w.%.| 5.w.w.&.2.3.b.b.).3.b.3.>.&.!.d.i.d.^.{.6X6XlXMXZXcXN.< ",
") x.Z.) ( [ r.Z.s.Q.s.s.s.-.} ' x S O.%.r.>.1.1.1.!.x.#.P l m I y.q.5.5.5.w.q.&.>.d.).'.1.d.1.<..._ _ ( ' &.s.r.a.oXjXBXVXaXN., ",
"#.e.e.` ` [ w.~.r.w.s.r.Q.w.$.[ x x ` w.[.i.&.d.%.O.` V g , 1 < y.y.q.y.w.q.q.%.%.s.~.~.s.s.w.*.%.) ( ( #.w.~.Z.y.{.4X,XcXyXM., ",
"z { y.S.;X~.8.{ q.%.%.q.w.w.%.| ` ` O.q.s.s.>.r.8.{ Z M 2 = = 1 B { q.J.q.u.{ O.%.q.e.e.e.e.S.S.8.O.X.] X.@.C.S.t.t.S.S.N.7.m 2 ",
"A 0.L.:XpX*Xo.z A.A.t.S.S.S.S.].y.J.J.~.e.r.~.Z.6.Z B m 2 = 7 = < z 6.A.6.O.{ A o.6.8.6.6.8.e.e.8.e.+.] X.P 8.A.y.6.C P V k 2 9 ",
"N n Q G.P.9.Q B 9.9.8.0.A o.6.0.Q M.7.6.@.S.J.F.6.Z n 0 q = 7 = , h L Q 7.Q V Z Z U +.o.+.Q +.n.7.7.Y A I k L Q Q Z Z U L K 5 = ",
"0 0 0 0 J J J N N N M M V M M M N m M M Y .XpX=XZ N 0 9 * * + * 1 < j J 0 g m j m m m m M m J m J M M m M m m m e N M K a w > t ",
"q 9 q 9 9 9 9 0 0 2 0 2 j 6 j 2 w 0 0 0 J W.fXyXn 0 9 = * X + X = = 1 q w 5 6 q 5 w 6 6 q 6 4 w 2 5 5 w 6 9 w 9 9 q q p 3 t : r ",
"7 = * * = = 1 = 1 1 1 1 1 1 1 1 = 9 > 5 a T V.^ 9 1 * * X + @ + o * * > > > = > > 5 = > 5 = = 1 = 1 = = = = = 9 7 8 > t r r r # ",
"= * * = = = = = = = = = & & & & = % & & & & & , , & & % * X + X : & > * = & & = & & > = = > = = = & = = = = = * 7 7 > ; ; r r r ",
"1 2 2 b , , , , , , , & , 6 % % % 3 u 3 , , , & j , & < , , & & , , , , < < < < , , < ; & % > % 1 , , , , & , & & , 4 4 3 3 ; ; ",
"B S o.0.L.L.R.R.|.E.E.=XY.^ , F ^ I.qXqXqXW.W.I.L V n..XT.T.T.W.E.R..X.XXXXXXXXXE.:X-XY.K % 5 G ^ B.W.:XW.W.R.R.R.R.U..XqXU.! ; ",
"{ q.S. XcXBXvXBXBXCXCXDXdXT.k c E.pXsXwXNXsXNXpXz.C.XXCXBXBXBXcXVXnXnXnXAXMXMXAXkXBXaXfX^ 1 9 W m.@XuXcXBXBXBXBXBXAXAXCXNXpXU.l ",
"[ %.].+XkXkXzXkXiXiXpXiX|.M.c V XXzXNXNXeXwXwX+X/.Q.+XvXzXhXhXkX<X4X4X5X5XjX6X6X6XvXbXaXQ 2 g 7.@XoX3XzX5XjX3XjXjXjXrXjXzXqXc.< ",
"_ &.!.Q.!.~.~.Q././.F.F.J.A h A wXzXeX}.}.`.`.(.v.d.`.[.[._.^.^.~.^.^.^.d.d.d.1.j.{.kXaX9.g N L.kX$X{.1.).).j.j.).b.'.`.(.Z.L < ",
"_ -.~.!.Q.s.v.Z.Z.S.A.A.H.N 2 B XXeX$X`.!.!.!.s.,.d.p.d.p.:.>.>.w.%.w.&.-.<.2.,.,.).3XiX9.2 Z yXkX%X).d.<.p.d.,.4.2.2.-.x.m.m & ",
"( %.~.s.Z.Z.r.t.9.9.7.9.Q b 1 b e.(.`.Q.s.s.s.a.l.l.a.i.5.5.5.5.` ` ` ' [ r.~.>.3.3.[.@X7., 2 9./.(.(.^.d.s.~.s.,.>.$.) U I 0   ",
"( e.~.~.Q.Z.Z.y.] Z Z Z 7.b , g ] r.~.Q.s.r.r.w.4X2X{.l.a.a.a.a.x x x ( ' r.~.>.1.b./.e.V , 2 M @.r.Z.~.~.s.s.f.<.=.) x l 0 = O ",
"O.t.~.~.!.Q.r.e.%.#.#.8.6.z d d o.%.w.Z.r.r.r.w.MX6X^.a.a.a.a.s.| } ' ( } w.r.<.1.v.x.*.h , 1 0 V @.m.S.q.w.w.w.#.X.v R l D 5 O ",
"o.C./.Q.~.x.8.@.XX+XXX/.6.z d d ] X.*.e.e.=.e.w.1X[.l.t.a.a.s.a.>X].%.' %.r.s.Z.v.v.x.C.h , 1 0 m L 6.e.y.w.w.w.*.@.+.c.T ! s % ",
"V 7.Z.=.Z.z.+.o. XzXpXK.n.k d < B C o.@.@.@.@.e.t.t.t.S.S.S.S.S.VX<X~.q.O.e.Z.e.z.z.C.V.m , = 1 g k L 7.e.y.w.q.8.8.N.B.V.^ s : ",
"m 7.m.c.c.7.U L D.qX.XW W M < , k M L +.+.+.+.o.7.6.A.A.D.A.S.J. XK.8.o.V @.6.+.+.+.n.M.J = = = 2 6 k L N.9.y.e.A o.m.V./ ~ s O ",
"2 j l l l l j j l F j D 0 5 1 1 6 m K T T M g < , < N.dXyXW k L h l k h k k k k F G G K y * % ; 3 5 6 F yXfX*XB n n M m E s + . ",
"p 5 D l l 6 y 5 6 6 6 5 5 > % = > 3 3 4 5 4 , , 2 m M.tXtXT < j j 2 g 4 6 4 6 3 y y y t > - : - - 3 y 6 yXgXyXQ g 2 g 2 q 8 . $ ",
"p t y 3 3 3 > > ; 3 > > * : o % * & ; % ; ; & & w 5 a / ^ K 1 1 5 2 3 1 = 3 & > r : o : o o - : - - ; u T ^ U 2 2 1 2 = = X $ $ ",
"i p 3 & , ; & % , ; , & : % - -   % % & ; & ; ; & % % q q > % % 3 & & & & % & * : o o o - : - - - ; ; ; & & , , 1 , & = % . @ $ ",
"s E E p D G D u 4 4 4 u 4 u 3 3 4 y u u u l D l G w 9 = > % = 3 K F D u 5 8 8 * 9 9 9 9 1 e e 1 3 2 2 2 2 2 2 2 2 2 0 9 q t r # ",
"K / tXtXW.U.W.U.U.m.c.V.H Y U.W.I.I.U.U.U.U.U.F.E.Y.Q E w 1 > u qXU.W.W.W.W.-X-XY.^ I n W G.G.9.N.G.H.G.P.G.G.P.G.G.G.G.H./ ~ # ",
"G.fXgXPXCXCXZXZXZXNXzXuX/.wXCXLXLXLXLXIXKXKXKXKXFX<X*X9.Z 2 2 I JXSXAXCXLXLXLXFXnXiX|.t.1XbXVXnXHXnXVXVXHXAXHXDXHXHXHXHXgXdX/ # ",
"7.|.pXiXuXhXeXeXzXeX}.Q.x.(.$XkX$X$X3X%X$X&XrX&X2X{. X1Xo.d g +.uXwXhX3XhXkX4X5X,X[.f.i.g.>X5X4X5X5X5XlX5XjXxXlX5X8X8X8XbXdXY.  ",
"{ t.l.t.~.d.d.!.).)._._._.d.>.i.l.g.g.h.j.k.k.k.h.a.{.mX:XS d Z F.Z.r.%.*.s.s.&...:.>.p.j.j.j.j.d.#XUXUX#X_.#X7X9X9X9X8XHXaXH.* ",
"` u.t.5.w.i.,.d.d.p.p.a.d.d.i...w. .i.i.,.p.j.j.j.h.{.kX:XV , g U.A.e.*.*.Q.s.&.:.2.,.,.p.p.p.,.p._.7XxX#Xp._.&X0X0X9X9X8XaXM.= ",
"B { u.5.' ..i.a.d.a.a.f.a.a.w. .| | &.a.,.p.j.j.j.d./. XN.b , 0 D.D.C.*.z.v.v.2.-.2.,.p.,.,.,.<.>.>._._.1.<._.{.#X0X9X9X8XaXH.& ",
"B { u.` v '  .a.g.f.h.a.a.i.5.| _ ' ..:.>.,.1.j.d.^.e.8.M , = J I.D.c.z.x.(.v.<.-.>.d.d.-.>.-.-...) } _ _ s.(.&.p.0X9XMXnXaXH.& ",
"x O.e.O.x ( } r.d.a.f.d.f.i.>. .' _ ;. .,.,.1.d._.s.O.Z g & & 1 T.I.z.c.z./.v.x.&.,.d.d.d.i. ...) ( v v ) O.Z.-.,.'.$XvXcXyX7., ",
"x e.].:X Xe.#.[ w.t.f.f.d.a.i.>.d.>.:.,.1.<.<.>.>.%.V n 9 % & , T +.V.D.z.z.x.z.-.%.r.s.d.s.s.r.e.#.] C X.@.C.Z.<.!.(.F.C.N.Z , ",
"k 7.K.pXDXwXA.8.@.e.S.S.r.Z.s.~.~.Q.Z.Q.r.s.r.s.$.] B m 9 = * = 6 L Y B.c.c.c.#.#.%.*.r.e.Z.S.Z.C.7.o.P P U 7.C.Z.*.#.X.U Q m = ",
"m L ^ tX=XV.U U o.7.m.A.A.A.C.A.C.@.*.@.C.S.S.C.V B n w 9 % % = 5 G T T T Y +.X.X.+.+.7.8.N.N.A.7.I L k I H T Y +.X.R T W J 2 % ",
"w e e e N N J J J m 2 j k M k c c c c c Y qXsXW.L g 1 9 7 o * * s s K D F F F F F H H H H H K J G j 6 6 m 6 u j H F F G a q > = ",
"9 9 9 9 9 = = 9 5 5 < < < 4 4 4 4 j u j T W.fXtXN 1 = * + o o : p p p a u D D D D 5 6 a a a 6 a y 5 5 3 y y y 5 6 u 5 5 5 > * : ",
"7 7 + 7 * * * * = = = & & > 5 3 3 3 3 4 a ~ Y.^ 9 * X . @ @ o o r i t t y 3 3 3 y t t t > t t t t > : t > t t > ; ; > - : * : o ",
"+ + + + * . X % * * * > ; ; ; ; & ; - & ; & & % =   . . @ @ @ # o : - r ; ; 3 3 r : r r i r r i r r r r : r : : -   - - %   o o "
};
